<?xml version="1.0" encoding="UTF-8" ?>
<!DOCTYPE svg PUBLIC "-//W3C//DTD SVG 1.1//EN" "http://www.w3.org/Graphics/SVG/1.1/DTD/svg11.dtd">
<svg width="512pt" height="154pt" viewBox="0 0 512 154" version="1.1" xmlns="http://www.w3.org/2000/svg">
<g id="#000000ff">
<path fill="#000000" opacity="1.00" d=" M 453.83 0.00 L 462.41 0.00 C 475.54 0.57 489.64 3.06 499.65 12.25 C 507.81 19.53 511.19 30.58 512.00 41.17 L 512.00 49.84 C 510.92 64.69 507.11 79.19 502.19 93.20 C 497.58 106.18 492.13 119.01 484.37 130.46 C 476.64 142.14 465.02 152.65 450.49 154.00 L 445.17 154.00 C 430.10 152.58 417.03 143.84 405.85 134.23 C 393.75 123.62 383.02 111.48 373.48 98.54 C 365.23 86.97 357.68 74.24 355.47 59.98 C 353.87 50.09 356.36 39.53 362.79 31.76 C 371.80 20.78 385.18 14.67 398.35 10.23 C 416.30 4.48 435.03 1.17 453.83 0.00 M 475.30 41.39 C 465.86 42.43 456.67 45.26 448.01 49.10 C 439.77 52.89 431.57 58.41 427.79 66.97 C 424.34 74.66 425.68 83.56 428.80 91.12 C 432.43 99.86 437.83 107.78 443.98 114.94 C 448.73 120.11 454.56 125.37 461.91 125.92 C 468.49 126.36 474.10 121.88 477.95 116.97 C 484.58 108.44 488.62 98.25 492.18 88.14 C 495.21 79.05 497.94 69.63 497.87 59.96 C 497.82 54.54 496.41 48.60 492.02 45.03 C 487.38 41.26 481.01 40.91 475.30 41.39 Z" />
</g>
<g id="#00000080">
<path fill="#000000" opacity="0.50" d=" M 18.42 42.53 C 26.24 41.89 34.12 42.43 41.96 42.23 C 48.32 42.07 55.20 42.57 60.48 46.52 C 64.39 49.36 66.32 54.25 66.25 58.98 C 66.27 71.34 66.22 83.70 66.27 96.05 C 66.31 99.67 65.63 103.45 63.34 106.36 C 59.57 111.39 53.03 113.44 46.96 113.50 C 38.64 113.53 30.32 113.47 22.00 113.52 C 15.89 113.52 9.20 111.72 5.26 106.74 C 2.62 103.45 1.99 99.12 2.00 95.03 C 1.99 83.69 2.00 72.34 2.00 61.00 C 1.99 56.87 2.55 52.49 5.17 49.14 C 8.34 45.11 13.46 43.16 18.42 42.53 M 18.36 52.44 C 15.38 53.60 14.10 56.95 14.25 59.96 C 14.24 71.99 14.25 84.03 14.25 96.07 C 14.13 99.07 15.56 102.36 18.55 103.44 C 22.86 104.99 27.54 104.39 32.03 104.50 C 37.60 104.31 43.27 105.05 48.76 103.78 C 52.20 103.02 54.27 99.49 54.00 96.10 C 53.98 83.71 54.06 71.31 53.96 58.92 C 54.15 54.97 50.72 51.81 46.90 51.64 C 40.60 51.26 34.28 51.64 27.97 51.48 C 24.77 51.55 21.38 51.12 18.36 52.44 Z" />
<path fill="#000000" opacity="0.50" d=" M 83.22 43.22 C 84.86 42.48 86.96 42.46 88.47 43.53 C 90.10 45.25 89.96 47.77 90.02 49.97 C 89.97 65.31 90.03 80.65 89.98 95.99 C 90.03 98.13 90.07 100.60 91.74 102.18 C 93.42 103.65 95.78 103.78 97.89 103.93 C 107.88 104.23 117.89 103.71 127.87 104.16 C 129.93 104.97 128.92 107.58 127.92 108.89 C 124.57 112.25 119.51 113.08 114.94 113.03 C 105.28 112.97 95.61 113.00 85.95 113.02 C 83.57 113.03 80.78 112.78 79.28 110.66 C 77.84 108.77 78.05 106.24 77.97 104.00 C 78.07 86.65 77.92 69.31 78.04 51.97 C 77.96 48.37 79.97 44.82 83.22 43.22 Z" />
<path fill="#000000" opacity="0.50" d=" M 135.68 44.68 C 137.30 43.02 139.77 42.77 141.97 42.74 C 154.98 42.74 168.00 42.79 181.01 42.72 C 182.61 42.75 184.26 42.69 185.81 43.19 C 187.71 47.45 182.42 50.15 179.05 51.03 C 169.62 53.20 159.82 51.11 150.30 52.35 C 147.61 52.70 146.04 55.38 146.06 57.92 C 145.95 61.41 145.67 64.98 146.45 68.41 C 147.17 71.34 150.51 72.05 153.10 72.16 C 161.37 72.50 169.65 71.99 177.91 72.36 C 180.17 72.52 179.68 75.33 178.88 76.74 C 176.89 79.59 173.31 81.00 169.93 81.20 C 163.76 81.52 157.54 80.85 151.39 81.52 C 148.89 81.69 146.45 83.42 146.21 86.04 C 145.84 90.38 145.82 94.78 146.21 99.12 C 146.51 102.43 149.99 103.85 152.92 103.87 C 163.97 104.26 175.03 103.75 186.07 104.12 C 186.44 105.84 186.56 107.89 185.04 109.13 C 181.79 112.06 177.23 113.04 172.96 113.02 C 162.29 112.97 151.62 113.04 140.96 112.98 C 138.23 113.14 135.18 111.78 134.41 108.97 C 133.72 106.04 134.04 102.99 133.99 100.01 C 134.00 83.68 134.01 67.34 133.98 51.01 C 134.02 48.83 134.04 46.35 135.68 44.68 Z" />
<path fill="#000000" opacity="0.50" d=" M 194.42 43.54 C 196.19 42.48 198.81 42.23 200.47 43.64 C 202.18 45.27 201.92 47.83 202.02 49.98 C 201.98 65.34 202.00 80.70 202.00 96.06 C 201.80 99.14 203.36 102.43 206.39 103.52 C 210.44 104.85 214.79 104.44 218.99 104.51 C 224.10 104.30 229.47 105.17 234.36 103.31 C 237.66 102.01 238.55 98.20 238.47 95.01 C 238.54 79.34 238.51 63.67 238.46 48.01 C 238.36 46.00 239.08 43.78 241.04 42.89 C 246.29 41.60 250.74 47.10 250.48 52.01 C 250.46 67.65 250.63 83.30 250.39 98.93 C 249.94 107.34 241.73 112.87 233.89 113.34 C 226.28 113.74 218.63 113.36 211.01 113.53 C 204.58 113.68 197.47 112.10 193.18 106.95 C 190.14 103.39 189.70 98.54 189.73 94.06 C 189.79 80.38 189.71 66.70 189.76 53.02 C 189.64 49.34 191.22 45.53 194.42 43.54 Z" />
<path fill="#000000" opacity="0.50" d=" M 276.02 44.00 C 283.16 41.99 290.65 42.98 297.96 42.75 C 304.24 42.97 310.58 42.25 316.82 43.21 C 317.63 47.71 312.84 49.60 309.40 50.68 C 300.82 53.18 291.76 51.33 283.00 52.20 C 278.94 52.73 274.61 55.16 273.57 59.40 C 272.61 63.40 273.30 68.49 277.05 70.86 C 280.90 73.35 285.67 72.69 290.01 72.75 C 297.49 72.66 305.59 72.75 312.06 77.05 C 316.62 80.03 318.89 85.60 318.80 90.92 C 319.10 96.50 317.60 102.48 313.45 106.44 C 308.37 111.44 300.96 113.13 294.03 113.02 C 282.74 112.88 271.44 113.20 260.15 112.85 C 259.34 110.12 261.16 107.74 263.62 106.75 C 274.67 101.26 287.43 105.96 298.97 103.08 C 306.07 101.25 308.62 91.93 304.97 86.06 C 302.53 82.65 297.91 82.16 294.05 82.01 C 285.53 81.84 276.27 83.00 268.63 78.39 C 261.40 74.14 259.79 64.47 261.70 56.91 C 263.48 50.24 269.58 45.70 276.02 44.00 Z" />
</g>
</svg>
