<svg width="63" height="63" viewBox="0 0 63 63" fill="none" xmlns="http://www.w3.org/2000/svg">
<g clip-path="url(#clip0)">
<path d="M7.23633 43.8789L8.65801 38.7072L13.1945 39.9543L11.7728 45.126L7.23633 43.8789Z" fill="#01A680" fill-opacity="0.3"/>
<path d="M7.24589 43.8799C7.24589 43.8799 0.201828 47.2024 1.05627 50.3024C2.00828 53.7565 9.13515 54.738 9.13515 54.738L11.7825 45.131L7.24589 43.8799Z" fill="#01A680" fill-opacity="0.3"/>
<path d="M8.6677 38.707C8.6677 38.707 4.32402 32.2417 6.64567 30.0175C9.23249 27.5394 15.8552 30.3496 15.8552 30.3496L13.2043 39.958L8.6677 38.707Z" fill="#01A680" fill-opacity="0.3"/>
<path d="M9.13589 54.7377L11.7832 45.1307L9.72479 44.563L7.04102 54.3009C8.23974 54.6141 9.13589 54.7377 9.13589 54.7377Z" fill="#01A680" fill-opacity="0.3"/>
<path d="M13.2059 39.9578L15.8568 30.3494C15.8568 30.3494 15.0243 29.9964 13.8348 29.6509L11.1504 39.3909L13.2059 39.9578Z" fill="#01A680" fill-opacity="0.3"/>
<path d="M11.7811 45.1308L13.2034 39.958L11.148 39.3911L9.72266 44.5631L11.7811 45.1308Z" fill="#01A680" fill-opacity="0.3"/>
<path d="M39.8082 2.48591C39.1847 0.495752 35.2298 0.173 34.783 3.44014C34.2748 7.15628 39.8082 9.84756 39.8082 9.84756C39.8082 9.84756 45.3416 7.15628 44.8334 3.44014C44.3867 0.173 40.4317 0.495752 39.8082 2.48591Z" fill="#01A680" fill-opacity="0.3"/>
<path d="M55.0383 7.89728C54.4346 5.97024 50.6052 5.6577 50.1726 8.82124C49.6805 12.4194 55.0383 15.0253 55.0383 15.0253C55.0383 15.0253 60.3961 12.4194 59.9041 8.82124C59.4714 5.6577 55.6419 5.97024 55.0383 7.89728Z" fill="#01A680" fill-opacity="0.3"/>
<path d="M26.7121 13.1766C26.1085 11.2495 22.279 10.937 21.8464 14.1005C21.3543 17.6987 26.7121 20.3047 26.7121 20.3047C26.7121 20.3047 32.07 17.6988 31.5779 14.1005C31.1453 10.9371 27.3158 11.2495 26.7121 13.1766Z" fill="#01A680" fill-opacity="0.3"/>
<path d="M44.6933 2.8208C43.9529 5.21603 41.0393 6.96822 40.1011 7.47972C39.9185 7.57927 39.6981 7.57927 39.5155 7.47972C38.5772 6.96822 35.6636 5.21603 34.9232 2.8208C34.862 3.0114 34.8136 3.21664 34.783 3.44034C34.2748 7.15648 39.8082 9.84776 39.8082 9.84776C39.8082 9.84776 45.3416 7.15648 44.8334 3.44034C44.8029 3.21677 44.7544 3.0114 44.6933 2.8208Z" fill="#01A680" fill-opacity="0.3"/>
<path d="M59.7569 8.18848C59.0248 10.4778 56.2514 12.1537 55.3346 12.655C55.1497 12.7561 54.9271 12.7561 54.7421 12.655C53.8253 12.1537 51.052 10.4778 50.3198 8.18848C50.2551 8.38228 50.2041 8.59145 50.1726 8.82106C49.6805 12.4193 55.0383 15.0251 55.0383 15.0251C55.0383 15.0251 60.3961 12.4192 59.9041 8.82106C59.8727 8.59145 59.8216 8.38228 59.7569 8.18848Z" fill="#01A680" fill-opacity="0.3"/>
<path d="M31.4307 13.4678C30.6986 15.7571 27.9253 17.433 27.0084 17.9342C26.8235 18.0354 26.6009 18.0354 26.416 17.9342C25.4992 17.433 22.7257 15.7571 21.9937 13.4678C21.9289 13.6614 21.8779 13.8708 21.8464 14.1004C21.3543 17.6985 26.7121 20.3045 26.7121 20.3045C26.7121 20.3045 32.07 17.6986 31.5779 14.1004C31.5465 13.8708 31.4955 13.6614 31.4307 13.4678Z" fill="#01A680" fill-opacity="0.3"/>
<path d="M39.3788 33.0875H47.7109C50.5968 30.8745 53.8279 27.4235 53.2679 23.3288C52.4035 17.0072 44.7511 17.6317 43.5448 21.4825C42.3385 17.6317 34.6861 17.0072 33.8216 23.3288C33.2617 27.4235 36.4928 30.8745 39.3788 33.0875Z" fill="#01A680" fill-opacity="0.3"/>
<path d="M36.8906 30.8726C37.6824 31.7045 38.5447 32.4479 39.3786 33.0874H47.7108C48.5446 32.4479 49.407 31.7045 50.1988 30.8726H36.8906Z" fill="#01A680" fill-opacity="0.3"/>
<path d="M62.0754 32.164H50.2498C53.2702 29.2789 54.6398 26.2085 54.2264 23.1861C53.7089 19.4013 51.0432 17.8443 48.7213 17.6493C46.6509 17.4748 44.7173 18.2537 43.5678 19.6035C43.1106 19.069 42.5217 18.6175 41.8275 18.278C40.2632 17.513 38.3661 17.4162 36.7526 18.0188C36.2743 18.1974 36.0313 18.7301 36.2101 19.2085C36.3888 19.6869 36.9217 19.9298 37.3999 19.7511C38.5468 19.3226 39.8982 19.3931 41.015 19.9393C41.8585 20.3519 42.452 20.9906 42.6862 21.7381C42.807 22.1237 43.1644 22.3863 43.5686 22.3863C43.9728 22.3863 44.3301 22.1239 44.4509 21.7381C44.9019 20.2985 46.6729 19.3333 48.5664 19.492C49.5666 19.576 51.9418 20.1286 52.3942 23.4368C52.8821 27.0041 50.021 30.1209 47.4256 32.1641H44.768H39.7115C37.1161 30.121 34.255 27.0043 34.7429 23.4368C34.8257 22.8312 34.982 22.2804 35.2077 21.7996C35.4245 21.3373 35.2256 20.7868 34.7633 20.5699C34.3008 20.3532 33.7504 20.5518 33.5335 21.0143C33.2284 21.6645 33.0189 22.3954 32.9109 23.1864C32.4975 26.2088 33.8672 29.2791 36.8875 32.1642H23.2748L24.4808 27.7881C24.7969 26.6411 24.121 25.4507 22.9743 25.1344L18.855 23.9983C17.743 23.6672 16.4868 24.3808 16.2017 25.5053L15.2048 29.1229C14.5022 28.8784 13.4869 28.5639 12.3652 28.3412C9.4206 27.7568 7.26556 28.0946 5.96003 29.345C4.6908 30.5609 4.66656 32.6516 5.8878 35.5592C6.49319 37.0003 7.24882 38.2722 7.62461 38.8714L6.41887 43.2568C5.78863 43.5788 4.48851 44.2829 3.2306 45.209C0.691409 47.0789 -0.359165 48.8864 0.107921 50.5814C0.588419 52.3242 2.26579 53.7188 5.09378 54.7264C6.1713 55.1103 7.2044 55.3605 7.93309 55.5107L6.93604 59.1286C6.61993 60.2757 7.2957 61.466 8.4425 61.7822L12.5617 62.9182C13.6697 63.2503 14.9315 62.5357 15.2151 61.4114L16.5999 56.3863C16.7356 55.894 16.4465 55.3849 15.9541 55.2492C15.4617 55.1136 14.9527 55.4026 14.8171 55.8949L13.4323 60.92C13.3454 61.1169 13.2668 61.1615 13.0533 61.1355L8.93407 59.9995C8.77018 59.9544 8.67358 59.784 8.71887 59.6198L12.3916 46.2924L17.105 47.5922L15.8226 52.2457C15.6869 52.738 15.976 53.2471 16.4684 53.3828C16.9608 53.5183 17.4698 53.2294 17.6054 52.7371L21.1589 39.8422V60.2219C21.1589 61.7516 22.4034 62.996 23.9331 62.996H60.2258C61.7555 62.996 63 61.7515 63 60.2219V33.0887C63 32.578 62.5861 32.164 62.0754 32.164ZM7.23947 30.6803C8.28623 29.6773 10.3939 29.8379 11.9774 30.1493C13.0672 30.3636 14.0653 30.6813 14.7122 30.9105L12.5283 38.8356L9.20785 37.92C7.679 35.5414 6.08259 31.7884 7.23947 30.6803ZM9.27196 39.8556L12.0346 40.6174L11.0998 44.017L8.33717 43.2552L9.27196 39.8556ZM1.89075 50.09C1.65905 49.2493 2.54019 48.0182 4.30813 46.7122C5.4831 45.8443 6.73584 45.1715 7.29534 44.8862L10.609 45.8L8.42466 53.7266C6.32093 53.306 2.45467 52.1361 1.89075 50.09ZM13.1222 43.6412L13.8206 41.1068L18.5341 42.4067L17.5963 45.8095L12.8829 44.5097L13.1222 43.6412ZM14.3118 39.3241L17.9845 25.9964C18.0714 25.7995 18.1502 25.7548 18.3634 25.7808L22.4826 26.9168C22.6465 26.9619 22.7431 27.1324 22.6979 27.2965L19.0251 40.6238L14.3118 39.3241ZM23.0082 60.222V34.0133H38.4663V61.1469H23.9331C23.4231 61.1469 23.0082 60.732 23.0082 60.222ZM61.1507 60.222C61.1507 60.732 60.7357 61.1469 60.2258 61.1469H45.6927V46.3748C45.6927 45.8642 45.2788 45.4502 44.7682 45.4502C44.2575 45.4502 43.8436 45.8642 43.8436 46.3748V61.1468H40.3157V34.0133H43.8436V42.6765C43.8436 43.1871 44.2575 43.6011 44.7682 43.6011C45.2788 43.6011 45.6927 43.1871 45.6927 42.6765V34.0133H61.1509V60.222H61.1507Z" fill="black"/>
<path d="M39.4224 10.6365C39.6777 10.7607 39.9759 10.7607 40.2312 10.6365C40.4822 10.5144 46.3707 7.59724 45.7776 3.26021C45.4744 1.04254 43.8998 0.129158 42.5273 0.0138631C41.4946 -0.0723927 40.5186 0.248883 39.8268 0.840615C39.135 0.24876 38.158 -0.0723927 37.1262 0.0138631C35.7537 0.129281 34.1792 1.04266 33.8759 3.26021C33.2828 7.59712 39.1714 10.5144 39.4224 10.6365ZM35.708 3.51073C35.8912 2.17112 36.7721 1.89931 37.281 1.85661C37.3383 1.85169 37.3956 1.84935 37.4523 1.84935C38.1511 1.84935 38.7878 2.20607 38.9444 2.70576C39.0652 3.09139 39.4225 3.35397 39.8267 3.35397C40.2309 3.35397 40.5883 3.09151 40.7091 2.70576C40.8783 2.16546 41.6091 1.79226 42.3723 1.85649C42.8812 1.89931 43.7622 2.171 43.9455 3.51061C44.2574 5.7919 41.3764 7.89994 39.8267 8.76127C38.2763 7.89945 35.396 5.79178 35.708 3.51073Z" fill="black"/>
<path d="M54.6795 15.824C54.9348 15.9482 55.2329 15.9482 55.4883 15.824C55.732 15.7054 61.4521 12.8716 60.875 8.65135C60.579 6.48696 59.0414 5.59548 57.701 5.48289C56.7035 5.39898 55.7583 5.70659 55.0839 6.27421C54.4095 5.70659 53.4644 5.39922 52.4666 5.48289C51.1264 5.59548 49.5888 6.48708 49.2928 8.65147C48.7156 12.8716 54.4357 15.7054 54.6795 15.824ZM51.1249 8.902C51.2995 7.62526 52.1376 7.36625 52.6215 7.32564C52.6764 7.32109 52.731 7.31875 52.7854 7.31875C53.4494 7.31875 54.0538 7.65541 54.2016 8.12742C54.3224 8.51305 54.6797 8.77563 55.0839 8.77563C55.4881 8.77563 55.8455 8.51305 55.9663 8.12742C56.1263 7.61677 56.8216 7.2656 57.5462 7.32564C58.0302 7.36625 58.8682 7.62514 59.043 8.902C59.3417 11.0878 56.5819 13.1129 55.0839 13.9484C53.5853 13.1124 50.8261 11.0876 51.1249 8.902Z" fill="black"/>
<path d="M26.3006 21.1136C26.5558 21.2377 26.8542 21.2377 27.1094 21.1136C27.3531 20.9949 33.0733 18.1612 32.4961 13.941C32.2002 11.7766 30.6625 10.8852 29.3222 10.7724C28.3257 10.689 27.3796 10.9961 26.705 11.5638C26.0306 10.9961 25.0857 10.6885 24.0877 10.7724C22.7475 10.885 21.2099 11.7766 20.914 13.941C20.3366 18.1612 26.0567 20.9949 26.3006 21.1136ZM22.7459 14.1915C22.9205 12.9147 23.7584 12.6558 24.2424 12.6152C24.2973 12.6106 24.3519 12.6083 24.4063 12.6083C25.0704 12.6083 25.6746 12.945 25.8224 13.417C25.9433 13.8026 26.3006 14.0652 26.7048 14.0652C27.109 14.0652 27.4663 13.8027 27.5872 13.417C27.7471 12.9064 28.4416 12.5549 29.1672 12.6152C29.6511 12.6559 30.4892 12.9147 30.6638 14.1915C30.9628 16.3774 28.2028 18.4025 26.7049 19.2379C25.2063 18.4018 22.447 16.3771 22.7459 14.1915Z" fill="black"/>
</g>
<defs>
<clipPath id="clip0">
<rect width="63" height="63" fill="white"/>
</clipPath>
</defs>
</svg>
