<svg width="14" height="9" viewBox="0 0 14 9" fill="none" xmlns="http://www.w3.org/2000/svg">
<path d="M2.14545 1.02472L7.00653 5.7388L11.8676 1.02472C11.9836 0.912234 12.1213 0.823007 12.2729 0.762131C12.4244 0.701255 12.5868 0.669922 12.7509 0.669922C12.9149 0.669922 13.0773 0.701255 13.2289 0.762131C13.3804 0.823007 13.5181 0.912234 13.6341 1.02472C13.7501 1.1372 13.8421 1.27074 13.9049 1.41771C13.9677 1.56468 14 1.7222 14 1.88127C14 2.04035 13.9677 2.19787 13.9049 2.34484C13.8421 2.4918 13.7501 2.62534 13.6341 2.73783L7.88353 8.31454C7.39491 8.78838 6.60561 8.78838 6.117 8.31454L0.36639 2.73783C0.250246 2.62542 0.158102 2.49191 0.0952319 2.34493C0.0323609 2.19795 -1.19811e-07 2.04039 -1.059e-07 1.88127C-9.19887e-08 1.72215 0.032361 1.56459 0.0952319 1.41761C0.158102 1.27063 0.250246 1.13712 0.36639 1.02472C0.855004 0.563029 1.65683 0.550879 2.14545 1.02472Z" fill="#070D0B" fill-opacity="0.7"/>
</svg>
