<svg width="34" height="40" viewBox="0 0 34 40" fill="none" xmlns="http://www.w3.org/2000/svg">
<path d="M2 36L4.5 9H29.5L32 34L30 38.5L6 39L2 36Z" fill="white"/>
<path d="M33.0004 34.5767L30.71 8.78528C30.6609 8.21268 30.1783 7.77914 29.6139 7.77914H24.9022C24.8368 3.47648 21.3194 0 17.0004 0C12.6813 0 9.16397 3.47648 9.09853 7.77914H4.38687C3.81427 7.77914 3.33984 8.21268 3.29076 8.78528L1.00037 34.5767C1.00037 34.6094 0.992188 34.6421 0.992188 34.6748C0.992188 37.6115 3.68339 40 6.99628 40H27.0045C30.3173 40 33.0086 37.6115 33.0086 34.6748C33.0086 34.6421 33.0086 34.6094 33.0004 34.5767ZM17.0004 2.20859C20.1006 2.20859 22.6282 4.6953 22.6936 7.77914H11.3071C11.3726 4.6953 13.9002 2.20859 17.0004 2.20859ZM27.0045 37.7914H6.99628C4.91857 37.7914 3.2335 36.4172 3.20078 34.7239L5.39301 9.99591H9.09035V13.3497C9.09035 13.9632 9.58115 14.454 10.1946 14.454C10.8081 14.454 11.2989 13.9632 11.2989 13.3497V9.99591H22.6936V13.3497C22.6936 13.9632 23.1844 14.454 23.7979 14.454C24.4114 14.454 24.9022 13.9632 24.9022 13.3497V9.99591H28.5996L30.8 34.7239C30.7672 36.4172 29.074 37.7914 27.0045 37.7914Z" fill="#404040"/>
</svg>
