<svg width="16" height="20" viewBox="0 0 16 20" fill="none" xmlns="http://www.w3.org/2000/svg">
<path d="M12.4141 19.9727H3.37207C2.84281 19.9714 2.3356 19.7605 1.96135 19.3863C1.58711 19.0121 1.37629 18.5048 1.375 17.9756V3.8916C1.375 3.69735 1.45217 3.51106 1.58952 3.3737C1.72688 3.23635 1.91317 3.15918 2.10742 3.15918H13.6797C13.8739 3.15918 14.0602 3.23635 14.1976 3.3737C14.3349 3.51106 14.4121 3.69735 14.4121 3.8916V17.9756C14.4108 18.505 14.1999 19.0124 13.8254 19.3866C13.451 19.7609 12.9435 19.9716 12.4141 19.9727ZM2.83984 4.62402V17.9756C2.83997 18.1167 2.89609 18.252 2.99587 18.3518C3.09566 18.4516 3.23095 18.5077 3.37207 18.5078H12.4141C12.5553 18.5078 12.6907 18.4518 12.7906 18.352C12.8905 18.2522 12.9466 18.1168 12.9468 17.9756V4.62402H2.83984Z" fill="#070D0B" fill-opacity="0.9"/>
<path d="M10.9688 4.62402H4.81641C4.62216 4.62402 4.43586 4.54686 4.29851 4.4095C4.16115 4.27215 4.08398 4.08585 4.08398 3.8916V2.56055C4.08476 1.98145 4.31518 1.42629 4.72472 1.01685C5.13425 0.607411 5.68945 0.377111 6.26855 0.376465H9.5166C10.0957 0.377111 10.6509 0.607411 11.0604 1.01685C11.47 1.42629 11.7004 1.98145 11.7012 2.56055V3.8916C11.7012 4.08585 11.624 4.27215 11.4867 4.4095C11.3493 4.54686 11.163 4.62402 10.9688 4.62402ZM5.54883 3.15918H10.2363V2.56055C10.2361 2.36979 10.1601 2.18692 10.0252 2.05208C9.89028 1.91724 9.70736 1.84144 9.5166 1.84131H6.26855C6.07788 1.84157 5.89509 1.91743 5.76026 2.05225C5.62543 2.18708 5.54958 2.36987 5.54932 2.56055L5.54883 3.15918Z" fill="#070D0B" fill-opacity="0.9"/>
<path d="M7.89258 17.1689C7.69833 17.1689 7.51203 17.0918 7.37468 16.9544C7.23732 16.8171 7.16016 16.6308 7.16016 16.4365V6.6958C7.16016 6.50155 7.23732 6.31526 7.37468 6.1779C7.51203 6.04054 7.69833 5.96338 7.89258 5.96338C8.08683 5.96338 8.27312 6.04054 8.41048 6.1779C8.54783 6.31526 8.625 6.50155 8.625 6.6958V16.4365C8.625 16.6308 8.54783 16.8171 8.41048 16.9544C8.27312 17.0918 8.08683 17.1689 7.89258 17.1689Z" fill="#070D0B" fill-opacity="0.9"/>
<path d="M5.24805 17.1689C5.0538 17.1689 4.8675 17.0918 4.73015 16.9544C4.59279 16.8171 4.51563 16.6308 4.51562 16.4365V6.6958C4.51562 6.50155 4.59279 6.31526 4.73015 6.1779C4.8675 6.04054 5.0538 5.96338 5.24805 5.96338C5.4423 5.96338 5.62859 6.04054 5.76595 6.1779C5.9033 6.31526 5.98047 6.50155 5.98047 6.6958V16.4365C5.98047 16.6308 5.9033 16.8171 5.76595 16.9544C5.62859 17.0918 5.4423 17.1689 5.24805 17.1689Z" fill="#070D0B" fill-opacity="0.9"/>
<path d="M10.5391 17.1689C10.3448 17.1689 10.1585 17.0918 10.0212 16.9544C9.88381 16.8171 9.80664 16.6308 9.80664 16.4365V6.6958C9.80664 6.50155 9.88381 6.31526 10.0212 6.1779C10.1585 6.04054 10.3448 5.96338 10.5391 5.96338C10.7333 5.96338 10.9196 6.04054 11.057 6.1779C11.1943 6.31526 11.2715 6.50155 11.2715 6.6958V16.4365C11.2715 16.6308 11.1943 16.8171 11.057 16.9544C10.9196 17.0918 10.7333 17.1689 10.5391 17.1689Z" fill="#070D0B" fill-opacity="0.9"/>
<path d="M14.8149 4.62402H0.972656C0.778406 4.62402 0.592112 4.54686 0.454756 4.4095C0.3174 4.27215 0.240234 4.08585 0.240234 3.8916C0.240234 3.69735 0.3174 3.51106 0.454756 3.3737C0.592112 3.23635 0.778406 3.15918 0.972656 3.15918H14.8149C15.0092 3.15918 15.1955 3.23635 15.3328 3.3737C15.4702 3.51106 15.5474 3.69735 15.5474 3.8916C15.5474 4.08585 15.4702 4.27215 15.3328 4.4095C15.1955 4.54686 15.0092 4.62402 14.8149 4.62402Z" fill="#070D0B" fill-opacity="0.9"/>
</svg>
