<svg width="36" height="36" viewBox="0 0 36 36" fill="none" xmlns="http://www.w3.org/2000/svg">
<rect width="36" height="36" rx="10" fill="#F54748"/>
<g clip-path="url(#clip0)">
<path d="M4.42188 19.3691V18.1973H7.43359V19.3691H4.42188ZM14.6412 22H8.83453V20.957L11.0435 18.7363C11.6959 18.0684 12.1275 17.5957 12.3384 17.3184C12.5533 17.0371 12.7095 16.7734 12.8072 16.5273C12.9048 16.2812 12.9537 16.0176 12.9537 15.7363C12.9537 15.3496 12.8365 15.0449 12.6021 14.8223C12.3716 14.5996 12.0513 14.4883 11.6412 14.4883C11.313 14.4883 10.9947 14.5488 10.6861 14.6699C10.3814 14.791 10.0279 15.0098 9.62555 15.3262L8.88141 14.418C9.35797 14.0156 9.82086 13.7305 10.2701 13.5625C10.7193 13.3945 11.1978 13.3105 11.7056 13.3105C12.5025 13.3105 13.1412 13.5195 13.6216 13.9375C14.1021 14.3516 14.3423 14.9102 14.3423 15.6133C14.3423 16 14.272 16.3672 14.1314 16.7148C13.9947 17.0625 13.7818 17.4219 13.4927 17.793C13.2076 18.1602 12.731 18.6582 12.063 19.2871L10.5748 20.7285V20.7871H14.6412V22ZM19.0363 16.6504C19.8995 16.6504 20.5831 16.8789 21.087 17.3359C21.5909 17.793 21.8429 18.416 21.8429 19.2051C21.8429 20.1191 21.5558 20.834 20.9816 21.3496C20.4113 21.8613 19.5988 22.1172 18.5441 22.1172C17.587 22.1172 16.8351 21.9629 16.2882 21.6543V20.4062C16.6046 20.5859 16.9679 20.7246 17.378 20.8223C17.7882 20.9199 18.1691 20.9688 18.5206 20.9688C19.1417 20.9688 19.6144 20.8301 19.9386 20.5527C20.2628 20.2754 20.4249 19.8691 20.4249 19.334C20.4249 18.3105 19.7726 17.7988 18.4679 17.7988C18.2843 17.7988 18.0577 17.8184 17.7882 17.8574C17.5187 17.8926 17.2823 17.9336 17.0792 17.9805L16.464 17.6172L16.7921 13.4336H21.2452V14.6582H18.005L17.8116 16.7793C17.9484 16.7559 18.1144 16.7285 18.3097 16.6973C18.5089 16.666 18.7511 16.6504 19.0363 16.6504Z" fill="white" fill-opacity="0.9"/>
<path d="M24.5329 16C24.5329 16.582 24.5895 17.0156 24.7028 17.3008C24.8161 17.5859 25.0016 17.7285 25.2595 17.7285C25.7751 17.7285 26.0329 17.1523 26.0329 16C26.0329 14.8477 25.7751 14.2715 25.2595 14.2715C25.0016 14.2715 24.8161 14.4141 24.7028 14.6992C24.5895 14.9844 24.5329 15.418 24.5329 16ZM27.1696 15.9883C27.1696 16.8867 27.0075 17.5625 26.6833 18.0156C26.363 18.4648 25.8884 18.6895 25.2595 18.6895C24.6657 18.6895 24.2048 18.457 23.8766 17.9922C23.5524 17.5234 23.3903 16.8555 23.3903 15.9883C23.3903 14.2031 24.0134 13.3105 25.2595 13.3105C25.8727 13.3105 26.3434 13.543 26.6716 14.0078C27.0036 14.4688 27.1696 15.1289 27.1696 15.9883ZM30.111 19.4219C30.111 20.0039 30.1677 20.4395 30.2809 20.7285C30.3981 21.0176 30.5856 21.1621 30.8434 21.1621C31.3552 21.1621 31.611 20.582 31.611 19.4219C31.611 18.2773 31.3552 17.7051 30.8434 17.7051C30.5856 17.7051 30.3981 17.8457 30.2809 18.127C30.1677 18.4082 30.111 18.8398 30.111 19.4219ZM32.7477 19.4219C32.7477 20.3203 32.5856 20.9941 32.2614 21.4434C31.9372 21.8926 31.4645 22.1172 30.8434 22.1172C30.2497 22.1172 29.7887 21.8867 29.4606 21.4258C29.1325 20.9609 28.9684 20.293 28.9684 19.4219C28.9684 17.6367 29.5934 16.7441 30.8434 16.7441C31.445 16.7441 31.9118 16.9746 32.2438 17.4355C32.5798 17.8965 32.7477 18.5586 32.7477 19.4219ZM31.0075 13.4336L26.2555 22H25.1188L29.8708 13.4336H31.0075Z" fill="white"/>
</g>
<defs>
<clipPath id="clip0">
<rect width="30" height="30" fill="white" transform="translate(3 2.66992)"/>
</clipPath>
</defs>
</svg>
