<svg width="36" height="36" viewBox="0 0 36 36" fill="none" xmlns="http://www.w3.org/2000/svg">
<rect width="36" height="36" rx="10" fill="#F54748"/>
<path d="M11.3896 23H4.61523V21.7832L7.19238 19.1924C7.95345 18.4131 8.45703 17.8617 8.70312 17.5381C8.95378 17.21 9.13607 16.9023 9.25 16.6152C9.36393 16.3281 9.4209 16.0205 9.4209 15.6924C9.4209 15.2412 9.28418 14.8857 9.01074 14.626C8.74186 14.3662 8.36816 14.2363 7.88965 14.2363C7.50684 14.2363 7.13542 14.307 6.77539 14.4482C6.41992 14.5895 6.00749 14.8447 5.53809 15.2139L4.66992 14.1543C5.22591 13.6849 5.76595 13.3522 6.29004 13.1562C6.81413 12.9603 7.3724 12.8623 7.96484 12.8623C8.89453 12.8623 9.63965 13.1061 10.2002 13.5938C10.7607 14.0768 11.041 14.7285 11.041 15.5488C11.041 16 10.959 16.4284 10.7949 16.834C10.6354 17.2396 10.387 17.6589 10.0498 18.0918C9.71712 18.5202 9.16113 19.1012 8.38184 19.835L6.64551 21.5166V21.585H11.3896V23ZM16.4439 16.7588C17.4511 16.7588 18.2486 17.0254 18.8365 17.5586C19.4244 18.0918 19.7183 18.8187 19.7183 19.7393C19.7183 20.8057 19.3834 21.6396 18.7134 22.2412C18.0481 22.8382 17.1002 23.1367 15.8697 23.1367C14.7532 23.1367 13.8759 22.9567 13.2379 22.5967V21.1406C13.607 21.3503 14.0308 21.512 14.5093 21.626C14.9879 21.7399 15.4322 21.7969 15.8423 21.7969C16.567 21.7969 17.1184 21.6351 17.4966 21.3115C17.8749 20.988 18.064 20.514 18.064 19.8896C18.064 18.6956 17.303 18.0986 15.7808 18.0986C15.5666 18.0986 15.3023 18.1214 14.9879 18.167C14.6734 18.208 14.3977 18.2559 14.1607 18.3105L13.4429 17.8867L13.8257 13.0059H19.0211V14.4346H15.2408L15.0152 16.9092C15.1747 16.8818 15.3684 16.8499 15.5962 16.8135C15.8287 16.777 16.1112 16.7588 16.4439 16.7588Z" fill="white" fill-opacity="0.9"/>
<path d="M22.7833 16C22.7833 16.679 22.8494 17.1849 22.9816 17.5176C23.1137 17.8503 23.3302 18.0166 23.631 18.0166C24.2325 18.0166 24.5333 17.3444 24.5333 16C24.5333 14.6556 24.2325 13.9834 23.631 13.9834C23.3302 13.9834 23.1137 14.1497 22.9816 14.4824C22.8494 14.8151 22.7833 15.321 22.7833 16ZM25.8595 15.9863C25.8595 17.0345 25.6704 17.8229 25.2921 18.3516C24.9184 18.8757 24.3647 19.1377 23.631 19.1377C22.9383 19.1377 22.4005 18.8665 22.0177 18.3242C21.6394 17.7773 21.4503 16.998 21.4503 15.9863C21.4503 13.9036 22.1772 12.8623 23.631 12.8623C24.3465 12.8623 24.8956 13.1335 25.2784 13.6758C25.6658 14.2135 25.8595 14.9837 25.8595 15.9863ZM29.2911 19.9922C29.2911 20.6712 29.3572 21.1794 29.4894 21.5166C29.6261 21.8538 29.8448 22.0225 30.1456 22.0225C30.7426 22.0225 31.0411 21.3457 31.0411 19.9922C31.0411 18.6569 30.7426 17.9893 30.1456 17.9893C29.8448 17.9893 29.6261 18.1533 29.4894 18.4814C29.3572 18.8096 29.2911 19.3132 29.2911 19.9922ZM32.3673 19.9922C32.3673 21.0404 32.1782 21.8265 31.7999 22.3506C31.4217 22.8747 30.8702 23.1367 30.1456 23.1367C29.4529 23.1367 28.9152 22.8678 28.5323 22.3301C28.1495 21.7878 27.9581 21.0085 27.9581 19.9922C27.9581 17.9095 28.6873 16.8682 30.1456 16.8682C30.8474 16.8682 31.392 17.137 31.7794 17.6748C32.1713 18.2126 32.3673 18.985 32.3673 19.9922ZM30.337 13.0059L24.7931 23H23.4669L29.0109 13.0059H30.337Z" fill="white"/>
</svg>
