<svg width="36" height="36" viewBox="0 0 36 36" fill="none" xmlns="http://www.w3.org/2000/svg">
<rect width="36" height="36" rx="10" fill="#F54748"/>
<path d="M8.00586 16.7588C9.01302 16.7588 9.81055 17.0254 10.3984 17.5586C10.9863 18.0918 11.2803 18.8187 11.2803 19.7393C11.2803 20.8057 10.9453 21.6396 10.2754 22.2412C9.61003 22.8382 8.66211 23.1367 7.43164 23.1367C6.3151 23.1367 5.43783 22.9567 4.7998 22.5967V21.1406C5.16895 21.3503 5.59277 21.512 6.07129 21.626C6.5498 21.7399 6.99414 21.7969 7.4043 21.7969C8.12891 21.7969 8.68034 21.6351 9.05859 21.3115C9.43685 20.988 9.62598 20.514 9.62598 19.8896C9.62598 18.6956 8.86491 18.0986 7.34277 18.0986C7.12858 18.0986 6.86426 18.1214 6.5498 18.167C6.23535 18.208 5.95964 18.2559 5.72266 18.3105L5.00488 17.8867L5.3877 13.0059H10.583V14.4346H6.80273L6.57715 16.9092C6.73665 16.8818 6.93034 16.8499 7.1582 16.8135C7.39062 16.777 7.67318 16.7588 8.00586 16.7588ZM19.8277 18.0029C19.8277 19.7393 19.5474 21.029 18.9869 21.8721C18.4309 22.7152 17.5787 23.1367 16.4302 23.1367C15.3183 23.1367 14.4752 22.7015 13.9009 21.8311C13.3267 20.9606 13.0396 19.6846 13.0396 18.0029C13.0396 16.2393 13.3176 14.9404 13.8736 14.1064C14.4341 13.2679 15.2864 12.8486 16.4302 12.8486C17.5468 12.8486 18.3921 13.2861 18.9664 14.1611C19.5406 15.0361 19.8277 16.3167 19.8277 18.0029ZM14.6666 18.0029C14.6666 19.3656 14.8056 20.3385 15.0836 20.9219C15.3661 21.5052 15.815 21.7969 16.4302 21.7969C17.0455 21.7969 17.4944 21.5007 17.7769 20.9082C18.064 20.3158 18.2076 19.3473 18.2076 18.0029C18.2076 16.6631 18.064 15.6947 17.7769 15.0977C17.4944 14.4961 17.0455 14.1953 16.4302 14.1953C15.815 14.1953 15.3661 14.4893 15.0836 15.0771C14.8056 15.665 14.6666 16.6403 14.6666 18.0029Z" fill="white" fill-opacity="0.9"/>
<path d="M22.7833 16C22.7833 16.679 22.8494 17.1849 22.9816 17.5176C23.1137 17.8503 23.3302 18.0166 23.631 18.0166C24.2325 18.0166 24.5333 17.3444 24.5333 16C24.5333 14.6556 24.2325 13.9834 23.631 13.9834C23.3302 13.9834 23.1137 14.1497 22.9816 14.4824C22.8494 14.8151 22.7833 15.321 22.7833 16ZM25.8595 15.9863C25.8595 17.0345 25.6704 17.8229 25.2921 18.3516C24.9184 18.8757 24.3647 19.1377 23.631 19.1377C22.9383 19.1377 22.4005 18.8665 22.0177 18.3242C21.6394 17.7773 21.4503 16.998 21.4503 15.9863C21.4503 13.9036 22.1772 12.8623 23.631 12.8623C24.3465 12.8623 24.8956 13.1335 25.2784 13.6758C25.6658 14.2135 25.8595 14.9837 25.8595 15.9863ZM29.2911 19.9922C29.2911 20.6712 29.3572 21.1794 29.4894 21.5166C29.6261 21.8538 29.8448 22.0225 30.1456 22.0225C30.7426 22.0225 31.0411 21.3457 31.0411 19.9922C31.0411 18.6569 30.7426 17.9893 30.1456 17.9893C29.8448 17.9893 29.6261 18.1533 29.4894 18.4814C29.3572 18.8096 29.2911 19.3132 29.2911 19.9922ZM32.3673 19.9922C32.3673 21.0404 32.1782 21.8265 31.7999 22.3506C31.4217 22.8747 30.8702 23.1367 30.1456 23.1367C29.4529 23.1367 28.9152 22.8678 28.5323 22.3301C28.1495 21.7878 27.9581 21.0085 27.9581 19.9922C27.9581 17.9095 28.6873 16.8682 30.1456 16.8682C30.8474 16.8682 31.392 17.137 31.7794 17.6748C32.1713 18.2126 32.3673 18.985 32.3673 19.9922ZM30.337 13.0059L24.7931 23H23.4669L29.0109 13.0059H30.337Z" fill="white"/>
</svg>
