<svg width="36" height="36" viewBox="0 0 36 36" fill="none" xmlns="http://www.w3.org/2000/svg">
<rect width="36" height="36" rx="10" fill="#F54748"/>
<g clip-path="url(#clip0)">
<path d="M4.42188 19.3691V18.1973H7.43359V19.3691H4.42188ZM11.7408 16.6504C12.6041 16.6504 13.2877 16.8789 13.7916 17.3359C14.2955 17.793 14.5474 18.416 14.5474 19.2051C14.5474 20.1191 14.2603 20.834 13.6861 21.3496C13.1158 21.8613 12.3033 22.1172 11.2486 22.1172C10.2916 22.1172 9.53961 21.9629 8.99273 21.6543V20.4062C9.30914 20.5859 9.67242 20.7246 10.0826 20.8223C10.4927 20.9199 10.8736 20.9688 11.2252 20.9688C11.8463 20.9688 12.3189 20.8301 12.6431 20.5527C12.9673 20.2754 13.1295 19.8691 13.1295 19.334C13.1295 18.3105 12.4771 17.7988 11.1724 17.7988C10.9888 17.7988 10.7623 17.8184 10.4927 17.8574C10.2232 17.8926 9.98688 17.9336 9.78375 17.9805L9.16852 17.6172L9.49664 13.4336H13.9498V14.6582H10.7095L10.5162 16.7793C10.6529 16.7559 10.8189 16.7285 11.0142 16.6973C11.2134 16.666 11.4556 16.6504 11.7408 16.6504ZM21.9366 17.7168C21.9366 19.2051 21.6964 20.3105 21.2159 21.0332C20.7394 21.7559 20.0089 22.1172 19.0245 22.1172C18.0714 22.1172 17.3488 21.7441 16.8566 20.998C16.3644 20.252 16.1183 19.1582 16.1183 17.7168C16.1183 16.2051 16.3566 15.0918 16.8331 14.377C17.3136 13.6582 18.0441 13.2988 19.0245 13.2988C19.9816 13.2988 20.7062 13.6738 21.1984 14.4238C21.6905 15.1738 21.9366 16.2715 21.9366 17.7168ZM17.5128 17.7168C17.5128 18.8848 17.632 19.7188 17.8702 20.2188C18.1124 20.7188 18.4972 20.9688 19.0245 20.9688C19.5519 20.9688 19.9366 20.7148 20.1788 20.207C20.4249 19.6992 20.548 18.8691 20.548 17.7168C20.548 16.5684 20.4249 15.7383 20.1788 15.2266C19.9366 14.7109 19.5519 14.4531 19.0245 14.4531C18.4972 14.4531 18.1124 14.7051 17.8702 15.209C17.632 15.7129 17.5128 16.5488 17.5128 17.7168Z" fill="white" fill-opacity="0.9"/>
<path d="M24.5329 16C24.5329 16.582 24.5895 17.0156 24.7028 17.3008C24.8161 17.5859 25.0016 17.7285 25.2595 17.7285C25.7751 17.7285 26.0329 17.1523 26.0329 16C26.0329 14.8477 25.7751 14.2715 25.2595 14.2715C25.0016 14.2715 24.8161 14.4141 24.7028 14.6992C24.5895 14.9844 24.5329 15.418 24.5329 16ZM27.1696 15.9883C27.1696 16.8867 27.0075 17.5625 26.6833 18.0156C26.363 18.4648 25.8884 18.6895 25.2595 18.6895C24.6657 18.6895 24.2048 18.457 23.8766 17.9922C23.5524 17.5234 23.3903 16.8555 23.3903 15.9883C23.3903 14.2031 24.0134 13.3105 25.2595 13.3105C25.8727 13.3105 26.3434 13.543 26.6716 14.0078C27.0036 14.4688 27.1696 15.1289 27.1696 15.9883ZM30.111 19.4219C30.111 20.0039 30.1677 20.4395 30.2809 20.7285C30.3981 21.0176 30.5856 21.1621 30.8434 21.1621C31.3552 21.1621 31.611 20.582 31.611 19.4219C31.611 18.2773 31.3552 17.7051 30.8434 17.7051C30.5856 17.7051 30.3981 17.8457 30.2809 18.127C30.1677 18.4082 30.111 18.8398 30.111 19.4219ZM32.7477 19.4219C32.7477 20.3203 32.5856 20.9941 32.2614 21.4434C31.9372 21.8926 31.4645 22.1172 30.8434 22.1172C30.2497 22.1172 29.7887 21.8867 29.4606 21.4258C29.1325 20.9609 28.9684 20.293 28.9684 19.4219C28.9684 17.6367 29.5934 16.7441 30.8434 16.7441C31.445 16.7441 31.9118 16.9746 32.2438 17.4355C32.5798 17.8965 32.7477 18.5586 32.7477 19.4219ZM31.0075 13.4336L26.2555 22H25.1188L29.8708 13.4336H31.0075Z" fill="white"/>
</g>
<defs>
<clipPath id="clip0">
<rect width="30" height="30" fill="white" transform="translate(3 2.66992)"/>
</clipPath>
</defs>
</svg>
