<svg width="81" height="81" viewBox="0 0 81 81" fill="none" xmlns="http://www.w3.org/2000/svg">
<path d="M81 44.5225C81 45.4258 80.058 46.5002 76.8763 47.5077C75.915 47.4869 74.915 47.4735 73.8688 47.4586C69.2302 47.4065 63.8208 47.2815 58.0259 47.2577C52.2281 47.2279 46.0448 47.2012 39.8586 47.1699C39.5148 47.1699 39.1696 47.1729 38.8258 47.1729C39.1622 46.5419 39.4017 45.8365 39.686 45.1118C40.9836 39.9048 40.4762 35.2156 37.6353 30.5651C37.2886 29.9952 36.8674 29.5338 36.5073 29.1276C36.4775 29.0904 36.4507 29.0651 36.421 29.0294H39.0476C40.0893 29.0294 42.0879 29.3255 44.6817 29.8508C44.0418 30.5116 43.6757 31.2631 43.6757 32.0622C43.6757 34.6814 47.5508 36.8049 52.3278 36.8049C55.9053 36.8049 58.9754 35.6174 60.2954 33.9224C60.9755 34.1322 61.6585 34.3465 62.3386 34.5668C74.1962 38.3943 80.997 42.0224 81 44.5225ZM2.69057 47.5092C1.93757 45.521 1.93757 42.8052 1.93757 39.8884C1.93757 34.0593 1.93757 29.0264 7.94821 29.0264H35.8689C35.9522 29.1573 36.0355 29.2838 36.1189 29.4297C36.3942 29.8761 36.7052 30.3672 36.982 30.952C37.1278 31.2378 37.2782 31.5354 37.4344 31.842C39.1651 35.2364 41.442 44.3409 37.3823 46.9139C35.4433 48.1417 31.6634 47.1416 29.5026 47.1387C26.8983 47.1342 24.2911 47.2384 21.6868 47.2503C15.8905 47.28 10.481 47.4021 5.84248 47.4527C4.74422 47.4735 3.69656 47.4913 2.69057 47.5092ZM28.5665 36.8035C28.5665 38.2648 29.7511 39.4509 31.2139 39.4509H31.9833C33.4447 39.4509 34.6307 38.2663 34.6307 36.8035C34.6307 35.3421 33.4462 34.156 31.9833 34.156H31.2139C29.7511 34.156 28.5665 35.3421 28.5665 36.8035ZM21.1615 36.8035C21.1615 38.2648 22.3461 39.4509 23.8074 39.4509H24.5783C26.0382 39.4509 27.2257 38.2663 27.2257 36.8035C27.2257 35.3421 26.0396 34.156 24.5783 34.156H23.8074C22.3475 34.156 21.1615 35.3421 21.1615 36.8035ZM13.755 36.8035C13.755 38.2648 14.9395 39.4509 16.4024 39.4509H17.1718C18.6331 39.4509 19.8192 38.2663 19.8192 36.8035C19.8192 35.3421 18.6346 34.156 17.1718 34.156H16.4024C14.9395 34.156 13.7535 35.3421 13.755 36.8035ZM6.34994 36.8035C6.34994 38.2648 7.5345 39.4509 8.99735 39.4509H9.76673C11.2281 39.4509 12.4141 38.2663 12.4141 36.8035C12.4141 35.3421 11.2296 34.156 9.76673 34.156H8.99735C7.5345 34.156 6.34994 35.3421 6.34994 36.8035ZM2.98076 48.1536C3.80669 49.7608 5.28591 50.7519 7.9497 50.7519H35.8674C35.9492 50.6209 36.0311 50.4974 36.1144 50.3531C36.3897 49.9021 36.7037 49.4051 36.982 48.8247C37.0386 48.7146 37.0996 48.5956 37.1591 48.4795C31.8821 48.4512 26.6438 48.4319 21.6883 48.4036C15.889 48.3768 10.4781 48.2548 5.84099 48.1997C4.84839 48.1863 3.89746 48.167 2.98076 48.1536ZM67.7867 51.8933C68.4028 51.5004 68.812 50.8174 68.812 50.0361C68.812 49.8441 68.7808 49.6626 68.7332 49.4855C68.7153 49.4304 68.7019 49.3768 68.6841 49.3247C68.6603 49.2727 68.6528 49.2146 68.629 49.1625C70.8672 48.8679 72.7244 48.5405 74.2527 48.2012C74.1158 48.2027 73.9908 48.2057 73.8569 48.2086C72.0056 48.2324 70.0055 48.2622 67.9355 48.3009C64.8119 48.3485 61.4948 48.3976 58.0096 48.4125C52.9201 48.4378 47.5285 48.4616 42.1042 48.4899C41.3497 48.4929 40.5997 48.4973 39.8452 48.5003C39.2693 48.4973 38.6964 48.4944 38.1175 48.4899C37.9493 48.7429 37.7811 48.9899 37.6234 49.2236C37.2752 49.798 36.86 50.2489 36.4999 50.6581C36.4686 50.6938 36.4403 50.7221 36.4091 50.7578H39.0357C39.4955 50.7578 40.3899 50.7549 41.5849 50.74C41.6072 50.795 41.6161 50.8531 41.6399 50.9067C41.6637 50.9602 41.698 51.0123 41.7292 51.0674C41.8349 51.2653 41.9762 51.4394 42.134 51.5942C41.2098 51.5882 40.2872 51.5823 39.3631 51.5748C34.4432 51.6061 29.5234 51.6358 24.9087 51.6656C20.2954 51.6924 15.9917 51.8144 12.2996 51.8695C8.60895 51.9305 5.53443 52.0585 3.38108 52.1106C1.22772 52.1954 0 52.2415 0 52.2415C0 52.2415 1.22921 52.2847 3.38108 52.3695C5.53443 52.4201 8.60895 52.5525 12.2996 52.6106C15.9902 52.6642 20.2954 52.7862 24.9087 52.8145C29.5234 52.8457 34.4417 52.8725 39.3631 52.9052C44.2844 52.874 49.2057 52.8457 53.8175 52.8145C58.4307 52.7906 62.7315 52.6656 66.4265 52.6136C70.1157 52.5555 73.1961 52.4246 75.3465 52.3695C77.4969 52.2862 78.7261 52.2415 78.7261 52.2415C78.7261 52.2415 77.4969 52.1954 75.3465 52.1106C73.4685 52.0644 70.8791 51.9573 67.7867 51.8933ZM40.5952 24.1304L1.93906 24.8744L40.5952 25.6185V24.1304ZM71.1008 28.2853L57.4634 29.0294L71.1008 29.7734V28.2853ZM53.7416 56.8697V55.3815L10.0897 56.1256L53.7416 56.8697Z" fill="#01A680"/>
</svg>
