<svg width="89" height="89" viewBox="0 0 89 89" fill="none" xmlns="http://www.w3.org/2000/svg">
<g clip-path="url(#clip0)">
<path d="M51.0608 27.0656C51.9469 27.5382 52.8216 28.0519 53.6585 28.5901C53.78 28.6689 53.8522 28.7493 53.9539 28.8281C55.0272 28.0912 56.2875 27.4315 57.7677 26.9835C58.9345 26.6307 59.0789 26.1876 58.0204 25.8447C57.3919 25.6412 56.7503 25.4492 56.0873 25.2719C56.0873 25.2719 55.7197 25.1472 55.0715 24.9831C54.507 24.8387 53.0809 24.9864 51.9469 25.4344C51.2068 25.7265 50.447 26.0908 49.6807 26.5208C50.1828 26.6767 50.662 26.8523 51.0608 27.0656Z" fill="#01A680"/>
<path d="M63.833 38.8024C64.3631 39.2931 64.8406 39.8297 65.1737 40.3778C65.5167 40.9456 65.8384 41.5183 66.1321 42.0828C66.4537 42.6982 66.5686 43.2102 66.5883 43.6533C66.713 43.6106 66.8574 43.5663 67.0462 43.5204C69.1122 43.0018 72.5371 42.5735 76.6331 43.7173C77.1353 43.8617 77.6489 44.0291 78.1707 44.2244C79.0077 44.5345 79.2998 43.9224 78.7353 42.8426C78.4858 42.3634 78.1839 41.8186 77.8245 41.2262C77.1943 40.1825 75.719 38.9632 74.549 38.6202C71.8183 37.8178 68.1818 37.5043 63.833 38.8024Z" fill="#01A680"/>
<path d="M46.2969 26.0628C46.4577 26.0513 46.6251 26.0448 46.8007 26.0448C47.1748 26.0448 47.5687 26.0776 47.9675 26.1301C48.4122 25.8183 48.8799 25.5131 49.3968 25.2324C50.47 24.6532 50.4257 24.2084 49.2097 24.1707C48.7305 24.1559 48.2366 24.1526 47.7262 24.1641C47.0386 24.1805 46.1623 24.389 45.3418 24.6876C45.9982 25.1143 46.2329 25.6443 46.2969 26.0628Z" fill="#01A680"/>
<path d="M60.8685 34.6537C61.9007 35.7745 61.8596 36.6968 61.625 37.2941C62.1698 37.5387 62.7179 37.898 63.2348 38.3017C65.3715 37.1875 68.7487 36.065 73.0236 36.8806C74.2199 37.1087 74.5416 36.6623 73.7178 35.7647C73.1894 35.1903 72.6183 34.611 72.0095 34.0318C71.1249 33.1948 69.3805 32.3907 68.1629 32.3415C65.8654 32.2463 63.0855 32.5778 60.0381 33.8135C60.3138 34.0941 60.6026 34.3665 60.8685 34.6537Z" fill="#01A680"/>
<path d="M55.0723 30.8171C56.482 31.1076 58.0787 31.8953 59.0764 32.8405C59.1716 32.9308 59.2586 33.0293 59.3521 33.1195C61.1113 32.1398 63.4629 31.2848 66.4398 31.17C67.6574 31.1224 67.8527 30.6284 66.8271 29.9687C66.041 29.4649 65.2156 28.9759 64.3425 28.5098C63.2693 27.9355 61.3755 27.5433 60.171 27.7336C58.4676 28.0028 56.6001 28.5738 54.708 29.606C54.9985 30.0524 55.092 30.4774 55.0723 30.8171Z" fill="#01A680"/>
<path d="M86.7748 57.415C88.8146 59.4795 90.0962 58.3816 87.7069 55.0667C86.5024 53.3978 84.6299 51.5057 81.7319 49.8679C81.873 49.543 81.8385 49.1491 81.5842 48.7208C81.0197 47.7723 79.7446 46.5218 78.6172 46.0541C77.9329 45.7686 77.1862 45.4863 76.3887 45.2238C73.7482 44.3507 70.5269 43.6943 67.143 43.9388C66.9133 43.9552 66.741 43.9585 66.5933 43.9552C66.5638 44.3737 66.4456 44.715 66.2963 44.9628C66.2684 45.0055 66.2421 45.0482 66.2109 45.0892C67.3646 45.8457 68.3935 46.9698 68.9383 47.8839C68.9383 47.8872 68.9416 47.8905 68.9416 47.8937C69.603 48.3253 70.2676 48.7553 70.9224 49.1984C71.7396 49.7514 72.5568 50.311 73.4512 50.7065C73.8155 50.8689 74.1913 51.0002 74.5868 51.0921C75.2793 52.3295 76.2672 53.7752 77.539 55.1209C79.5312 57.228 82.2619 59.7486 85.4603 62.8305C90.0273 67.2334 89.0788 63.605 86.8995 59.5549C85.1403 56.2762 84.7366 55.3506 86.7748 57.415Z" fill="#01A680"/>
<path d="M32.2419 26.0644C32.4027 26.0529 32.5701 26.0464 32.744 26.0464C33.1182 26.0464 33.512 26.0792 33.9125 26.1317C34.3555 25.8199 34.8232 25.5147 35.3418 25.2341C36.4134 24.6548 36.3707 24.2101 35.1514 24.1723C34.8741 24.1641 34.5902 24.1592 34.3014 24.1592C34.093 24.1592 33.8829 24.1608 33.6696 24.1674C32.982 24.1838 32.1057 24.3922 31.2852 24.6909C31.9432 25.1143 32.1762 25.6443 32.2419 26.0644Z" fill="#01A680"/>
<path d="M37.0041 27.0657C37.032 27.0788 37.0534 27.0935 37.078 27.1067C37.8329 27.5137 38.573 27.9551 39.295 28.4097C39.3951 28.472 39.5034 28.5262 39.6019 28.5902C39.7233 28.6689 39.7955 28.7494 39.8973 28.8281C40.0515 28.7215 40.2156 28.6214 40.3781 28.5196C41.3447 27.9108 42.4442 27.3676 43.7111 26.9836C44.8778 26.6308 45.0222 26.1877 43.9638 25.8447C43.798 25.7906 43.6208 25.7446 43.4518 25.6937C42.9841 25.5493 42.518 25.4033 42.0306 25.272C42.0306 25.272 41.6647 25.1473 41.0148 24.9832C40.8753 24.9471 40.685 24.9307 40.4585 24.9307C39.766 24.9307 38.7453 25.098 37.8903 25.4345C37.1502 25.7266 36.3887 26.0909 35.624 26.5208C36.1262 26.6767 36.6054 26.8523 37.0041 27.0657Z" fill="#01A680"/>
<path d="M49.1001 38.2426C49.1247 38.2607 49.1461 38.2771 49.169 38.2951C49.1855 38.2869 49.1953 38.2803 49.2084 38.2738C49.7713 37.9833 50.431 37.7011 51.158 37.4451C52.5299 36.9642 54.1676 36.6016 56.0532 36.6016C56.9722 36.6016 57.942 36.6853 58.9644 36.8805C59.1728 36.9199 59.355 36.9396 59.5092 36.9396C60.2378 36.9396 60.3396 36.5047 59.6569 35.7646C59.2811 35.3577 58.861 34.9458 58.4458 34.5355C58.2752 34.3665 58.1258 34.1991 57.9486 34.0317C57.942 34.0268 57.9355 34.0219 57.9289 34.0186C57.0411 33.1866 55.3131 32.3923 54.102 32.3414C53.8575 32.3316 53.6031 32.3267 53.3455 32.3267C52.5315 32.3267 51.6634 32.389 50.7526 32.517C50.5541 32.5449 50.3555 32.5745 50.1504 32.6089C48.8359 32.8354 47.4394 33.2145 45.9756 33.8085C46.2529 34.0924 46.5434 34.3648 46.8092 34.6553C47.4771 35.3823 47.6921 36.0239 47.7003 36.5507C47.7036 36.8346 47.6494 37.0873 47.5658 37.2957C48.086 37.5255 48.6029 37.8652 49.1001 38.2426Z" fill="#01A680"/>
<path d="M52.0768 42.0826C52.3985 42.6996 52.5117 43.2116 52.533 43.658C52.661 43.6153 52.7956 43.5694 52.9892 43.5218C54.0937 43.2428 55.5804 42.9934 57.3511 42.9934C58.1257 42.9934 58.9561 43.041 59.8291 43.1575C60.7021 43.2707 61.6227 43.4545 62.5778 43.722C62.8026 43.786 63.0373 43.8746 63.2671 43.9485C63.5493 44.0404 63.8283 44.1191 64.1155 44.2274C64.2632 44.2816 64.3928 44.3079 64.5044 44.3079C65.0279 44.3079 65.146 43.7351 64.6784 42.844C64.4273 42.3649 64.1253 41.82 63.7676 41.2276C63.3967 40.6139 62.7272 39.9575 62.0051 39.4373C61.9017 39.3618 61.7967 39.2896 61.69 39.2206C61.283 38.9581 60.8761 38.7333 60.4937 38.6217C59.0759 38.2048 57.4151 37.916 55.5394 37.916C54.7468 37.916 53.9017 37.9915 53.0352 38.1064C52.2065 38.2163 51.3466 38.3886 50.4538 38.6249C50.2225 38.6857 50.0058 38.7283 49.7695 38.7973C50.3045 39.2896 50.7837 39.8295 51.1168 40.3792C51.4598 40.9454 51.7831 41.5197 52.0768 42.0826Z" fill="#01A680"/>
<path d="M71.9665 53.0859C70.8736 51.9897 69.4721 50.877 67.6817 49.8645C67.818 49.5429 67.7835 49.1474 67.5291 48.7207C67.4783 48.6337 67.3946 48.5369 67.3322 48.4467C66.7086 47.5408 65.5894 46.4791 64.5654 46.0524C64.1141 45.8653 63.6267 45.6782 63.1229 45.4994C62.8637 45.4058 62.6077 45.3106 62.3352 45.2204C60.0723 44.4737 57.3859 43.8862 54.5354 43.8862C54.0579 43.8862 53.577 43.9043 53.0913 43.9371C52.9009 43.9502 52.7385 43.9568 52.6039 43.9568C52.5744 43.9568 52.5694 43.9519 52.5399 43.9519C52.512 44.372 52.3922 44.7133 52.2429 44.9611C52.2166 45.0054 52.1904 45.0464 52.1592 45.0858C53.3112 45.8423 54.3418 46.9665 54.8849 47.8805C54.8866 47.8838 54.8882 47.8904 54.8899 47.8936C55.5512 48.3236 56.2158 48.7519 56.869 49.1966C57.6862 49.7497 58.5051 50.3092 59.3978 50.7047C59.7621 50.8672 60.1379 50.9985 60.535 51.0887C60.8714 51.6943 61.285 52.3523 61.7625 53.0186C62.2647 53.7193 62.8358 54.4315 63.4873 55.1175C65.4778 57.2246 68.2085 59.7452 71.4069 62.8271C72.8855 64.2515 73.788 64.8357 74.2541 64.8357C75.2305 64.8357 74.3197 62.2905 72.8461 59.5516C71.7171 57.451 71.1443 56.3138 71.4167 56.3138C71.571 56.3138 71.9878 56.6699 72.7214 57.41C73.4237 58.1206 74.0358 58.4553 74.4395 58.4553C75.2092 58.4553 75.2223 57.2361 73.6535 55.0633C73.194 54.4283 72.6377 53.7603 71.9665 53.0859Z" fill="#01A680"/>
<path d="M52.3237 31.1747C52.3467 31.1731 52.3631 31.1698 52.3844 31.1698C53.2854 31.1353 53.6218 30.8547 53.3247 30.4461C53.2214 30.3017 53.0392 30.1425 52.7717 29.9702C52.7208 29.9374 52.6634 29.9078 52.6109 29.8766C51.8724 29.4073 51.1044 28.9478 50.2872 28.5129C49.6373 28.165 48.6839 27.8861 47.7682 27.7613C47.4351 27.7154 47.1069 27.6875 46.8 27.6875C46.5571 27.6875 46.3257 27.7023 46.1173 27.7367C46.0976 27.74 46.0779 27.7449 46.0582 27.7482C44.3696 28.0206 42.5251 28.5901 40.6543 29.6092C40.9415 30.0555 41.035 30.4805 41.0153 30.8202C41.7932 30.9778 42.6186 31.2978 43.3784 31.7031C43.4588 31.7458 43.5343 31.795 43.6131 31.841C44.1382 32.1413 44.6305 32.4728 45.0211 32.8404C45.1163 32.9306 45.2033 33.0291 45.2968 33.1193C46.8131 32.2742 48.784 31.5374 51.2012 31.2732C51.5705 31.2338 51.9348 31.1911 52.3237 31.1747Z" fill="#01A680"/>
<path d="M43.3992 51.2035C42.9823 50.9458 42.5754 50.6702 42.1684 50.3928C40.8556 49.5034 39.5066 48.6697 38.2004 47.7721C38.1167 47.7146 38.0346 47.6523 37.9509 47.5965C36.4444 46.5528 34.9659 45.4713 33.4807 44.4014C33.0048 44.0584 32.5322 43.7089 32.0514 43.3725C27.9701 40.5039 23.5886 38.7529 18.9247 37.7421C18.6556 37.6846 18.3865 37.6239 18.1157 37.5698C17.5167 37.4516 16.9128 37.3499 16.304 37.2563C15.3456 37.1086 14.3741 36.9872 13.3928 36.892C13.0892 36.8625 12.7873 36.828 12.482 36.8034C12.3606 36.7935 12.2424 36.7771 12.121 36.7689C11.3382 36.7115 10.5587 36.6836 9.7776 36.6836C8.89144 36.6836 8.00528 36.7213 7.12241 36.7935C5.90804 36.8953 4.92342 37.1135 4.91521 37.1923C4.90701 37.2645 4.8988 37.3351 4.8988 37.3351C4.81183 38.1851 4.74618 39.2666 4.77408 40.4859C4.82003 41.4442 4.92177 42.4732 5.12198 43.5513C5.13675 43.6449 5.42393 45.2695 6.7023 46.4396C7.60159 47.2601 8.65021 47.4685 8.67318 47.4718L8.71749 47.4783C8.78313 47.4898 15.8675 48.1512 21.6489 49.3426C21.7145 49.354 29.1074 51.1198 31.756 52.3128C31.9546 52.39 36.7316 54.4084 40.296 54.4084C40.9573 54.4084 41.5415 54.3395 42.0469 54.2C42.6541 54.0326 43.2334 53.6257 43.665 53.2499C43.9013 53.0431 44.1064 52.8445 44.218 52.7034C44.2459 52.6689 44.2673 52.6361 44.2935 52.6017C44.561 52.2488 44.7268 51.937 44.7169 51.9255C44.712 51.9223 44.5873 51.8615 44.415 51.7746C44.1688 51.6466 43.8061 51.4546 43.3992 51.2035Z" fill="#01A680"/>
<path d="M59.0055 54.3043C58.8349 54.0992 58.6593 53.8908 58.4705 53.6824C58.2917 53.4838 58.1062 53.2885 57.9093 53.09C57.1019 52.2809 56.1206 51.4653 54.944 50.6826C54.5271 50.4069 54.0939 50.1345 53.6229 49.8686C53.764 49.542 53.7296 49.1482 53.4736 48.7199C53.4244 48.6313 53.3407 48.5361 53.2767 48.4458C52.6531 47.5416 51.5339 46.4782 50.5099 46.0532C50.0586 45.8661 49.5712 45.679 49.069 45.5002C48.8098 45.4066 48.5521 45.3114 48.2797 45.2212C46.0183 44.4745 43.3303 43.887 40.4799 43.887C40.0023 43.887 39.5215 43.9051 39.0357 43.9379C38.8454 43.951 38.6829 43.9576 38.55 43.9576C37.8312 43.9576 37.9412 43.7705 38.9389 43.5194C40.0417 43.2405 41.5301 42.991 43.3008 42.991C44.0754 42.991 44.9041 43.0386 45.7788 43.1551C46.6518 43.2684 47.5708 43.4505 48.5259 43.7196C48.7523 43.7836 48.987 43.8723 49.2167 43.9461C49.499 44.038 49.7763 44.1168 50.0651 44.2251C50.2128 44.2792 50.3408 44.3055 50.4541 44.3055C50.9776 44.3055 51.0941 43.7328 50.628 42.8417C50.3769 42.3625 50.0734 41.8177 49.7172 41.2253C49.3447 40.6115 48.6768 39.9567 47.9581 39.4365C47.8514 39.3594 47.7464 39.2856 47.6381 39.2166C47.2327 38.9557 46.8241 38.7325 46.4417 38.6193C45.0239 38.2025 43.3648 37.9136 41.4874 37.9136C40.6948 37.9136 39.8513 37.9891 38.9832 38.104C38.1561 38.214 37.2946 38.3863 36.4019 38.6226C35.4337 38.8786 34.4408 39.1855 33.3988 39.6154C33.2675 39.6663 33.1379 39.7188 33.0049 39.7746C32.9508 39.7976 32.9327 39.7976 32.8966 39.809C32.8671 39.8173 32.8195 39.8386 32.8047 39.8386C32.767 39.8386 32.7785 39.809 32.8507 39.7533C32.8638 39.7434 32.8835 39.7286 32.8983 39.7171C32.9573 39.6712 33.0181 39.6236 33.0952 39.5678C33.5202 39.2412 34.2226 38.7571 35.158 38.2747C35.7208 37.9842 36.3805 37.702 37.1092 37.446C37.9609 37.1473 38.9176 36.9044 39.9728 36.7567C40.6193 36.6665 41.2872 36.6025 42.0027 36.6025C42.9201 36.6025 43.8916 36.6862 44.9139 36.8814C45.1223 36.9208 45.3045 36.9405 45.4588 36.9405C46.0331 36.9405 46.1989 36.6632 45.9199 36.1889C45.8444 36.0609 45.7525 35.9247 45.6081 35.7655C45.2323 35.3569 44.8105 34.945 44.3937 34.5348C44.2231 34.3674 44.077 34.2016 43.8998 34.0342C43.8948 34.0293 43.8866 34.0244 43.8817 34.0211C42.9923 33.1891 41.2659 32.3948 40.0548 32.344C39.8087 32.3341 39.5559 32.3292 39.2983 32.3292C38.486 32.3292 37.6146 32.3916 36.7055 32.5196C36.502 32.5475 36.2985 32.5786 36.0901 32.6131C33.9863 32.9774 31.6691 33.7339 29.2207 35.1222C28.9335 35.2847 28.7366 35.3684 28.5823 35.4176C28.5118 35.439 28.4314 35.4701 28.3887 35.4701C28.1836 35.4701 28.3362 35.2059 28.9007 34.73C28.9778 34.666 29.0714 34.5955 29.1534 34.5298C30.01 33.8406 31.162 33.0709 32.6373 32.4391C32.7752 32.3801 32.9262 32.3292 33.0706 32.2718C34.2472 31.809 35.6043 31.4463 37.1502 31.2773C37.3422 31.256 37.5391 31.2412 37.7377 31.2264C37.8985 31.2149 38.0495 31.192 38.2136 31.1854C38.2333 31.1838 38.2513 31.1805 38.271 31.1805C38.2923 31.1788 38.3104 31.1755 38.3317 31.1755C39.231 31.1411 39.5691 30.8605 39.272 30.4519C39.2097 30.3649 39.1145 30.273 38.9931 30.1745C38.9127 30.1105 38.8273 30.0432 38.719 29.976C38.6681 29.9431 38.6091 29.9136 38.5582 29.8824C38.5237 29.8611 38.4843 29.8414 38.4499 29.8184C37.7426 29.372 37.0123 28.9339 36.2361 28.5171C36.0819 28.435 35.8932 28.3612 35.7094 28.2873C35.1186 28.0494 34.4146 27.859 33.7155 27.7638C33.3824 27.7179 33.0542 27.69 32.7473 27.69C32.5044 27.69 32.2747 27.7048 32.0663 27.7392C32.0466 27.7425 32.0269 27.7474 32.0072 27.7507C29.562 28.1462 26.7903 29.1489 24.0842 31.2806C23.889 31.4348 23.6937 31.594 23.4984 31.7614C23.185 32.0289 22.8699 32.2997 22.5597 32.6C22.1675 32.979 21.9132 33.1645 21.818 33.1645C21.6998 33.1645 21.8229 32.8839 22.2233 32.3423C22.7222 31.6695 23.3901 30.8867 24.2336 30.1122C24.8358 29.5608 25.5366 29.0209 26.3259 28.5236C27.2925 27.9148 28.392 27.3716 29.6605 26.9876C30.8273 26.6348 30.9717 26.1917 29.9132 25.8487C29.7475 25.7946 29.5702 25.7486 29.4012 25.6978C29.0828 25.5993 28.7612 25.5041 28.4346 25.4122C28.2804 25.3696 28.136 25.3187 27.9801 25.2777C27.9801 25.2777 27.9325 25.2629 27.8636 25.2399C27.7126 25.1923 27.4123 25.1021 26.9643 24.9872C26.8248 24.9511 26.6344 24.9347 26.408 24.9347C26.0322 24.9347 25.5595 24.9888 25.0705 25.0873C24.657 25.171 24.2319 25.2842 23.8397 25.4401C22.7123 25.8848 21.5374 26.4871 20.3689 27.2699C19.9341 27.5603 19.4992 27.8754 19.0676 28.2217C18.0141 29.0685 16.9786 30.081 16.0054 31.3085C15.6608 31.7434 15.4179 31.955 15.3096 31.955C15.198 31.955 15.2341 31.7237 15.4311 31.2953C15.4655 31.2182 15.4967 31.1493 15.5427 31.059C16.419 29.354 18.1322 26.9466 21.2896 25.2399C22.3612 24.6606 22.3185 24.2159 21.0992 24.1782C20.8219 24.17 20.538 24.165 20.2491 24.165C20.0407 24.165 19.8307 24.1667 19.6157 24.1732C18.3981 24.2011 16.5486 24.8018 15.5673 25.5222C13.7999 26.8202 11.911 28.6369 10.101 31.1887C9.77277 31.6515 9.55615 31.8796 9.47082 31.8796C9.37399 31.8796 9.44948 31.5809 9.7301 30.9934C10.334 29.7298 11.2743 28.0592 12.6019 26.4904C13.1828 25.8044 13.2173 25.3942 12.7348 25.3942C12.5642 25.3942 12.3279 25.4467 12.0276 25.555C11.4499 25.7651 10.8723 26.0046 10.2963 26.2754C9.19184 26.7923 7.68044 28.0428 6.95839 29.0258C6.2872 29.9382 5.62751 30.9786 5.02032 32.1602C4.75284 32.6787 4.56904 32.9364 4.49027 32.9364C4.40494 32.9364 4.4476 32.6328 4.65109 32.0305C4.77417 31.6662 4.92022 31.2707 5.09745 30.8539C5.37971 30.1893 5.40433 29.8365 5.19591 29.8365C5.05314 29.8365 4.79878 30.0039 4.44432 30.3501C3.03467 31.7253 1.69722 33.386 0.484498 35.3979C0.484498 35.3979 0.238342 35.7672 0.0332127 36.2201C-0.0997113 36.5122 0.175983 36.6435 0.687986 36.6435C1.00307 36.6435 1.40676 36.5943 1.86297 36.5024C3.21026 36.2316 4.75284 35.9854 4.98258 35.9444C5.17294 35.905 5.37315 35.8853 5.57171 35.8558C7.17993 35.6113 8.79635 35.4882 10.4177 35.4882C11.1365 35.4882 11.8569 35.5194 12.5789 35.567C12.6397 35.5719 12.7004 35.5686 12.7611 35.5735C12.9941 35.5899 13.2189 35.6211 13.4503 35.6408C13.7457 35.6654 14.0395 35.6966 14.3332 35.7278C15.459 35.8427 16.5716 35.9854 17.6662 36.1725C18.7394 36.3563 19.7995 36.5713 20.8432 36.8322C25.0328 37.8792 28.9844 39.5744 32.6931 42.1787C32.8195 42.269 32.9442 42.3609 33.0706 42.4495C35.0004 43.8181 36.8909 45.2409 38.8421 46.58C39.5182 47.0444 40.2058 47.494 40.8934 47.9387C41.535 48.3556 42.1767 48.7724 42.8101 49.2023C43.6274 49.7554 44.4462 50.315 45.339 50.7105C45.7033 50.8729 46.0807 51.0042 46.4762 51.0961C46.8143 51.7016 47.2262 52.3581 47.7053 53.026C47.9794 53.4067 48.2781 53.794 48.5948 54.1763C48.859 54.4947 49.1347 54.8147 49.4284 55.1248C49.4875 55.1888 49.5614 55.2594 49.6221 55.3234C51.5962 57.3911 54.2449 59.8428 57.3497 62.8344C58.8283 64.2589 59.7292 64.8431 60.1969 64.8431C61.1733 64.8431 60.2609 62.2978 58.7889 59.5589C57.6599 57.4584 57.0855 56.3212 57.3596 56.3212C57.5122 56.3212 57.929 56.6773 58.6625 57.4174C59.3649 58.1279 59.977 58.4627 60.3807 58.4627C61.1504 58.4627 61.1635 57.2434 59.5947 55.0707C59.4174 54.818 59.2172 54.562 59.0055 54.3043Z" fill="#01A680"/>
</g>
<defs>
<clipPath id="clip0">
<rect width="89" height="89" fill="white"/>
</clipPath>
</defs>
</svg>
