<svg width="67" height="67" viewBox="0 0 67 67" fill="none" xmlns="http://www.w3.org/2000/svg">
<g clip-path="url(#clip0)">
<path d="M48.4438 28.8402C48.6788 27.4805 48.8254 26.093 48.8254 24.6676C48.8254 11.1839 37.8962 0.253906 24.4128 0.253906C10.9297 0.253906 0 11.1839 0 24.6676C0 38.1506 10.9297 49.0809 24.4125 49.0809C26.0095 49.0809 27.5673 48.9167 29.0798 48.6233C29.0798 48.5937 29.0753 48.5674 29.0753 48.536C29.0753 46.4171 29.4196 44.3793 30.0423 42.4646C28.2649 43.0285 26.3751 43.3368 24.4125 43.3368C14.1169 43.3368 5.74194 34.9609 5.74194 24.6659C5.74194 14.3703 14.1169 5.99668 24.4125 5.99668C34.7084 5.99668 43.0826 14.3703 43.0826 24.6659C43.0826 26.4967 42.8068 28.2643 42.3133 29.9373C44.2415 29.2637 46.2989 28.8774 48.4438 28.8402Z" fill="#01A680"/>
<path d="M24.4122 7.50195C14.9468 7.50195 7.24512 15.2017 7.24512 24.6676C7.24512 34.133 14.9468 41.835 24.4122 41.835C26.6545 41.835 28.791 41.3896 30.7564 40.6059C32.6837 36.2388 36.1529 32.7123 40.4671 30.691C41.1731 28.8132 41.5787 26.7888 41.5787 24.6662C41.579 15.2017 33.8776 7.50195 24.4122 7.50195ZM30.9474 28.4523C30.9474 29.9707 29.7155 31.202 28.1972 31.202H20.6275C19.1091 31.202 17.8772 29.9707 17.8772 28.4523V20.8829C17.8772 19.3637 19.1091 18.1327 20.6275 18.1327H28.1972C29.7155 18.1327 30.9474 19.3637 30.9474 20.8829V28.4523Z" fill="#01A680"/>
<path d="M48.7887 30.3252C48.5669 30.3252 48.3512 30.3509 48.1305 30.3582C45.8457 30.441 43.6636 30.9263 41.6669 31.7781C41.3058 31.9317 40.9592 32.1115 40.6098 32.2875C40.2131 32.4872 39.8254 32.7037 39.447 32.9322C36.7759 34.5387 34.5473 36.802 32.9937 39.5103C32.7713 39.896 32.5694 40.2941 32.3755 40.6994C32.2088 41.0457 32.0468 41.3968 31.9008 41.7565C31.0888 43.7728 30.6267 45.9622 30.5922 48.2584C30.5908 48.3527 30.5791 48.4436 30.5791 48.5359C30.5791 58.577 38.7479 66.7461 48.789 66.7461C58.8309 66.7461 67 58.5759 67 48.5359C66.9997 38.4968 58.8323 30.3252 48.7887 30.3252ZM48.7887 63.207C40.7007 63.207 34.1204 56.6273 34.1204 48.5379C34.1204 48.0271 34.1476 47.525 34.1979 47.0254C34.8958 40.2443 40.2336 34.8305 46.9705 33.993C47.5683 33.9194 48.1733 33.8679 48.7887 33.8679C56.8767 33.8679 63.4595 40.4471 63.4595 48.5379C63.4595 56.6273 56.8795 63.207 48.7887 63.207Z" fill="#01A680"/>
<path d="M48.7886 35.3726C47.9044 35.3726 47.0409 35.4621 46.204 35.6307C40.9222 36.6881 36.7828 40.9156 35.8387 46.2371C35.7064 46.9862 35.623 47.7541 35.623 48.5381C35.623 55.7979 41.5303 61.7037 48.7886 61.7037C56.0484 61.7037 61.9556 55.7979 61.9556 48.5381C61.9556 41.2784 56.0484 35.3726 48.7886 35.3726ZM53.8662 51.4775C53.8662 52.6582 52.9087 53.614 51.7283 53.614H45.8484C44.6694 53.614 43.7133 52.6582 43.7133 51.4775V45.5979C43.7133 44.4172 44.6694 43.4614 45.8484 43.4614H51.7283C52.9087 43.4614 53.8662 44.4172 53.8662 45.5979V51.4775Z" fill="#01A680"/>
</g>
<defs>
<clipPath id="clip0">
<rect width="67" height="67" fill="white"/>
</clipPath>
</defs>
</svg>
