<?xml version="1.0" encoding="utf-8"?>
<!-- Generator: Adobe Illustrator 22.1.0, SVG Export Plug-In . SVG Version: 6.00 Build 0)  -->
<svg version="1.1" id="Слой_1" xmlns="http://www.w3.org/2000/svg" xmlns:xlink="http://www.w3.org/1999/xlink" x="0px" y="0px"
	 viewBox="0 0 200.3 129.3" style="enable-background:new 0 0 200.3 129.3;" xml:space="preserve">
<style type="text/css">
	.st0{fill:#FFFFFF;}
	.st1{fill:#E73323;}
	.st2{fill:#79C647;}
	.st3{fill:#FFC5AE;}
	.st4{fill:none;}
	.st5{fill:#504E53;}
</style>
<rect class="st0" width="200.3" height="129.3"/>
<g>
	<g>
		<g>
			<g>
				<g>
					<g>
						<path class="st0" d="M87.2,34.9v21.7h0c0.4,6.8,7.7,12.2,16.7,12.2s16.3-5.4,16.7-12.2h0V34.9"/>
						<path d="M103.9,69.9c-9.1,0-16.6-5.3-17.7-12.2h-0.1l0-1.1V34.9h2.2l0,21.6c0.4,6.3,7.2,11.2,15.6,11.2s15.2-4.9,15.6-11.2
							l0-0.6v-21h2.2v22.8h-0.2C120.6,64.6,113,69.9,103.9,69.9z"/>
					</g>
					<g>
						<ellipse class="st0" cx="103.9" cy="35.9" rx="16.8" ry="11.7"/>
						<path d="M103.9,48.8C94,48.8,86,43,86,35.9s8-12.8,17.9-12.8s17.9,5.8,17.9,12.8S113.8,48.8,103.9,48.8z M103.9,25.3
							c-8.6,0-15.7,4.8-15.7,10.6s7,10.6,15.7,10.6s15.7-4.8,15.7-10.6S112.5,25.3,103.9,25.3z"/>
					</g>
					<g>
						<ellipse class="st0" cx="103.7" cy="34.9" rx="8.9" ry="4.5"/>
						<path d="M103.7,40.2c-5.5,0-9.7-2.3-9.7-5.3c0-3,4.3-5.3,9.7-5.3c5.5,0,9.7,2.3,9.7,5.3C113.5,37.8,109.2,40.2,103.7,40.2z
							 M103.7,31.2c-4.8,0-8.1,1.9-8.1,3.7c0,1.7,3.3,3.7,8.1,3.7c4.8,0,8.1-1.9,8.1-3.7C111.8,33.1,108.5,31.2,103.7,31.2z"/>
					</g>
				</g>
			</g>
			<g>
				<g>
					<path class="st1" d="M97,35.9c1.2-1.2,2.5-2.1,4.1-2.7c-0.3-0.4-0.6-0.8-0.9-1.2c-1,1.3-1.7,2.7-2.3,4.3c-0.2,0.6,0.4,1.2,1,1
						c2.6-0.9,4.1-3.9,6.9-4.3c-0.3-0.5-0.5-0.9-0.8-1.4c-1.8,1.7-3.7,3.2-4.2,5.8c-0.1,0.7,0.6,1.3,1.2,0.9
						c2.3-1.3,4.2-3.3,6.6-4.3c-0.4-0.3-0.7-0.5-1.1-0.8c0,0.5-1.9,1.8-2.2,2.2c-0.5,0.7-0.8,1.3-1.1,2.2c-0.2,0.7,0.6,1.3,1.2,0.9
						c1.9-0.9,3.7-2,5.5-3.2c-0.4-0.3-0.8-0.6-1.2-0.9c-0.2,0.4-0.4,0.9-0.6,1.3c-0.6,0.9,0.9,1.8,1.4,0.8c0.5-0.8,0.5-0.8,0.7-1.7
						c0.2-0.7-0.6-1.4-1.2-0.9c-1.8,1.2-3.6,2.3-5.5,3.2c0.4,0.3,0.8,0.6,1.2,0.9c0.5-2,3.2-2.9,3.3-4.9c0-0.5-0.6-1-1.1-0.8
						c-2.6,1.1-4.6,3.1-7,4.5c0.4,0.3,0.8,0.6,1.2,0.9c0.5-2.2,2.2-3.6,3.8-5c0.7-0.6-0.1-1.5-0.8-1.4c-3,0.5-4.1,3.4-6.9,4.3
						c0.3,0.3,0.7,0.7,1,1c0.5-1.5,1.2-2.7,2.1-3.9c0.4-0.6-0.3-1.5-0.9-1.2c-1.9,0.7-3.4,1.7-4.8,3.2C95.1,35.5,96.3,36.6,97,35.9
						L97,35.9z"/>
				</g>
			</g>
			<g>
				<g>
					<path class="st5" d="M89.3,43.7C89.2,49.5,89,55.2,88.9,61c0,1,1.4,1.1,1.6,0.2c1.6-5.3,2.7-10.6,3.2-16.1c-0.6,0-1.1,0-1.7,0
						c0.4,6.8,0.7,13.6,1.1,20.4c0.1,0.9,1.4,1.2,1.6,0.2c1.7-6,2-12,2.2-18.2c-0.6,0-1.1,0-1.7,0c0,6.2,0.1,12.3,0.1,18.5
						c0,1.1,1.6,1.1,1.7,0c0.6-5.9,1.1-11.7,1.7-17.6c-0.6,0-1.1,0-1.7,0c0.5,6.2,0.7,12.5,0.6,18.7c0,0.9,1.5,1.2,1.6,0.2
						c1.2-6,1.8-12,2.2-18.1c-0.6,0-1.1,0-1.7,0c0.5,5.9,1,11.8,1.5,17.7c0.1,0.9,1.4,1.2,1.6,0.2c1.2-6,1.3-12,1.2-18.1
						c-0.5,0.1-1.1,0.1-1.6,0.2c1,5.1,1.6,10.2,1.7,15.5c0,1.1,1.5,1,1.7,0c0.7-5.3,1.1-10.7,1.2-16.1c-0.6,0-1.1,0-1.7,0
						c0.3,6.2,0.5,12.4,0.8,18.5c0,0.9,1.3,1.1,1.6,0.2c2-6.1,2.9-12.1,2.9-18.5c-0.5,0.1-1.1,0.1-1.6,0.2c1,5.3,1.6,10.5,1.9,15.9
						c0,1.1,1.6,1.1,1.7,0c0.3-6.1,0.5-12.1,0.8-18.2c-0.6,0-1.1,0-1.7,0c0.7,5.7,1.2,11.5,1.4,17.3c0.1,1.1,1.6,1.1,1.7,0
						c0.7-6.2,1.1-12.5,1.4-18.8c-0.6,0-1.1,0-1.7,0c0.6,5.4,1.1,10.9,1.7,16.3c0.1,1.1,1.6,1.1,1.7,0c0.4-5.7,0.9-11.4,1.3-17.1
						c0.1-1.1-1.6-1.1-1.7,0c-0.4,5.7-0.9,11.4-1.3,17.1c0.6,0,1.1,0,1.7,0c-0.6-5.4-1.1-10.9-1.7-16.3c-0.1-1.1-1.6-1.1-1.7,0
						c-0.3,6.3-0.8,12.5-1.4,18.8c0.6,0,1.1,0,1.7,0c-0.3-5.8-0.7-11.5-1.4-17.3c-0.1-1-1.6-1.1-1.7,0c-0.3,6.1-0.5,12.1-0.8,18.2
						c0.6,0,1.1,0,1.7,0c-0.2-5.5-0.9-10.9-1.9-16.4c-0.2-0.9-1.6-0.7-1.6,0.2c0,6.2-0.9,12.1-2.9,18c0.5,0.1,1.1,0.1,1.6,0.2
						c-0.3-6.2-0.5-12.4-0.8-18.5c0-1.1-1.6-1.1-1.7,0c-0.1,5.4-0.5,10.7-1.2,16.1c0.6,0,1.1,0,1.7,0c-0.1-5.4-0.7-10.6-1.7-15.9
						c-0.2-0.9-1.7-0.7-1.6,0.2c0,6,0,11.8-1.2,17.7c0.5,0.1,1.1,0.1,1.6,0.2c-0.5-5.9-1-11.8-1.5-17.7c-0.1-1.1-1.6-1.1-1.7,0
						c-0.5,5.9-1,11.8-2.2,17.6c0.5,0.1,1.1,0.1,1.6,0.2c0.1-6.2-0.1-12.5-0.6-18.7c-0.1-1.1-1.6-1.1-1.7,0
						C96.5,54.3,96,60.2,95.4,66c0.6,0,1.1,0,1.7,0c0-6.2-0.1-12.3-0.1-18.5c0-1.1-1.6-1.1-1.7,0c-0.2,6-0.4,11.9-2.1,17.8
						c0.5,0.1,1.1,0.1,1.6,0.2c-0.4-6.8-0.7-13.6-1.1-20.4c-0.1-1.1-1.6-1.1-1.7,0c-0.5,5.4-1.6,10.5-3.2,15.7
						c0.5,0.1,1.1,0.1,1.6,0.2c0.1-5.8,0.3-11.5,0.4-17.3C91,42.6,89.3,42.6,89.3,43.7L89.3,43.7z"/>
				</g>
			</g>
		</g>
		<g>
			<g>
				<g>
					<path d="M103.9,69.9c-9.1,0-16.6-5.3-17.7-12.2h-0.1l0-1.1V34.9h2.2l0,21.6c0.4,6.3,7.2,11.2,15.6,11.2s15.2-4.9,15.6-11.2
						l0-0.6v-21h2.2v22.8h-0.2C120.6,64.6,113,69.9,103.9,69.9z"/>
				</g>
				<g>
					<path d="M103.9,48.8C94,48.8,86,43,86,35.9s8-12.8,17.9-12.8s17.9,5.8,17.9,12.8S113.8,48.8,103.9,48.8z M103.9,25.3
						c-8.6,0-15.7,4.8-15.7,10.6s7,10.6,15.7,10.6s15.7-4.8,15.7-10.6S112.5,25.3,103.9,25.3z"/>
				</g>
				<g>
					<path d="M103.7,40.2c-5.5,0-9.7-2.3-9.7-5.3c0-3,4.3-5.3,9.7-5.3c5.5,0,9.7,2.3,9.7,5.3C113.5,37.8,109.2,40.2,103.7,40.2z
						 M103.7,31.2c-4.8,0-8.1,1.9-8.1,3.7c0,1.7,3.3,3.7,8.1,3.7c4.8,0,8.1-1.9,8.1-3.7C111.8,33.1,108.5,31.2,103.7,31.2z"/>
				</g>
			</g>
		</g>
		<g>
			<g>
				<g>
					<g>
						<path class="st0" d="M117.6,48.3V70h0c0.4,6.8,7.7,12.2,16.7,12.2S150.6,76.8,151,70h0V48.3"/>
						<path d="M134.4,83.3c-9.1,0-16.6-5.3-17.7-12.2h-0.1l0-1.1V48.3h2.2l0,21.6c0.4,6.3,7.2,11.2,15.6,11.2
							c8.4,0,15.2-4.9,15.6-11.2l0-0.6v-21h2.2v22.8H152C151,78,143.4,83.3,134.4,83.3z"/>
					</g>
					<g>
						<ellipse class="st0" cx="134.3" cy="49.4" rx="16.8" ry="11.7"/>
						<path d="M134.3,62.2c-9.9,0-17.9-5.8-17.9-12.8s8-12.8,17.9-12.8s17.9,5.8,17.9,12.8S144.2,62.2,134.3,62.2z M134.3,38.8
							c-8.6,0-15.7,4.8-15.7,10.6s7,10.6,15.7,10.6c8.6,0,15.7-4.8,15.7-10.6S142.9,38.8,134.3,38.8z"/>
					</g>
					<g>
						<ellipse class="st0" cx="134.1" cy="48.3" rx="8.9" ry="4.5"/>
						<path d="M134.1,53.6c-5.5,0-9.7-2.3-9.7-5.3c0-3,4.3-5.3,9.7-5.3c5.5,0,9.7,2.3,9.7,5.3C143.9,51.3,139.6,53.6,134.1,53.6z
							 M134.1,44.6c-4.8,0-8.1,1.9-8.1,3.7c0,1.7,3.3,3.7,8.1,3.7c4.8,0,8.1-1.9,8.1-3.7C142.2,46.5,138.9,44.6,134.1,44.6z"/>
					</g>
				</g>
			</g>
			<g>
				<g>
					<path class="st2" d="M127.4,49.3c1.2-1.2,2.5-2.1,4.1-2.7c-0.3-0.4-0.6-0.8-0.9-1.2c-1,1.3-1.7,2.7-2.3,4.3
						c-0.2,0.6,0.4,1.2,1,1c2.6-0.9,4.1-3.9,6.9-4.3c-0.3-0.5-0.5-0.9-0.8-1.4c-1.8,1.7-3.7,3.2-4.2,5.8c-0.1,0.7,0.6,1.3,1.2,0.9
						c2.3-1.3,4.2-3.3,6.6-4.3c-0.4-0.3-0.7-0.5-1.1-0.8c0,0.5-1.9,1.8-2.2,2.2c-0.5,0.7-0.8,1.3-1.1,2.2c-0.2,0.7,0.6,1.3,1.2,0.9
						c1.9-0.9,3.7-2,5.5-3.2c-0.4-0.3-0.8-0.6-1.2-0.9c-0.2,0.4-0.4,0.9-0.6,1.3c-0.6,0.9,0.9,1.8,1.4,0.8c0.5-0.8,0.5-0.8,0.7-1.7
						c0.2-0.7-0.6-1.4-1.2-0.9c-1.8,1.2-3.6,2.3-5.5,3.2c0.4,0.3,0.8,0.6,1.2,0.9c0.5-2,3.2-2.9,3.3-4.9c0-0.5-0.6-1-1.1-0.8
						c-2.6,1.1-4.6,3.1-7,4.5c0.4,0.3,0.8,0.6,1.2,0.9c0.5-2.2,2.2-3.6,3.8-5c0.7-0.6-0.1-1.5-0.8-1.4c-3,0.5-4.1,3.4-6.9,4.3
						c0.3,0.3,0.7,0.7,1,1c0.5-1.5,1.2-2.7,2.1-3.9c0.4-0.6-0.3-1.5-0.9-1.2c-1.9,0.7-3.4,1.7-4.8,3.2
						C125.5,48.9,126.7,50.1,127.4,49.3L127.4,49.3z"/>
				</g>
			</g>
			<g>
				<g>
					<path class="st5" d="M119.7,57.1c-0.1,5.8-0.3,11.5-0.4,17.3c0,1,1.4,1.1,1.6,0.2c1.6-5.3,2.7-10.6,3.2-16.1
						c-0.6,0-1.1,0-1.7,0c0.4,6.8,0.7,13.6,1.1,20.4c0.1,0.9,1.4,1.2,1.6,0.2c1.7-6,2-12,2.2-18.2c-0.6,0-1.1,0-1.7,0
						c0,6.2,0.1,12.3,0.1,18.5c0,1.1,1.6,1.1,1.7,0c0.6-5.9,1.1-11.7,1.7-17.6c-0.6,0-1.1,0-1.7,0c0.5,6.2,0.7,12.5,0.6,18.7
						c0,0.9,1.5,1.2,1.6,0.2c1.2-6,1.8-12,2.2-18.1c-0.6,0-1.1,0-1.7,0c0.5,5.9,1,11.8,1.5,17.7c0.1,0.9,1.4,1.2,1.6,0.2
						c1.2-6,1.3-12,1.2-18.1c-0.5,0.1-1.1,0.1-1.6,0.2c1,5.1,1.6,10.2,1.7,15.5c0,1.1,1.5,1,1.7,0c0.7-5.3,1.1-10.7,1.2-16.1
						c-0.6,0-1.1,0-1.7,0c0.3,6.2,0.5,12.4,0.8,18.5c0,0.9,1.3,1.1,1.6,0.2c2-6.1,2.9-12.1,2.9-18.5c-0.5,0.1-1.1,0.1-1.6,0.2
						c1,5.3,1.6,10.5,1.9,15.9c0,1.1,1.6,1.1,1.7,0c0.3-6.1,0.5-12.1,0.8-18.2c-0.6,0-1.1,0-1.7,0c0.7,5.7,1.2,11.5,1.4,17.3
						c0.1,1.1,1.6,1.1,1.7,0c0.7-6.2,1.1-12.5,1.4-18.8c-0.6,0-1.1,0-1.7,0c0.6,5.4,1.1,10.9,1.7,16.3c0.1,1.1,1.6,1.1,1.7,0
						c0.4-5.7,0.9-11.4,1.3-17.1c0.1-1.1-1.6-1.1-1.7,0c-0.4,5.7-0.9,11.4-1.3,17.1c0.6,0,1.1,0,1.7,0c-0.6-5.4-1.1-10.9-1.7-16.3
						c-0.1-1.1-1.6-1.1-1.7,0c-0.3,6.3-0.8,12.5-1.4,18.8c0.6,0,1.1,0,1.7,0c-0.3-5.8-0.7-11.5-1.4-17.3c-0.1-1-1.6-1.1-1.7,0
						c-0.3,6.1-0.5,12.1-0.8,18.2c0.6,0,1.1,0,1.7,0c-0.2-5.5-0.9-10.9-1.9-16.4c-0.2-0.9-1.6-0.7-1.6,0.2c0,6.2-0.9,12.1-2.9,18
						c0.5,0.1,1.1,0.1,1.6,0.2c-0.3-6.2-0.5-12.4-0.8-18.5c0-1.1-1.6-1.1-1.7,0c-0.1,5.4-0.5,10.7-1.2,16.1c0.6,0,1.1,0,1.7,0
						c-0.1-5.4-0.7-10.6-1.7-15.9c-0.2-0.9-1.7-0.7-1.6,0.2c0,6,0,11.8-1.2,17.7c0.5,0.1,1.1,0.1,1.6,0.2c-0.5-5.9-1-11.8-1.5-17.7
						c-0.1-1.1-1.6-1.1-1.7,0c-0.5,5.9-1,11.8-2.2,17.6c0.5,0.1,1.1,0.1,1.6,0.2c0.1-6.2-0.1-12.5-0.6-18.7c-0.1-1.1-1.6-1.1-1.7,0
						c-0.6,5.9-1.1,11.7-1.7,17.6c0.6,0,1.1,0,1.7,0c0-6.2-0.1-12.3-0.1-18.5c0-1.1-1.6-1.1-1.7,0c-0.2,6-0.4,11.9-2.1,17.8
						c0.5,0.1,1.1,0.1,1.6,0.2c-0.4-6.8-0.7-13.6-1.1-20.4c-0.1-1.1-1.6-1.1-1.7,0c-0.5,5.4-1.6,10.5-3.2,15.7
						c0.5,0.1,1.1,0.1,1.6,0.2c0.1-5.8,0.3-11.5,0.4-17.3C121.4,56,119.7,56,119.7,57.1L119.7,57.1z"/>
				</g>
			</g>
		</g>
		<g>
			<g>
				<g>
					<path d="M134.4,83.3c-9.1,0-16.6-5.3-17.7-12.2h-0.1l0-1.1V48.3h2.2l0,21.6c0.4,6.3,7.2,11.2,15.6,11.2
						c8.4,0,15.2-4.9,15.6-11.2l0-0.6v-21h2.2v22.8H152C151,78,143.4,83.3,134.4,83.3z"/>
				</g>
				<g>
					<path d="M134.3,62.2c-9.9,0-17.9-5.8-17.9-12.8s8-12.8,17.9-12.8s17.9,5.8,17.9,12.8S144.2,62.2,134.3,62.2z M134.3,38.8
						c-8.6,0-15.7,4.8-15.7,10.6s7,10.6,15.7,10.6c8.6,0,15.7-4.8,15.7-10.6S142.9,38.8,134.3,38.8z"/>
				</g>
				<g>
					<path d="M134.1,53.6c-5.5,0-9.7-2.3-9.7-5.3c0-3,4.3-5.3,9.7-5.3c5.5,0,9.7,2.3,9.7,5.3C143.9,51.3,139.6,53.6,134.1,53.6z
						 M134.1,44.6c-4.8,0-8.1,1.9-8.1,3.7c0,1.7,3.3,3.7,8.1,3.7c4.8,0,8.1-1.9,8.1-3.7C142.2,46.5,138.9,44.6,134.1,44.6z"/>
				</g>
			</g>
		</g>
		<g>
			<g>
				<g>
					<g>
						<path class="st0" d="M56.4,38.6v21.7h0c0.4,6.8,7.7,12.2,16.7,12.2s16.3-5.4,16.7-12.2h0V38.6"/>
						<path d="M73.1,73.6c-9.1,0-16.6-5.3-17.7-12.2h-0.1l0-1.1V38.6h2.2l0,21.6c0.4,6.3,7.2,11.2,15.6,11.2s15.2-4.9,15.6-11.2
							l0-0.6v-21H91v22.8h-0.2C89.7,68.3,82.2,73.6,73.1,73.6z"/>
					</g>
					<g>
						<ellipse class="st0" cx="73.1" cy="39.7" rx="16.8" ry="11.7"/>
						<path d="M73.1,52.5c-9.9,0-17.9-5.8-17.9-12.8s8-12.8,17.9-12.8S91,32.6,91,39.7S82.9,52.5,73.1,52.5z M73.1,29
							c-8.6,0-15.7,4.8-15.7,10.6s7,10.6,15.7,10.6s15.7-4.8,15.7-10.6S81.7,29,73.1,29z"/>
					</g>
					<g>
						<ellipse class="st0" cx="72.9" cy="38.6" rx="8.9" ry="4.5"/>
						<path d="M72.9,43.9c-5.5,0-9.7-2.3-9.7-5.3c0-3,4.3-5.3,9.7-5.3c5.5,0,9.7,2.3,9.7,5.3C82.6,41.6,78.4,43.9,72.9,43.9z
							 M72.9,34.9c-4.8,0-8.1,1.9-8.1,3.7c0,1.7,3.3,3.7,8.1,3.7c4.8,0,8.1-1.9,8.1-3.7C81,36.8,77.7,34.9,72.9,34.9z"/>
					</g>
				</g>
			</g>
			<g>
				<g>
					<path class="st3" d="M66.2,39.6c1.2-1.2,2.5-2.1,4.1-2.7c-0.3-0.4-0.6-0.8-0.9-1.2c-1,1.3-1.7,2.7-2.3,4.3
						c-0.2,0.6,0.4,1.2,1,1c2.6-0.9,4.1-3.9,6.9-4.3c-0.3-0.5-0.5-0.9-0.8-1.4c-1.8,1.7-3.7,3.2-4.2,5.8c-0.1,0.7,0.6,1.3,1.2,0.9
						c2.3-1.3,4.2-3.3,6.6-4.3c-0.4-0.3-0.7-0.5-1.1-0.8c0,0.5-1.9,1.8-2.2,2.2c-0.5,0.7-0.8,1.3-1.1,2.2c-0.2,0.7,0.6,1.3,1.2,0.9
						c1.9-0.9,3.7-2,5.5-3.2c-0.4-0.3-0.8-0.6-1.2-0.9c-0.2,0.4-0.4,0.9-0.6,1.3c-0.6,0.9,0.9,1.8,1.4,0.8c0.5-0.8,0.5-0.8,0.7-1.7
						c0.2-0.7-0.6-1.4-1.2-0.9c-1.8,1.2-3.6,2.3-5.5,3.2c0.4,0.3,0.8,0.6,1.2,0.9c0.5-2,3.2-2.9,3.3-4.9c0-0.5-0.6-1-1.1-0.8
						c-2.6,1.1-4.6,3.1-7,4.5c0.4,0.3,0.8,0.6,1.2,0.9c0.5-2.2,2.2-3.6,3.8-5c0.7-0.6-0.1-1.5-0.8-1.4c-3,0.5-4.1,3.4-6.9,4.3
						c0.3,0.3,0.7,0.7,1,1c0.5-1.5,1.2-2.7,2.1-3.9c0.4-0.6-0.3-1.5-0.9-1.2C68,36,66.4,36.9,65,38.4C64.3,39.2,65.5,40.3,66.2,39.6
						L66.2,39.6z"/>
				</g>
			</g>
			<g>
				<g>
					<path class="st5" d="M58.5,47.4c-0.1,5.8-0.3,11.5-0.4,17.3c0,1,1.4,1.1,1.6,0.2c1.6-5.3,2.7-10.6,3.2-16.1c-0.6,0-1.1,0-1.7,0
						c0.4,6.8,0.7,13.6,1.1,20.4c0.1,0.9,1.4,1.2,1.6,0.2c1.7-6,2-12,2.2-18.2c-0.6,0-1.1,0-1.7,0c0,6.2,0.1,12.3,0.1,18.5
						c0,1.1,1.6,1.1,1.7,0c0.6-5.9,1.1-11.7,1.7-17.6c-0.6,0-1.1,0-1.7,0c0.5,6.2,0.7,12.5,0.6,18.7c0,0.9,1.5,1.2,1.6,0.2
						c1.2-6,1.8-12,2.2-18.1c-0.6,0-1.1,0-1.7,0c0.5,5.9,1,11.8,1.5,17.7c0.1,0.9,1.4,1.2,1.6,0.2c1.2-6,1.3-12,1.2-18.1
						c-0.5,0.1-1.1,0.1-1.6,0.2c1,5.1,1.6,10.2,1.7,15.5c0,1.1,1.5,1,1.7,0c0.7-5.3,1.1-10.7,1.2-16.1c-0.6,0-1.1,0-1.7,0
						c0.3,6.2,0.5,12.4,0.8,18.5c0,0.9,1.3,1.1,1.6,0.2c2-6.1,2.9-12.1,2.9-18.5c-0.5,0.1-1.1,0.1-1.6,0.2c1,5.3,1.6,10.5,1.9,15.9
						c0,1.1,1.6,1.1,1.7,0c0.3-6.1,0.5-12.1,0.8-18.2c-0.6,0-1.1,0-1.7,0c0.7,5.7,1.2,11.5,1.4,17.3c0.1,1.1,1.6,1.1,1.7,0
						c0.7-6.2,1.1-12.5,1.4-18.8c-0.6,0-1.1,0-1.7,0c0.6,5.4,1.1,10.9,1.7,16.3c0.1,1.1,1.6,1.1,1.7,0c0.4-5.7,0.9-11.4,1.3-17.1
						c0.1-1.1-1.6-1.1-1.7,0c-0.4,5.7-0.9,11.4-1.3,17.1c0.6,0,1.1,0,1.7,0c-0.6-5.4-1.1-10.9-1.7-16.3c-0.1-1.1-1.6-1.1-1.7,0
						c-0.3,6.3-0.8,12.5-1.4,18.8c0.6,0,1.1,0,1.7,0c-0.3-5.8-0.7-11.5-1.4-17.3c-0.1-1-1.6-1.1-1.7,0c-0.3,6.1-0.5,12.1-0.8,18.2
						c0.6,0,1.1,0,1.7,0c-0.2-5.5-0.9-10.9-1.9-16.4c-0.2-0.9-1.6-0.7-1.6,0.2c0,6.2-0.9,12.1-2.9,18c0.5,0.1,1.1,0.1,1.6,0.2
						c-0.3-6.2-0.5-12.4-0.8-18.5c0-1.1-1.6-1.1-1.7,0c-0.1,5.4-0.5,10.7-1.2,16.1c0.6,0,1.1,0,1.7,0c-0.1-5.4-0.7-10.6-1.7-15.9
						c-0.2-0.9-1.7-0.7-1.6,0.2c0,6,0,11.8-1.2,17.7c0.5,0.1,1.1,0.1,1.6,0.2c-0.5-5.9-1-11.8-1.5-17.7c-0.1-1.1-1.6-1.1-1.7,0
						c-0.5,5.9-1,11.8-2.2,17.6c0.5,0.1,1.1,0.1,1.6,0.2c0.1-6.2-0.1-12.5-0.6-18.7c-0.1-1.1-1.6-1.1-1.7,0
						c-0.6,5.9-1.1,11.7-1.7,17.6c0.6,0,1.1,0,1.7,0c0-6.2-0.1-12.3-0.1-18.5c0-1.1-1.6-1.1-1.7,0c-0.2,6-0.4,11.9-2.1,17.8
						c0.5,0.1,1.1,0.1,1.6,0.2c-0.4-6.8-0.7-13.6-1.1-20.4c-0.1-1.1-1.6-1.1-1.7,0c-0.5,5.4-1.6,10.5-3.2,15.7
						c0.5,0.1,1.1,0.1,1.6,0.2c0.1-5.8,0.3-11.5,0.4-17.3C60.2,46.3,58.5,46.3,58.5,47.4L58.5,47.4z"/>
				</g>
			</g>
		</g>
		<g>
			<g>
				<g>
					<path d="M73.1,73.6c-9.1,0-16.6-5.3-17.7-12.2h-0.1l0-1.1V38.6h2.2l0,21.6c0.4,6.3,7.2,11.2,15.6,11.2s15.2-4.9,15.6-11.2
						l0-0.6v-21H91v22.8h-0.2C89.7,68.3,82.2,73.6,73.1,73.6z"/>
				</g>
				<g>
					<path d="M73.1,52.5c-9.9,0-17.9-5.8-17.9-12.8s8-12.8,17.9-12.8S91,32.6,91,39.7S82.9,52.5,73.1,52.5z M73.1,29
						c-8.6,0-15.7,4.8-15.7,10.6s7,10.6,15.7,10.6s15.7-4.8,15.7-10.6S81.7,29,73.1,29z"/>
				</g>
				<g>
					<path d="M72.9,43.9c-5.5,0-9.7-2.3-9.7-5.3c0-3,4.3-5.3,9.7-5.3c5.5,0,9.7,2.3,9.7,5.3C82.6,41.6,78.4,43.9,72.9,43.9z
						 M72.9,34.9c-4.8,0-8.1,1.9-8.1,3.7c0,1.7,3.3,3.7,8.1,3.7c4.8,0,8.1-1.9,8.1-3.7C81,36.8,77.7,34.9,72.9,34.9z"/>
				</g>
			</g>
		</g>
	</g>
	<g>
		<path class="st0" d="M140.4,96.8c-1.5-2.4-3.5-4.1-5.8-5.1c-2.4-1-4.8-1.8-7.2-2.4c1.9,0.3,3.8,0.8,5.7,1.5
			c0.6,0.2,1.7,0.6,2.6-0.4c0.5-0.5,0.9-1.4,0.1-3c-0.5-1-1.1-2.1-1.7-3.1c-1.8-2.7-4.1-4.4-6.9-5.1c-0.5-0.1-1-0.2-1.5-0.4
			c0.7,0.1,1.7,0,2.2-1c0.6-1.1-0.1-2.1-0.6-2.6l-1-1.1c-0.6-0.6-1.2-1.2-1.8-1.8c-2.1-2-4.5-3.1-7.1-3.4c-0.5-0.1-1-0.1-1.5-0.1
			c0.7-0.3,0.9-0.8,1-1.1c0.1-0.4,0.2-1.1-0.7-2c-0.3-0.3-0.5-0.5-0.8-0.6l-1.1-0.7c-1-0.6-2-1.2-3-1.8c-2.7-1.4-5.2-1.9-7.6-1.5
			c-0.9,0.1-1.7,0.3-2.5,0.5c0.5-0.2,1.1-0.7,1.1-1.7c0-0.8-0.5-1.4-1.6-1.8c-0.4-0.1-0.9-0.3-1.4-0.4c-0.6-0.2-1.3-0.4-1.9-0.6
			c-2.6-1-5.3-0.9-8.5,0.5c-0.6,0.2-1.1,0.5-1.6,0.7c0.4-0.3,0.9-0.9,0.6-1.8c-0.1-0.5-0.6-1.2-1.8-1.3c-4.7-0.4-8.5,0.6-11.6,3.1
			c-0.6,0.5-1.2,1-1.7,1.5c0.3-0.5,0.5-1.2-0.1-1.9c-0.8-1-2-0.6-2.4-0.5c-1.7,0.6-3.7,1.4-5.5,2.6c-2.1,1.5-3.8,3.4-5,5.2
			c-0.1-0.1-0.3-0.2-0.3-0.3c-0.3-0.2-1-0.5-2,0.3c-0.4,0.3-0.8,0.6-1.1,1c-2.8,2.8-5.2,6.1-7.2,9.6L49,76.1v1.7l0.7,0.3
			c1.5,0.5,2.8,0.2,4,0l0.7-0.2c1.1-0.2,2.1-0.3,3.1-0.5c-0.3,0.3-0.5,0.6-0.6,1.2c-0.4,4-0.2,7.5,0.6,10.9c0.9,3.8,3.9,6.7,7.3,7.1
			c1.3,0.2,2.6,0.3,3.9,0.5c1.8,0.2,3.5,0.4,5.3,0.6c3.9,0.5,8.4,1.1,12.7,2.2c6.3,1.5,12.9,3.5,19.9,6.1c3.8,1.4,7.2,2.1,10.4,2.1
			c0.5,0,0.9,0,1.4,0c2.8-0.2,5.1-1.5,6.8-4.1c0.3-0.5,0.4-0.9,0.3-1.4c-0.1-0.4-0.4-0.8-0.9-1.1c-0.2-0.1-0.4-0.2-0.6-0.4
			c1.8,0.9,3.9,1.7,6.4,1.7c0.5,0,1.1,0,1.6-0.1c2.1-0.3,4.2-0.5,6.3-1.1c1.1-0.3,1.9-1,2.2-1.9C141.1,98.8,141,97.8,140.4,96.8z"/>
		<g>
			<path class="st1" d="M54.3,72c0,0.4-0.1,0.8-0.1,1.2c0,0.4,0.2,0.7,0.5,0.9c0.4,0.3,0.7,0.5,1.1,0.8c0.3,0.2,0.8,0.2,1.1,0
				c1.5-0.9,8.1-7.7,7.2-8c-1.3-0.5-0.8,5.6-0.3,6.7c0.2,0.5,1,0.6,1.4,0.4c6.1-3.2,10.5-10.5,16.6-14.1c1.2-0.7,0.1-2.5-1.1-1.8
				c-4.9,2.8-11.2,8.3-9.1,14.7c0.2,0.5,0.5,0.7,1,0.8c6.5,0.8,14.8-9.8,20.1-12.2c1.2-0.6,0.2-2.4-1.1-1.8
				c-7,3.2-12.1,6.6-14.1,14.2c-0.3,1.2,1.3,1.8,1.9,0.8c0.7-1.1,13.1-12,13.3-11.3c-1-3.8-3.4,0.1-5.1,1.4
				c-3.7,2.9-4.9,6.6-5.3,11.1c0,0.6,0.7,1.3,1.3,1c6.2-2.6,2.7-0.3,3.5-1.8c-0.6,1,0.9,2.3,1.7,1.3c7.7-9.8-1.3,1.9,0-1.3
				c-0.4,1,1.1,1.8,1.8,1c4.5-5,9.1-8.2,15.6-10.4c1.3-0.4,0.8-2.4-0.6-2c-6.3,1.6-15.3,4.2-15.2,12c0,0.9,1.2,1.4,1.8,0.7
				c1.9-2,19-14.3,9.9-9.3c-1.2,0.7-2.6,1.2-3.7,2.1c-3.7,2.8-5.3,5.7-6.4,10.1c-0.2,1,0.7,1.6,1.5,1.2c1-0.7,2-1.4,2.9-2.1
				c-0.2,0.8,0.7,1.7,1.5,1.2c0-0.4-0.1-0.9-0.1-1.3c-0.8,0.9,0.2,2.2,1.3,1.7c3.9-2,8-3.8,12.2-5.2c5.4-3.1,5.5-3.7,0-1.7
				c-4.1,1.2-7.8,3.7-11.2,6.1c-1.1,0.8-0.1,2.5,1.1,1.8c2.3-1.3,13-7.3,13.8-6.9c-1.9-0.9-9.9,2.7-11.6,4.6
				c-1.2,1.3-2.7,3.1-1.8,4.9c1.7,3.4,9.3,1.4,12,0.9c19.7-3.4,0.8-5.6-6.6-0.2c-1,0.7-0.4,2.2,0.8,1.9c4.5-1.1,9.2-1.7,13.8-1.7
				c5-0.5,5.5-0.7,1.7-0.4c-4.3,0.7-7.8,1.5-11.9,3.2c-1.2,0.5-0.8,2.5,0.6,2c3.9-1.6,8-2.3,12.2-2.2c1.4,0,1.3-2,0-2.1
				c-3.8-0.2-14.4-2.6-16.6,1.8c-0.2,0.4-0.2,0.9,0.2,1.3c6.5,6.9,18.6,6.2,26.8,8.4c1.1,0.3,1.9-1.4,0.8-1.9
				c-5.5-2.3-10.5-3.4-16.4-3.6c-1.3,0-1.3,1.7-0.3,2.1c-0.2-0.1,13.8,4.4,8.7,1.8c-2.8-1.5-3.1-1.2-6.1-1.3c-1,0-1.4,1.5-0.5,2
				c2.8,1.6,5.7,3.1,8.7,4.4c1.2,0.6,2.3-1.2,1.1-1.8c-9.9-4.7-0.8,0.1,1.9,0.5c1.3,0.2,1.8-1.5,0.6-2c-3.1-1.2-6.1-2.4-9.2-3.7
				c2,1.1,4.1,1.2,6.2,0.2c-1.4-2-22.6,0.3-15.8-4.9c1.4-1.1,7.2-0.8,5.5-3.1c-4.1-0.5-5.2,0.3-3.2,2.3c4.7-1.5,9.4-1.8,14.1-0.9
				c1.2,0.1,1.3-1.7,0.3-2.1c-5-1.7-8.7-2.1-14.1-1.9c-1.4,0-9.4,0.3-1.7,0.5c4.1,0.1,8.2-0.3,12.3,0c1.4,0.1,1.3-1.9,0-2.1
				c-2.6-0.3-5.8,0.5-8.3,0.1c-1.4,0.3-2.7,0.7-4.1,1c-6.6-5.1-5-7.2,4.8-6.4c1.3-0.2,1.4-2.1,0-2.1c-4-0.2-8.8-0.2-12.4,1.9
				c-10.6,6.1,8.5-1.5,12.6-2.1c1.2-0.2,0.9-2.2-0.3-2.1c-5.6,0.5-13.9,1.6-17.7,5.7c0.8-0.8-0.2-2.3-1.3-1.7
				c-0.7,0.8-1.4,1.7-2,2.5c0.2-1-0.7-1.6-1.5-1.2c3-5.5,7.2-8.9,12.8-10.1c1.1-0.3,1-2.2-0.3-2.1c-4.1,0.4-4.9,0.3-8.7,2.1
				c-3.2,1.5-11.1,10.6-2.8,2.7c4.3-4.1,6.2-4.6-0.1-2.4c-1.2,0.7-2.4,1.5-3.5,2.3c-3.4,2.9-4,3.4-1.8,1.6c0.5-1.2-1.3-1.7-1.9-0.8
				c-0.1,1.1-0.2,2.2-0.4,3.3c0.5-0.9-0.5-2-1.4-1.4c0.4-5.1,2.6-8.4,6.8-10c1.2-0.7,0.1-2.4-1.1-1.8c-4.6,2.3-8.8,4.6-12.8,7.9
				c-9.2,7.5,11.8-6,5.1-6.1c-1.3,0-2.9,2.6-4.2,2.7c-2.9,4.3-4.5,4.2-4.8-0.5c0.2-3.1-0.3-4.3-1.3-3.4c-2.6-0.4-14.7,17.2-9.4,2.8
				c0.4-1-1.1-1.7-1.8-1c-1.8,1.7-9.3,8.5-9.5,10.1C56.6,70.6,54.5,70.6,54.3,72L54.3,72z"/>
		</g>
		<g>
			<path d="M130.7,102.6c-3.6,0-6.4-1.5-8.5-2.9c-4.1-2.7-8.2-5.6-12.2-8.3c-2.3-1.6-4.5-3.2-6.8-4.8c-0.9-0.6-1.9-1.3-2.9-1.8
				l-0.8,0.3l0.6-0.4c-6.3-3.7-13.4-6.1-21.5-7.4c-4.4-0.7-8.1-1-11.4-1c-4.2,0-8.4,0.7-12.6,1.5l-0.7,0.2c-1.2,0.3-2.6,0.5-4,0
				L49,77.6v-1.7l0.1-0.2c2-3.5,4.4-6.8,7.2-9.6c0.3-0.3,0.7-0.7,1.1-1c1-0.8,1.7-0.4,2-0.3c0.1,0.1,0.2,0.1,0.3,0.3
				c1.2-1.8,2.8-3.7,5-5.2c1.8-1.3,3.8-2,5.5-2.6c0.4-0.2,1.6-0.6,2.4,0.5c0.6,0.7,0.4,1.5,0.1,1.9c0.6-0.5,1.2-1,1.7-1.5
				c3.1-2.5,6.9-3.5,11.6-3.1c1.2,0.1,1.6,0.8,1.8,1.3c0.2,0.9-0.2,1.5-0.6,1.8c0.5-0.3,1.1-0.5,1.6-0.7c3.2-1.3,5.9-1.5,8.5-0.5
				c0.6,0.2,1.3,0.4,1.9,0.6c0.5,0.1,0.9,0.3,1.4,0.4c1,0.3,1.5,0.9,1.6,1.8c0,1-0.6,1.4-1.1,1.7c0.8-0.2,1.7-0.4,2.5-0.5
				c2.4-0.3,4.9,0.2,7.6,1.5c1,0.5,2,1.1,3,1.8l1.1,0.7c0.3,0.2,0.6,0.4,0.8,0.6c0.8,0.8,0.8,1.6,0.7,2c-0.1,0.3-0.3,0.8-1,1.1
				c0.5,0,1,0,1.5,0.1c2.6,0.3,5,1.4,7.1,3.4c0.6,0.6,1.2,1.2,1.8,1.8l1,1.1c0.5,0.6,1.2,1.5,0.6,2.6c-0.6,1.1-1.6,1.1-2.2,1
				c0.5,0.1,1,0.2,1.5,0.4c2.8,0.7,5.1,2.5,6.9,5.1c0.7,1,1.2,2.1,1.7,3.1c0.8,1.6,0.4,2.5-0.1,3c-0.9,1-2.1,0.6-2.6,0.4
				c-1.9-0.7-3.8-1.2-5.7-1.5c2.3,0.6,4.7,1.4,7.2,2.4c2.4,1,4.3,2.7,5.8,5.1c0.6,0.9,0.7,2,0.4,2.9c-0.3,0.9-1.1,1.6-2.2,1.9
				c-2.1,0.6-4.2,0.9-6.3,1.1C131.7,102.6,131.2,102.6,130.7,102.6z M111.9,90.2c3.7,2.6,7.6,5.3,11.4,7.8c3.3,2.1,5.8,2.8,8.7,2.5
				c2.2-0.3,4.1-0.5,6-1.1c0.4-0.1,0.7-0.3,0.8-0.6c0.1-0.3,0-0.6-0.2-1c-1.3-2.1-2.9-3.4-4.8-4.2c-6.4-2.6-12.3-3.7-18.1-3.4
				c-0.4,0-0.7,0-1,0L111.9,90.2z M102.9,83.9c0.5,0.3,1,0.6,1.4,1c2.2,1.5,4.3,3,6.5,4.5l3-1.3c1.9-0.8,4-1.2,6.7-1.4
				c4.6-0.3,9.1,0.4,13.3,1.9c0.2,0.1,0.4,0.1,0.5,0.2c0,0-0.1-0.2-0.2-0.4c-0.6-1.2-1.1-2.2-1.7-3.1c-1.5-2.3-3.4-3.7-5.7-4.3
				c-4.8-1.3-9.7-1.2-14.9,0c-1.4,0.3-2.8,0.8-4.2,1.3L102.9,83.9z M67.1,74.2c3.5,0,7.2,0.3,11.7,1c8.8,1.4,16.3,4,23.1,8.1
				l3.1-2.2c5.4-3.9,11.4-5.6,17.9-4.9c0.5,0.1,1.1,0.1,1.6,0.2c0.4,0.1,0.8,0.1,1.2,0.2c0.1,0,0.2,0,0.2,0c0,0-0.1-0.1-0.1-0.1
				l0.5-1l-0.8,0.7l-0.8-0.8c-0.5-0.6-1.1-1.2-1.7-1.7c-1.8-1.7-3.8-2.6-5.9-2.8c-2.9-0.3-5.8,0.2-7.9,0.6c-3.1,0.6-6.1,1.8-9.3,3.5
				c-0.4,0.2-0.8,0.4-1.3,0.6l-2.3,1.1l0.2-1.9c0.1-0.8,0.6-1.2,0.8-1.4c4.1-3.6,9-5.7,14.6-6.3l0.9-0.1c0.5,0,1-0.1,1.6-0.2
				c0,0-0.1-0.1-0.1-0.1l-1.1-0.7c-1-0.6-1.9-1.2-2.9-1.7c-2.3-1.2-4.3-1.6-6.3-1.3c-5.4,0.8-10.4,3.1-14.7,7.1
				c-0.4,0.3-0.7,0.6-1.1,1l-2.3,2L85.8,71c0-0.8,0.3-1.3,0.5-1.6c2-2.7,4.3-4.9,7-6.6c1.9-1.2,3.9-2,5.9-2.8l0.3-0.1
				c-0.3-0.1-0.5-0.1-0.7-0.2c-0.7-0.2-1.4-0.4-2.1-0.7c-2.1-0.8-4.2-0.7-7,0.4c-4.7,1.9-8.6,4.9-12.1,9.2c-0.4,0.5-0.7,0.9-1.4,1.2
				l-1.5,0.7v-1.6c0-0.2,0-0.5,0.1-0.7c0.1-0.3,0.2-0.6,0.3-0.8c1.3-2.5,3-4.8,5.3-6.9c1.2-1.1,2.6-2,4-2.9c0.2-0.1,0.4-0.3,0.6-0.4
				c-3.8-0.2-6.7,0.7-9.2,2.7c-2.8,2.2-5.3,4.9-7.6,8c-0.2,0.3-0.5,0.6-0.7,0.9l-1,1.2l-1.6-1l0.4-1.4c0.2-0.4,0.3-0.7,0.5-1.1
				c1.2-2.6,2.9-4.9,4.5-7.1c-1.7,0.6-3.1,1.2-4.4,2.1c-2.8,1.9-4.6,4.7-5.8,7L59.8,69c-0.4,0.7-0.7,1.4-1.3,2l-2.2,2.3l0.3-3.1
				c0.1-0.4,0.2-0.9,0.3-1.4l0.2-0.7c-2.3,2.4-4.3,5.1-5.9,8c0.7,0,1.3-0.1,2-0.3l0.8-0.2C58.4,74.9,62.7,74.2,67.1,74.2
				C67.1,74.2,67.1,74.2,67.1,74.2z"/>
			<path d="M117.3,107.8c-3.2,0-6.7-0.7-10.4-2.1c-7.1-2.6-13.6-4.6-19.9-6.1c-4.4-1-8.9-1.7-12.7-2.2c-1.8-0.2-3.5-0.4-5.3-0.6
				c-1.3-0.2-2.6-0.3-3.9-0.5c-3.5-0.4-6.5-3.3-7.3-7.1c-0.8-3.3-0.9-6.9-0.6-10.9c0.1-1.5,1.5-1.8,2-1.8c2.4-0.4,4.8-0.6,8.1-0.6h0
				c10.7,0.3,20.4,2.5,28.9,6.6c3.5,1.7,7,3.8,10.7,6.6c4.5,3.4,9.5,6.7,16.1,11c0.6,0.4,1.2,0.8,1.9,1.1c0.5,0.3,0.8,0.6,0.9,1.1
				c0.1,0.4,0,0.9-0.3,1.4c-1.7,2.5-4,3.9-6.8,4.1C118.2,107.8,117.7,107.8,117.3,107.8z M67.2,78.1c-3.2,0-5.5,0.2-7.7,0.5
				c-0.2,0-0.4,0.1-0.4,0.1c-0.2,3.6-0.1,7,0.6,10.1c0.7,2.9,2.9,5.2,5.5,5.5c1.3,0.2,2.6,0.3,3.9,0.5c1.8,0.2,3.6,0.4,5.3,0.6
				c3.9,0.5,8.5,1.2,13,2.2c6.4,1.5,13,3.5,20.2,6.2c4.1,1.5,7.6,2.1,11,1.9c2-0.1,3.6-1,4.9-2.7c-0.6-0.3-1.1-0.6-1.6-1
				c-6.6-4.3-11.6-7.7-16.2-11.1c-3.6-2.7-7-4.8-10.4-6.4C87,80.5,77.6,78.4,67.2,78.1z"/>
		</g>
	</g>
</g>
</svg>
