<?xml version="1.0" encoding="UTF-8" ?>
<!DOCTYPE svg PUBLIC "-//W3C//DTD SVG 1.1//EN" "http://www.w3.org/Graphics/SVG/1.1/DTD/svg11.dtd">
<svg width="94px" height="94px" viewBox="0 0 94 94" version="1.1" xmlns="http://www.w3.org/2000/svg">
<g id="#e41301ff">
<path fill="#e41301" opacity="1.00" d=" M 23.49 19.56 C 27.07 13.47 34.39 10.96 41.09 10.52 C 48.36 10.17 56.05 10.83 62.48 14.49 C 67.41 17.29 70.12 23.25 68.87 28.81 C 76.84 29.37 86.51 30.35 91.28 37.70 C 93.09 40.71 94.25 46.49 90.11 48.06 C 77.62 54.44 62.07 54.58 49.44 48.50 C 49.72 54.36 49.72 60.23 49.90 66.09 C 49.81 68.98 51.63 71.56 54.12 72.88 C 61.95 77.02 71.48 77.89 79.87 74.97 C 82.87 73.90 85.74 71.75 86.68 68.58 C 88.34 63.53 86.76 58.10 87.93 53.00 C 89.63 50.87 93.80 52.10 93.36 55.04 C 93.53 60.50 93.18 66.13 91.55 71.37 C 87.87 79.51 78.29 82.80 69.96 83.38 C 61.40 83.43 51.98 81.04 46.47 73.99 C 41.33 80.90 32.29 83.62 23.98 83.39 C 16.69 82.84 8.83 80.79 3.84 75.07 C 0.20 70.94 0.82 65.07 0.60 59.97 C 0.73 53.07 0.27 45.96 2.24 39.27 C 5.99 31.04 16.01 28.71 24.27 28.79 C 22.03 26.23 21.73 22.47 23.49 19.56 M 27.84 20.86 C 25.86 22.99 27.77 25.93 29.84 27.11 C 35.32 30.29 41.73 32.06 48.09 31.64 C 54.61 31.45 60.50 28.06 65.15 23.68 C 62.43 16.96 54.57 15.48 48.12 15.29 C 41.16 14.91 32.60 14.83 27.84 20.86 M 11.67 35.77 C 8.71 37.08 6.26 39.76 6.01 43.09 C 7.45 45.12 10.00 45.82 12.19 46.71 C 19.95 49.58 29.01 50.43 36.61 46.65 C 37.87 46.26 39.59 44.67 40.69 46.22 C 42.68 47.56 40.85 49.70 39.28 50.29 C 28.98 55.66 16.45 53.95 6.39 48.84 C 6.56 54.90 5.90 60.97 6.23 67.04 C 6.32 70.09 8.67 72.52 11.32 73.71 C 19.62 77.48 29.69 77.98 37.94 73.84 C 41.63 72.03 43.91 68.12 43.89 64.04 C 43.99 57.02 43.51 50.00 43.40 42.98 C 43.40 38.53 39.17 35.71 35.25 34.82 C 27.56 33.02 19.02 32.35 11.67 35.77 M 49.16 42.92 C 51.62 44.86 54.37 46.49 57.44 47.25 C 67.99 49.98 79.68 49.24 89.29 43.85 C 88.37 41.05 87.15 38.03 84.31 36.67 C 78.40 33.69 71.54 33.44 65.04 33.52 C 58.63 33.64 51.34 36.27 49.16 42.92 M 44.80 36.08 C 45.11 36.56 45.72 37.53 46.03 38.01 C 47.33 38.04 47.97 37.39 47.94 36.06 C 47.47 34.81 45.32 34.92 44.80 36.08 Z" />
<path fill="#e41301" opacity="1.00" d=" M 36.05 22.83 C 36.29 19.00 41.11 19.82 43.28 17.76 C 46.74 17.48 50.58 17.24 53.60 19.28 C 55.40 20.42 56.46 23.03 54.90 24.82 C 52.55 27.72 48.46 28.14 44.98 28.08 C 41.48 27.86 37.10 26.65 36.05 22.83 M 38.85 22.11 C 42.61 25.01 47.94 24.86 52.10 22.97 C 49.52 19.65 43.68 23.18 41.90 19.63 C 40.89 20.47 39.88 21.29 38.85 22.11 Z" />
<path fill="#e41301" opacity="1.00" d=" M 21.03 35.91 C 25.45 35.61 31.42 34.47 34.32 38.77 C 35.92 40.77 34.13 43.25 32.33 44.34 C 29.23 46.16 25.42 46.05 21.97 45.66 C 18.96 45.27 15.47 43.30 15.30 39.93 C 16.00 38.05 18.00 37.53 19.69 36.93 C 19.55 37.92 19.29 39.92 19.16 40.92 C 22.91 42.66 27.47 42.59 31.24 40.93 C 28.81 38.07 24.41 39.53 21.12 38.92 C 21.10 38.17 21.05 36.66 21.03 35.91 Z" />
<path fill="#e41301" opacity="1.00" d=" M 64.32 36.47 C 67.64 35.11 71.41 35.28 74.85 36.02 C 77.44 36.59 79.89 39.67 78.28 42.24 C 76.09 45.68 71.53 45.92 67.87 45.73 C 64.48 45.61 60.44 44.33 59.15 40.86 C 58.75 37.95 62.34 37.39 64.32 36.47 M 61.91 40.00 C 65.72 42.81 70.75 42.39 75.02 41.00 C 72.82 37.10 66.83 41.21 64.91 37.62 C 63.91 38.43 62.91 39.22 61.91 40.00 Z" />
</g>
</svg>
