<svg xmlns="http://www.w3.org/2000/svg" width="113" height="113" viewBox="0 0 512.09 512.07"><g id="Слой_2" data-name="Слой 2"><g id="Слой_1-2" data-name="Слой 1"><g id="Page-1"><g id="_006---Silly" data-name="006---Silly"><path id="Shape" d="M204.83,401.13A34.14,34.14,0,1,0,239,435.27,34.13,34.13,0,0,0,204.83,401.13Zm0,51.2a17.07,17.07,0,1,1,17.07-17.06A17.06,17.06,0,0,1,204.83,452.33Z"/><path id="Shape-2" data-name="Shape" d="M179.23,367a25.6,25.6,0,1,0-25.6,25.6A25.6,25.6,0,0,0,179.23,367Zm-25.6,8.53a8.53,8.53,0,1,1,8.54-8.53A8.53,8.53,0,0,1,153.63,375.53Z"/><path id="Shape-3" data-name="Shape" d="M456.31,91.93a25.08,25.08,0,0,1,16.07-6.64A43.27,43.27,0,0,0,511.44,50a42.56,42.56,0,0,0-75.88-33,43,43,0,0,0-8.74,22.72,25.39,25.39,0,0,1-6.65,16.15L407.71,68.25C364.49,27.31,311.5.07,256,.07c-66.17,0-118.41,35.5-152.16,67.7l-12-11.95a25.29,25.29,0,0,1-6.65-16.13,43,43,0,0,0-8.76-22.76A42.56,42.56,0,1,0,16.6,76.31a43,43,0,0,0,23.09,9,25.12,25.12,0,0,1,16.07,6.64l13.95,13.95C26.62,161.88,0,231.83,0,290.2,0,420.28,125,512.07,256,512.07c133.4,0,256-93.4,256-221.87,0-60.59-27.09-128.85-70-184ZM432.24,67.86a41.66,41.66,0,0,0,11.59-26.94,25.62,25.62,0,0,1,5.35-13.66,25.1,25.1,0,0,1,15.51-9.67A25.65,25.65,0,0,1,494.6,47.22a26.21,26.21,0,0,1-23.46,21.09,41.49,41.49,0,0,0-26.9,11.59L431.16,93q-5.55-6.45-11.39-12.61Zm-391.32.4A25.57,25.57,0,0,1,27,62.79a25.29,25.29,0,0,1-9.55-15.61A25.65,25.65,0,0,1,47.38,17.54a25.21,25.21,0,0,1,15.51,9.67,25.69,25.69,0,0,1,5.34,13.71,41.72,41.72,0,0,0,11.6,26.94L91.9,79.93q-5.7,6-11.37,12.63L67.82,79.86a41.5,41.5,0,0,0-26.9-11.6ZM56.81,403.08a42.49,42.49,0,0,1,56.93,51.53,224.1,224.1,0,0,1-56.93-51.53Zm341.52,51.53a42.49,42.49,0,0,1,56.93-51.52,224.07,224.07,0,0,1-56.93,51.52Zm67-65.71a59.58,59.58,0,0,0-82,74.53,272.11,272.11,0,0,1-254.57,0,59.59,59.59,0,0,0-82-74.53A181.22,181.22,0,0,1,17.1,290.2C17.1,169.88,129.81,17.13,256,17.13,381.93,17.13,495,168.82,495,290.2a181.24,181.24,0,0,1-29.65,98.67Z"/><path id="Shape-4" data-name="Shape" d="M145.1,247.53A59.73,59.73,0,1,0,85.37,187.8,59.73,59.73,0,0,0,145.1,247.53Zm0-102.4a42.67,42.67,0,1,1-42.67,42.67A42.68,42.68,0,0,1,145.1,145.13Z"/><path id="Shape-5" data-name="Shape" d="M145.1,204.87a25.6,25.6,0,1,0-25.6-25.6A25.6,25.6,0,0,0,145.1,204.87Zm0-34.14a8.54,8.54,0,1,1-8.53,8.54A8.53,8.53,0,0,1,145.1,170.73Z"/><path id="Shape-6" data-name="Shape" d="M367,128.07A59.73,59.73,0,1,0,426.7,187.8,59.74,59.74,0,0,0,367,128.07Zm0,102.4a42.67,42.67,0,1,1,42.66-42.67A42.67,42.67,0,0,1,367,230.47Z"/><path id="Shape-7" data-name="Shape" d="M367,153.67a25.6,25.6,0,1,0,25.6,25.6A25.6,25.6,0,0,0,367,153.67Zm0,34.13a8.54,8.54,0,1,1,8.53-8.53A8.53,8.53,0,0,1,367,187.8Z"/><path id="Shape-8" data-name="Shape" d="M256,156.46A59.74,59.74,0,1,0,196.3,96.72,59.74,59.74,0,0,0,256,156.46Zm0-102.4a42.67,42.67,0,1,1-42.66,42.66A42.66,42.66,0,0,1,256,54.06Z"/><path id="Shape-9" data-name="Shape" d="M256,113.79a25.6,25.6,0,1,0-25.6-25.6A25.6,25.6,0,0,0,256,113.79Zm0-34.13a8.53,8.53,0,1,1-8.53,8.53A8.53,8.53,0,0,1,256,79.66Z"/><path id="Shape-10" data-name="Shape" d="M364.7,310.13A884.13,884.13,0,0,0,256,301.52a884.13,884.13,0,0,0-108.66,8.61,52.46,52.46,0,0,1-62.1-44,8.54,8.54,0,0,0-16.88,2.56,68.73,68.73,0,0,0,81.27,58.38c42.67-5.8,77.18-7.62,94.42-8.19l32.11,73.73a42.67,42.67,0,1,0,78.21-34l-14.93-34.33q11,1.25,22.93,2.84a95.11,95.11,0,0,0,13,.91,68.26,68.26,0,0,0,68.32-59.29,8.53,8.53,0,0,0-16.87-2.56,52.44,52.44,0,0,1-62.1,44Zm-26,55.16a25.6,25.6,0,1,1-46.87,20.48L262.64,318.7c9.85.23,30.25,1,57.35,3.5Z"/><circle id="Oval" cx="238.97" cy="247.53" r="8.53"/><circle id="Oval-2" data-name="Oval" cx="273.1" cy="247.53" r="8.53"/></g></g></g></g></svg>