<svg width="47" height="28" xmlns="http://www.w3.org/2000/svg" xmlns:xlink="http://www.w3.org/1999/xlink" viewBox="0 0 512 318.86"><defs><clipPath id="clip-path" transform="translate(0 0)"><rect width="512" height="318.86" style="fill:none"/></clipPath></defs><title>icon-mark-01</title><g id="Слой_2" data-name="Слой 2"><g id="Слой_1-2" data-name="Слой 1"><g style="clip-path:url(#clip-path)"><path d="M511.31,109.24a15.63,15.63,0,0,0-14.06-14.06c-4.17-.39-102.84-9.1-160.31,48.36a146.47,146.47,0,0,0-28.8,41.81C296.62,138.17,276.12,99,248,70.88,213.3,36.2,161.9,13.13,99.34,4.16,52.79-2.52,16.54.82,15,1A15.61,15.61,0,0,0,1,15c-.14,1.52-3.48,37.76,3.2,84.32,9,62.56,32,114,66.72,148.64S157,305.74,219.53,314.71a417.64,417.64,0,0,0,58.58,4.15c13.62,0,22.73-.69,25.14-.9,2.06.18,8.33.64,17.47.64,32,0,98.84-5.67,142.23-49.05,57.46-57.46,48.76-156.14,48.36-160.31" transform="translate(0 0)" style="fill:#bffb32"/><path d="M415.84,195.51a15.61,15.61,0,0,0-22.08,0L308.1,281.17,175.33,148.4a15.61,15.61,0,0,0-22.08,22.07L296.18,313.4a15.58,15.58,0,0,0,11,4.58c.29,0,.59,0,.88,0s.59,0,.88,0a15.56,15.56,0,0,0,11-4.58l95.82-95.82a15.6,15.6,0,0,0,0-22.07" transform="translate(0 0)" style="fill:#8cdc52"/><path d="M497.25,95.18c-4.17-.39-102.85-9.1-160.31,48.36a146.47,146.47,0,0,0-28.8,41.81c-.15-.62-.31-1.24-.47-1.86V318.26c3.13.17,7.57.34,13.05.34,32,0,98.84-5.67,142.23-49.05,57.46-57.47,48.75-156.14,48.36-160.31a15.62,15.62,0,0,0-14.06-14.06" transform="translate(0 0)" style="fill:#8cdc52"/><path d="M393.77,195.51,308.1,281.17l-.42-.42V318l.42,0c.29,0,.59.05.88.05a15.56,15.56,0,0,0,11-4.58l95.82-95.82a15.61,15.61,0,0,0-22.07-22.07" transform="translate(0 0)" style="fill:#5dc378"/></g></g></g></svg>