<?xml version="1.0" encoding="UTF-8" ?>
<!DOCTYPE svg PUBLIC "-//W3C//DTD SVG 1.1//EN" "http://www.w3.org/Graphics/SVG/1.1/DTD/svg11.dtd">
<svg width="51px" height="45px" viewBox="0 0 51 45" version="1.1" xmlns="http://www.w3.org/2000/svg">
<g id="#ffffffff">
<path fill="#000" opacity="1.00" d=" M 16.43 1.76 C 25.60 -0.79 36.06 0.55 43.81 6.24 C 47.42 8.87 50.34 13.34 49.34 17.97 C 48.63 19.66 46.55 19.50 45.04 19.57 C 31.74 19.54 18.43 19.60 5.12 19.55 C 3.09 19.80 1.03 18.19 1.46 16.01 C 1.90 8.20 9.72 3.73 16.43 1.76 M 12.39 9.50 C 10.88 10.61 9.92 13.03 11.25 14.63 C 13.47 15.61 15.47 13.06 15.57 11.03 C 16.05 9.12 13.57 8.22 12.39 9.50 M 24.22 9.26 C 23.02 11.06 23.10 14.06 25.09 15.29 C 29.16 15.48 27.78 6.22 24.22 9.26 M 36.06 9.18 C 34.46 11.12 36.14 13.98 38.14 14.87 C 42.62 15.11 39.48 7.36 36.06 9.18 Z" />
<path fill="#f86a0c" opacity="1.00" d=" M 2.23 23.32 C 16.84 22.99 31.48 23.30 46.10 23.17 C 47.41 23.32 49.16 22.86 50.06 24.11 C 51.05 25.94 50.81 29.72 47.94 29.41 C 33.63 29.49 19.32 29.39 5.01 29.46 C 3.49 29.36 1.30 29.84 0.61 27.99 C 0.39 26.40 0.08 23.69 2.23 23.32 Z" />
<path fill="#000" opacity="1.00" d=" M 3.16 33.16 C 16.73 32.48 30.38 33.08 43.97 32.86 C 45.88 32.94 48.87 32.58 49.40 35.05 C 50.34 38.67 47.55 42.09 44.17 43.02 C 36.67 45.24 28.74 44.18 21.04 44.44 C 15.43 44.26 9.24 44.99 4.22 41.98 C 1.54 40.28 -0.09 34.93 3.16 33.16 Z" />
</g>
</svg>
