<?xml version="1.0" encoding="UTF-8" ?>
<!DOCTYPE svg PUBLIC "-//W3C//DTD SVG 1.1//EN" "http://www.w3.org/Graphics/SVG/1.1/DTD/svg11.dtd">
<svg width="53px" height="38px" viewBox="0 0 53 38" version="1.1" xmlns="http://www.w3.org/2000/svg">
<g id="#ffffffff">
<path fill="#000" opacity="1.00" d=" M 25.65 0.00 L 26.09 0.00 C 31.13 0.40 36.17 1.82 40.41 4.61 C 42.17 5.83 44.07 7.54 43.95 9.89 C 44.09 13.61 44.06 17.34 43.97 21.06 C 44.10 24.21 41.39 26.40 39.00 27.94 C 33.78 30.97 27.45 32.95 21.43 31.36 C 17.14 30.24 12.75 28.52 9.67 25.20 C 7.04 22.47 8.28 18.37 7.97 14.98 C 8.17 11.97 7.20 8.20 9.88 5.99 C 14.20 2.19 20.03 0.59 25.65 0.00 M 21.45 2.61 C 17.97 3.62 14.21 4.93 11.92 7.91 C 10.78 9.31 11.24 11.29 12.32 12.57 C 19.43 20.33 33.21 20.12 39.96 12.02 C 41.76 9.89 40.17 7.07 38.12 5.84 C 33.30 2.68 27.13 0.98 21.45 2.61 Z" />
<path fill="#f86a0c" opacity="1.00" d=" M 22.30 6.44 C 26.27 5.44 31.16 5.67 34.24 8.66 C 36.12 10.63 34.06 13.24 32.00 13.92 C 27.76 15.61 22.13 15.60 18.69 12.26 C 16.52 9.62 19.91 7.06 22.30 6.44 Z" />
<path fill="#000" opacity="1.00" d=" M 4.44 38.00 C 1.55 39.63 -1.52 34.74 1.97 34.10 C 16.60 33.69 31.27 34.09 45.92 33.91 C 47.97 34.09 50.42 33.41 52.08 34.96 C 52.17 36.44 51.53 37.45 50.14 38.00 L 4.44 38.00 Z" />
</g>
</svg>
