<?xml version="1.0" encoding="UTF-8" ?>
<!DOCTYPE svg PUBLIC "-//W3C//DTD SVG 1.1//EN" "http://www.w3.org/Graphics/SVG/1.1/DTD/svg11.dtd">
<svg width="146px" height="98px" viewBox="0 0 146 98" version="1.1" xmlns="http://www.w3.org/2000/svg">
<g id="#000000ff">
<path fill="#000000" opacity="1.00" d=" M 111.96 0.00 L 112.83 0.00 C 116.88 0.90 119.19 5.07 118.67 9.03 C 117.44 21.37 112.20 33.46 114.25 46.02 C 122.22 36.89 117.75 23.17 124.29 13.37 C 125.65 11.41 128.39 10.34 130.62 11.42 C 133.59 12.97 135.34 16.52 134.61 19.82 C 133.63 25.22 130.85 30.08 129.60 35.41 C 128.06 42.07 126.87 48.84 126.40 55.67 C 129.97 51.07 130.76 44.04 136.57 41.46 C 139.94 39.57 145.39 41.70 145.14 45.98 C 144.41 51.00 140.22 54.45 137.52 58.47 C 132.81 64.47 131.24 72.31 126.22 78.10 C 122.99 82.10 118.64 84.96 114.15 87.34 C 113.55 90.57 113.82 94.20 111.97 97.04 C 105.57 96.54 98.92 96.15 92.79 94.23 C 91.83 91.23 93.12 87.92 93.29 84.83 C 91.40 81.40 89.51 77.87 88.75 73.98 C 87.02 66.07 88.42 57.97 88.85 50.00 C 89.25 43.96 87.48 38.01 87.97 31.98 C 88.29 27.97 88.83 23.98 88.70 19.96 C 88.75 16.93 88.36 13.17 91.16 11.17 C 93.99 8.42 98.79 10.75 99.83 14.14 C 101.71 19.67 99.57 25.40 98.98 30.96 C 98.37 35.55 99.35 40.17 100.99 44.45 C 106.03 39.02 103.29 31.35 104.69 24.80 C 105.88 18.92 106.33 12.96 106.52 6.97 C 106.55 3.68 108.82 0.88 111.96 0.00 M 109.56 11.01 C 109.82 18.11 107.24 24.94 107.39 32.03 C 107.41 36.34 107.76 41.21 104.83 44.75 C 103.44 46.76 100.00 47.91 98.32 45.63 C 96.04 42.24 95.76 37.95 95.56 33.97 C 95.27 27.67 98.63 21.43 96.73 15.18 C 96.15 13.06 92.60 12.27 92.22 14.93 C 91.61 19.87 92.29 24.91 91.40 29.85 C 90.32 36.26 92.44 42.60 92.15 49.01 C 91.86 57.33 90.07 65.79 92.08 74.03 C 92.89 77.64 94.78 80.86 96.71 83.97 C 96.38 86.60 96.03 89.22 95.68 91.85 C 100.44 92.49 105.20 93.14 109.96 93.80 C 110.36 90.92 110.58 88.01 111.31 85.19 C 115.15 82.81 119.44 80.94 122.44 77.41 C 127.81 72.17 129.37 64.52 133.53 58.47 C 136.49 53.92 140.72 50.14 142.41 44.84 C 140.83 44.60 139.08 43.58 137.57 44.61 C 133.38 46.78 133.06 52.00 130.52 55.49 C 125.24 61.45 118.06 65.22 110.92 68.48 C 110.52 68.10 109.74 67.34 109.35 66.96 C 112.48 62.65 118.52 61.87 122.52 58.46 C 124.06 47.11 125.17 35.49 129.76 24.87 C 130.78 21.71 133.06 17.27 129.85 14.66 C 128.05 13.18 126.46 15.60 125.88 17.07 C 121.92 26.42 124.08 37.59 118.36 46.34 C 116.54 49.64 111.05 48.98 110.78 44.95 C 109.31 32.74 114.04 20.94 115.45 8.95 C 115.97 6.21 114.13 4.04 111.96 2.67 C 109.98 5.03 109.37 8.01 109.56 11.01 Z" />
<path fill="#000000" opacity="1.00" d=" M 43.09 10.19 C 45.51 6.44 48.07 1.50 53.04 1.00 C 56.85 0.39 60.50 4.22 59.08 7.99 C 55.20 19.12 41.89 23.92 39.05 35.66 C 50.23 30.09 56.61 18.71 65.38 10.31 C 67.84 7.93 71.68 6.44 74.96 7.97 C 77.15 8.93 78.17 11.55 77.63 13.80 C 77.09 16.73 74.59 18.67 72.42 20.43 C 65.83 25.14 61.40 32.23 54.59 36.68 C 51.43 38.61 49.25 41.68 48.49 45.31 C 52.46 44.10 56.35 42.38 59.48 39.59 C 63.97 35.70 67.19 29.98 73.08 27.99 C 76.49 26.65 81.20 29.08 81.02 33.01 C 80.88 36.44 77.72 38.46 75.27 40.34 C 69.78 44.11 65.72 49.68 59.70 52.72 C 49.78 57.71 43.31 67.43 33.37 72.38 C 29.60 74.40 25.36 75.18 21.16 75.72 C 18.87 77.97 16.70 80.38 14.02 82.19 C 8.90 78.13 4.57 73.16 0.00 68.51 L 0.00 67.38 C 2.02 65.05 4.27 62.93 6.45 60.76 C 5.72 55.93 5.33 50.96 6.42 46.14 C 7.84 38.34 13.40 32.17 15.35 24.55 C 16.84 20.12 17.12 14.96 20.38 11.36 C 23.46 8.37 28.74 11.17 29.31 15.06 C 30.89 21.29 25.76 26.20 24.24 31.85 C 31.35 25.43 38.18 18.46 43.09 10.19 M 51.10 5.11 C 47.38 8.25 45.58 12.97 42.70 16.79 C 37.33 24.10 30.68 30.34 24.29 36.74 C 24.52 41.55 25.96 46.22 26.15 51.03 C 25.85 51.38 25.25 52.07 24.95 52.41 C 22.55 52.31 23.12 49.53 22.56 47.90 C 21.31 41.85 20.76 35.62 21.68 29.49 C 22.38 25.01 26.74 21.79 26.35 17.03 C 26.57 14.84 24.51 13.78 23.02 12.72 C 19.93 17.54 19.40 23.34 17.45 28.61 C 15.15 35.13 10.43 40.68 9.43 47.68 C 8.34 52.36 9.43 57.07 9.85 61.74 C 8.11 64.04 5.90 65.92 3.87 67.96 C 7.26 71.35 10.64 74.74 14.04 78.12 C 15.89 76.28 17.58 74.22 19.76 72.75 C 23.04 71.91 26.53 71.91 29.68 70.51 C 37.47 67.33 43.19 60.92 49.51 55.61 C 54.77 51.02 61.72 48.79 66.44 43.52 C 69.62 39.90 74.09 37.76 77.33 34.24 C 79.05 32.19 75.91 30.10 74.01 31.12 C 70.40 32.46 67.87 35.55 65.35 38.33 C 61.74 42.54 57.06 45.93 51.77 47.70 C 50.16 48.15 48.06 48.58 46.81 47.13 C 45.01 45.12 45.71 42.08 46.89 39.94 C 48.99 36.05 53.10 34.04 56.32 31.24 C 60.71 27.62 63.95 22.82 68.48 19.37 C 70.31 17.88 72.35 16.58 73.78 14.67 C 74.73 13.50 75.07 10.83 72.96 10.67 C 69.89 10.13 67.57 12.61 65.66 14.61 C 58.71 22.28 52.46 30.78 43.97 36.86 C 41.85 38.47 37.95 39.40 36.64 36.35 C 35.17 32.04 38.68 28.16 41.09 24.97 C 45.78 18.75 53.20 14.53 56.00 6.99 C 56.94 4.12 52.66 3.49 51.10 5.11 Z" />
<path fill="#000000" opacity="1.00" d=" M 29.64 40.43 C 28.35 39.24 30.14 37.98 30.69 37.00 C 34.47 41.33 38.98 45.02 42.32 49.73 C 43.39 51.26 44.88 54.22 42.05 54.78 C 40.49 53.32 39.48 51.41 38.18 49.75 C 35.63 46.37 32.11 43.87 29.64 40.43 Z" />
<path fill="#000000" opacity="1.00" d=" M 97.27 53.07 C 103.76 50.62 110.86 53.16 117.52 53.61 C 117.78 54.29 118.31 55.65 118.57 56.33 C 111.51 56.95 104.54 54.28 97.50 55.78 C 97.44 55.10 97.33 53.75 97.27 53.07 Z" />
<path fill="#000000" opacity="1.00" d=" M 21.92 56.01 C 24.49 54.94 25.52 58.80 22.97 59.39 C 21.16 59.08 21.01 57.30 21.92 56.01 Z" />
<path fill="#000000" opacity="1.00" d=" M 105.39 71.35 C 106.40 69.60 109.32 71.46 108.06 72.94 C 107.45 75.31 103.73 73.01 105.39 71.35 Z" />
</g>
<g id="#5dce49ff">
<path fill="#5dce49" opacity="1.00" d=" M 51.10 5.11 C 52.66 3.49 56.94 4.12 56.00 6.99 C 53.20 14.53 45.78 18.75 41.09 24.97 C 38.68 28.16 35.17 32.04 36.64 36.35 C 37.95 39.40 41.85 38.47 43.97 36.86 C 52.46 30.78 58.71 22.28 65.66 14.61 C 67.57 12.61 69.89 10.13 72.96 10.67 C 75.07 10.83 74.73 13.50 73.78 14.67 C 72.35 16.58 70.31 17.88 68.48 19.37 C 63.95 22.82 60.71 27.62 56.32 31.24 C 53.10 34.04 48.99 36.05 46.89 39.94 C 45.71 42.08 45.01 45.12 46.81 47.13 C 48.06 48.58 50.16 48.15 51.77 47.70 C 57.06 45.93 61.74 42.54 65.35 38.33 C 67.87 35.55 70.40 32.46 74.01 31.12 C 75.91 30.10 79.05 32.19 77.33 34.24 C 74.09 37.76 69.62 39.90 66.44 43.52 C 61.72 48.79 54.77 51.02 49.51 55.61 C 43.19 60.92 37.47 67.33 29.68 70.51 C 26.53 71.91 23.04 71.91 19.76 72.75 C 17.58 74.22 15.89 76.28 14.04 78.12 C 10.64 74.74 7.26 71.35 3.87 67.96 C 5.90 65.92 8.11 64.04 9.85 61.74 C 9.43 57.07 8.34 52.36 9.43 47.68 C 10.43 40.68 15.15 35.13 17.45 28.61 C 19.40 23.34 19.93 17.54 23.02 12.72 C 24.51 13.78 26.57 14.84 26.35 17.03 C 26.74 21.79 22.38 25.01 21.68 29.49 C 20.76 35.62 21.31 41.85 22.56 47.90 C 23.12 49.53 22.55 52.31 24.95 52.41 C 25.25 52.07 25.85 51.38 26.15 51.03 C 25.96 46.22 24.52 41.55 24.29 36.74 C 30.68 30.34 37.33 24.10 42.70 16.79 C 45.58 12.97 47.38 8.25 51.10 5.11 M 29.64 40.43 C 32.11 43.87 35.63 46.37 38.18 49.75 C 39.48 51.41 40.49 53.32 42.05 54.78 C 44.88 54.22 43.39 51.26 42.32 49.73 C 38.98 45.02 34.47 41.33 30.69 37.00 C 30.14 37.98 28.35 39.24 29.64 40.43 M 21.92 56.01 C 21.01 57.30 21.16 59.08 22.97 59.39 C 25.52 58.80 24.49 54.94 21.92 56.01 Z" />
<path fill="#5dce49" opacity="1.00" d=" M 109.56 11.01 C 109.37 8.01 109.98 5.03 111.96 2.67 C 114.13 4.04 115.97 6.21 115.45 8.95 C 114.04 20.94 109.31 32.74 110.78 44.95 C 111.05 48.98 116.54 49.64 118.36 46.34 C 124.08 37.59 121.92 26.42 125.88 17.07 C 126.46 15.60 128.05 13.18 129.85 14.66 C 133.06 17.27 130.78 21.71 129.76 24.87 C 125.17 35.49 124.06 47.11 122.52 58.46 C 118.52 61.87 112.48 62.65 109.35 66.96 C 109.74 67.34 110.52 68.10 110.92 68.48 C 118.06 65.22 125.24 61.45 130.52 55.49 C 133.06 52.00 133.38 46.78 137.57 44.61 C 139.08 43.58 140.83 44.60 142.41 44.84 C 140.72 50.14 136.49 53.92 133.53 58.47 C 129.37 64.52 127.81 72.17 122.44 77.41 C 119.44 80.94 115.15 82.81 111.31 85.19 C 110.58 88.01 110.36 90.92 109.96 93.80 C 105.20 93.14 100.44 92.49 95.68 91.85 C 96.03 89.22 96.38 86.60 96.71 83.97 C 94.78 80.86 92.89 77.64 92.08 74.03 C 90.07 65.79 91.86 57.33 92.15 49.01 C 92.44 42.60 90.32 36.26 91.40 29.85 C 92.29 24.91 91.61 19.87 92.22 14.93 C 92.60 12.27 96.15 13.06 96.73 15.18 C 98.63 21.43 95.27 27.67 95.56 33.97 C 95.76 37.95 96.04 42.24 98.32 45.63 C 100.00 47.91 103.44 46.76 104.83 44.75 C 107.76 41.21 107.41 36.34 107.39 32.03 C 107.24 24.94 109.82 18.11 109.56 11.01 M 97.27 53.07 C 97.33 53.75 97.44 55.10 97.50 55.78 C 104.54 54.28 111.51 56.95 118.57 56.33 C 118.31 55.65 117.78 54.29 117.52 53.61 C 110.86 53.16 103.76 50.62 97.27 53.07 M 105.39 71.35 C 103.73 73.01 107.45 75.31 108.06 72.94 C 109.32 71.46 106.40 69.60 105.39 71.35 Z" />
</g>
</svg>
