<svg width="36" height="31" xmlns="http://www.w3.org/2000/svg" viewBox="0 0 496.09 421.29"><title>icon-mark-02</title><g id="Слой_2" data-name="Слой 2"><g id="Layer_1" data-name="Layer 1"><path d="M473.35,26.5a25.11,25.11,0,0,0-35.05,36c.08.08,8.31,9.63,7.52,27.89-.35,8.06-2.75,20-10.44,35.29a102.3,102.3,0,0,1,22,16.24,101.09,101.09,0,0,1,15.4,19.56C487,137.79,495,114.74,496,92.5,497.76,51.52,475.85,28.94,473.35,26.5Z"/><path d="M378.43,144.85c-33.4,0-68.87,16.67-88.23,43.65C191,326.82,90.69,333.91,37.92,333.91c-6,0-11.45-.09-16.16-.09-18.36,0-26.2,1.4-19.25,15.12C19,381.47,94.06,421.29,186.29,421.29c74.29,0,159.69-25.84,234.48-102.15C458.5,280.65,472.43,203.5,434,165.79,419.19,151.31,399.21,144.85,378.43,144.85Z" style="fill:#f24601"/><path d="M64.38,267.55c-1.89-24.42,2.67-79.84,75.48-111,0,0-27,65.38,9.58,98.46,26.57-20.73,45.25-54.59,47.17-87.34C202.12,73.16,136.17,23.45,93.35,1.29A11.52,11.52,0,0,0,77.64,16.42c16.54,35.11,27.68,97.94-43.09,171.06C12.94,209.79,30.55,250.84,64.38,267.55Z" style="fill:#f24601"/></g></g></svg>