<?xml version="1.0" encoding="UTF-8" ?>
<!DOCTYPE svg PUBLIC "-//W3C//DTD SVG 1.1//EN" "http://www.w3.org/Graphics/SVG/1.1/DTD/svg11.dtd">
<svg width="65px" height="40px" viewBox="0 0 65 40" version="1.1" xmlns="http://www.w3.org/2000/svg">
<g id="#ffffffff">
<path fill="#f86a0c" opacity="1.00" d=" M 24.60 0.00 L 33.62 0.00 C 29.75 6.00 27.69 12.96 26.81 20.00 C 23.44 20.00 20.06 20.00 16.68 19.99 C 17.66 12.83 19.91 5.64 24.60 0.00 Z" />
<path fill="#000" opacity="1.00" d=" M 7.08 2.11 C 10.76 -0.22 15.26 0.12 19.43 0.10 C 15.61 6.08 13.51 12.98 12.71 19.99 C 8.68 19.80 3.09 21.23 0.83 16.79 C -1.27 11.30 2.21 4.91 7.08 2.11 Z" />
<path fill="#f86a0c" opacity="1.00" d=" M 30.84 19.97 C 31.75 12.83 34.08 5.75 38.63 0.08 C 42.00 0.27 45.33 0.90 48.53 2.00 C 45.31 7.84 43.58 14.37 42.90 20.98 C 38.92 20.30 34.88 20.02 30.84 19.97 Z" />
<path fill="#000" opacity="1.00" d=" M 52.15 3.82 C 59.89 8.54 65.23 17.31 64.80 26.50 C 64.12 28.82 61.65 27.80 60.25 26.94 C 56.00 24.67 51.44 23.04 46.80 21.79 C 47.39 15.52 49.01 9.31 52.15 3.82 Z" />
<path fill="#000" opacity="1.00" d=" M 4.19 23.84 C 14.45 24.11 24.72 23.77 34.99 24.02 C 44.15 24.33 53.03 27.27 61.04 31.64 C 60.66 36.36 56.80 40.22 51.91 40.00 L 14.86 40.00 C 11.71 39.96 8.08 39.64 6.01 36.92 C 3.10 33.22 4.50 28.17 4.19 23.84 Z" />
</g>
</svg>
