<?xml version="1.0" encoding="UTF-8" ?>
<!DOCTYPE svg PUBLIC "-//W3C//DTD SVG 1.1//EN" "http://www.w3.org/Graphics/SVG/1.1/DTD/svg11.dtd">
<svg width="58px" height="52px" viewBox="0 0 58 52" version="1.1" xmlns="http://www.w3.org/2000/svg">
<g id="#ffffffff">
<path fill="#000" opacity="1.00" d=" M 6.99 6.90 C 11.89 3.94 17.38 2.03 22.99 0.94 C 31.48 -0.85 40.23 1.62 47.92 5.20 C 52.05 7.31 56.55 10.01 58.00 14.71 L 58.00 35.77 C 56.83 40.42 52.82 43.52 48.88 45.83 C 39.74 51.04 28.47 53.58 18.31 49.82 C 11.11 47.29 2.55 43.73 0.00 35.82 L 0.00 14.87 C 0.89 11.24 3.97 8.79 6.99 6.90 M 24.54 3.75 C 18.61 4.94 12.62 7.02 7.98 11.02 C 5.70 12.91 4.24 16.28 6.00 19.02 C 9.45 24.62 16.06 27.21 22.11 28.96 C 30.11 31.33 38.65 28.83 45.66 24.79 C 48.88 22.80 52.42 20.05 52.82 15.99 C 52.53 11.94 48.69 9.50 45.48 7.72 C 39.07 4.56 31.71 2.36 24.54 3.75 Z" />
<path fill="#f86a0c" opacity="1.00" d=" M 23.18 10.57 C 29.22 9.01 36.94 9.65 41.00 14.94 C 41.00 15.65 40.99 17.09 40.99 17.80 C 37.50 22.85 30.47 23.93 24.81 22.84 C 21.42 22.03 17.19 20.82 16.02 17.10 C 15.79 13.24 20.08 11.44 23.18 10.57 Z" />
</g>
</svg>
