<svg xmlns="http://www.w3.org/2000/svg" viewBox="0 0 512 284.56"><g id="Слой_2" data-name="Слой 2"><g id="Layer_1" data-name="Layer 1"><path d="M375.69,100.57A121.59,121.59,0,0,0,211,8.6a10,10,0,0,0,7.41,18.58,101.56,101.56,0,0,1,139.07,94.1c-.85,1.86-7.65,7.87-28.85,13.18-19.8,5-45.6,7.69-72.65,7.69s-52.85-2.73-72.65-7.69c-21.2-5.31-28-11.32-28.85-13.18a100.94,100.94,0,0,1,7.18-37.34,10,10,0,1,0-18.58-7.41,120.62,120.62,0,0,0-6.8,24C92.5,107.2,0,126.35,0,169.76c0,23.31,27.46,43.18,79.4,57.45,8.91,2.45,18.36,4.69,28.28,6.71L102,255.22A10,10,0,0,0,109,267.47a10.15,10.15,0,0,0,2.6.34,10,10,0,0,0,9.65-7.41l6.12-22.84c35.69,5.93,76.23,9.3,118.59,9.76v27.24a10,10,0,0,0,20,0V247.32c42.36-.46,82.9-3.83,118.59-9.76l6.12,22.84a10,10,0,0,0,9.65,7.41,10.15,10.15,0,0,0,2.6-.34A10,10,0,0,0,410,255.22l-5.71-21.3c9.92-2,19.38-4.26,28.28-6.71,51.94-14.27,79.4-34.14,79.4-57.45,0-43.41-92.53-62.56-136.31-69.18ZM427.3,207.93c-45.63,12.54-106.46,19.44-171.3,19.44s-125.67-6.9-171.3-19.44C37,194.8,20,179.16,20,169.76c0-12.52,30.69-35.4,114.51-48.67,0,.14,0,.27,0,.41,0,32.09,76.37,40.65,121.5,40.65s121.5-8.57,121.5-40.65v-.41C461.31,134.36,492,157.24,492,169.76,492,179.16,475.06,194.8,427.3,207.93Z" style="fill:#fff452"/><path d="M256,184.76h0a10,10,0,1,0,10,10A10,10,0,0,0,256,184.76Z" style="fill:#fff452"/><path d="M183.68,179.81h0a10,10,0,1,0,10,10A10,10,0,0,0,183.67,179.81Z" style="fill:#fff452"/><path d="M113.43,161.31h0a10,10,0,1,0,10,10A10,10,0,0,0,113.43,161.31Z" style="fill:#fff452"/><path d="M328.32,179.81a10,10,0,0,0,0,20h0a10,10,0,1,0,0-20Z" style="fill:#fff452"/><path d="M398.57,161.31a10,10,0,0,0,0,20h0a10,10,0,0,0,0-20Z" style="fill:#fff452"/><path d="M177.16,52.66a10,10,0,0,0,0-20h0a10,10,0,1,0,0,20Z" style="fill:#fff452"/></g></g></svg>