<?xml version="1.0" encoding="UTF-8" ?>
<!DOCTYPE svg PUBLIC "-//W3C//DTD SVG 1.1//EN" "http://www.w3.org/Graphics/SVG/1.1/DTD/svg11.dtd">
<svg width="41px" height="61px" viewBox="0 0 41 61" version="1.1" xmlns="http://www.w3.org/2000/svg">
<g id="#ffffffff">
<path fill="#f86a0c" opacity="1.00" d=" M 18.58 3.95 C 23.91 2.81 29.19 1.43 34.47 0.10 C 34.88 1.42 35.32 2.73 35.77 4.04 C 31.38 5.09 26.98 6.11 22.63 7.30 C 22.63 8.92 22.64 10.54 22.64 12.15 C 28.74 12.52 35.01 11.41 41.00 12.74 L 41.00 21.33 C 29.37 22.28 17.65 21.44 5.98 21.76 C 3.98 21.55 1.42 22.42 0.00 20.55 L 0.00 13.83 C 0.24 13.42 0.72 12.61 0.96 12.21 C 6.82 12.09 12.69 12.16 18.55 12.19 C 18.60 9.45 18.59 6.70 18.58 3.95 Z" />
<path fill="#000" opacity="1.00" d=" M 3.39 24.86 C 14.82 24.89 26.24 24.88 37.67 24.86 C 35.98 35.58 34.60 46.34 33.03 57.07 C 32.94 58.51 32.26 59.78 31.55 61.00 L 9.68 61.00 C 8.72 59.88 8.09 58.55 8.02 57.07 C 6.46 46.33 5.08 35.57 3.39 24.86 Z" />
</g>
</svg>
