<svg xmlns="http://www.w3.org/2000/svg" width="96" height="112" viewBox="0 0 436.68 512"><g id="Слой_2" data-name="Слой 2"><g id="Capa_1" data-name="Capa 1"><path d="M388.2,300.93a10,10,0,1,0,2.93,7.07A10.06,10.06,0,0,0,388.2,300.93Z"/><path d="M423.78,427.59l-22.64-25.18a39,39,0,0,1-10-26.1V349.22a10,10,0,0,0-20,0v27.09a59,59,0,0,0,15.13,39.47L408.9,441a30.53,30.53,0,0,1,1.67,38.71l-.15.19a30.55,30.55,0,0,1-35.5,10l-14.15-5.58a87.57,87.57,0,0,0-53.93-3.49A367.29,367.29,0,0,1,218.27,492a367.29,367.29,0,0,1-88.57-11.19,87.57,87.57,0,0,0-53.93,3.49l-14.15,5.58A30.46,30.46,0,0,1,28,441l22.91-25.1A58.94,58.94,0,0,0,66.3,376.09V237.58c0-84,68.38-152.41,152.42-152.41s152.41,68.37,152.41,152.41V268.5a10,10,0,0,0,20,0V237.58a172,172,0,0,0-57.78-128.67V58.28a30,30,0,1,0-20,0V93.53a172.06,172.06,0,0,0-190,.49V58.28a30,30,0,1,0-20,0v51.29a172,172,0,0,0-57,128V376.09a38.94,38.94,0,0,1-10.2,26.32l-22.91,25.1a50.46,50.46,0,0,0,55.77,81l14.15-5.57a67.65,67.65,0,0,1,41.68-2.71A387.63,387.63,0,0,0,218.27,512a387,387,0,0,0,93.48-11.81,67.69,67.69,0,0,1,41.69,2.72l14.14,5.57a50.62,50.62,0,0,0,58.84-16.61l.14-.19A50.57,50.57,0,0,0,423.78,427.59ZM313.35,30a10,10,0,1,1,10,10A10,10,0,0,1,313.35,30Zm-210,0a10,10,0,1,1,10,10A10,10,0,0,1,103.35,30Z"/><path d="M273.5,200.85a78,78,0,1,0,0,110.31A78.06,78.06,0,0,0,273.5,200.85ZM259.36,297a58,58,0,1,1,0-82A58,58,0,0,1,259.36,297Z"/><path d="M242.39,232a34,34,0,1,0,0,48.08h0A34,34,0,0,0,242.39,232ZM228.25,265.9a14,14,0,1,1,0-19.8A14,14,0,0,1,228.25,265.9Z"/><path d="M219.25,112.32h-.43a10,10,0,0,0,0,20h.43a10,10,0,0,0,0-20Z"/><path d="M321.41,158.75a137.08,137.08,0,0,0-56.27-38.37,10,10,0,0,0-6.78,18.82,116.93,116.93,0,0,1,48,32.75,10,10,0,0,0,15-13.2Z"/><path d="M280.33,379.14a10,10,0,0,0-14.14,0,67.65,67.65,0,0,1-95.68,0,10,10,0,0,0-14.15,14.15,87.67,87.67,0,0,0,124,0A10,10,0,0,0,280.33,379.14Z"/></g></g></svg>