<svg width="53px" height="59px" viewBox="0 0 53 59" version="1.1" xmlns="http://www.w3.org/2000/svg">
<g id="#ffffffff">
<path fill="#000" opacity="1.00" d=" M 15.49 0.00 L 21.00 0.00 C 20.99 6.09 21.01 12.18 20.99 18.26 C 16.95 18.68 12.95 19.40 8.99 20.30 C 5.39 20.86 1.74 17.74 1.99 14.05 C 1.88 6.71 8.39 0.59 15.49 0.00 Z" />
<path fill="#f86a0c" opacity="1.00" d=" M 24.00 0.00 L 31.00 0.00 C 30.98 6.51 31.04 13.02 30.97 19.53 C 28.66 19.54 26.34 19.54 24.03 19.53 C 23.96 13.02 24.02 6.51 24.00 0.00 Z" />
<path fill="#000" opacity="1.00" d=" M 34.00 0.00 L 39.42 0.00 C 46.12 0.53 52.20 5.85 53.00 12.62 L 53.00 15.15 C 52.50 18.41 49.20 20.80 45.95 20.29 C 42.01 19.39 38.03 18.68 34.01 18.26 C 33.98 12.18 34.01 6.09 34.00 0.00 Z" />
<path fill="#000" opacity="1.00" d=" M 6.36 25.41 C 13.13 21.93 21.23 20.06 28.65 22.65 C 33.58 24.22 39.38 26.21 41.77 31.20 C 42.30 36.11 41.85 41.12 42.00 46.06 C 42.05 49.44 39.19 51.89 36.62 53.62 C 29.95 57.80 21.50 60.09 13.82 57.43 C 8.42 55.63 2.06 53.06 0.00 47.25 L 0.00 31.86 C 0.87 28.77 3.70 26.87 6.36 25.41 M 14.44 24.74 C 10.62 26.00 6.37 27.58 4.18 31.19 C 2.82 34.08 5.36 36.80 7.57 38.35 C 12.90 41.86 19.73 43.96 26.04 42.03 C 30.45 40.70 35.28 38.79 37.73 34.63 C 39.31 31.79 36.75 29.03 34.44 27.66 C 28.53 24.14 21.11 22.31 14.44 24.74 Z" />
<path fill="#000" opacity="1.00" d=" M 35.66 22.10 C 40.14 22.01 44.37 24.24 48.84 23.64 C 47.92 25.84 46.43 27.76 44.42 29.06 C 42.23 25.98 39.26 23.37 35.66 22.10 Z" />
<path fill="#f86a0c" opacity="1.00" d=" M 16.39 28.58 C 20.92 27.44 26.43 27.70 30.08 30.93 C 32.03 32.66 30.52 35.45 28.50 36.29 C 23.25 38.96 15.78 38.98 11.48 34.57 C 9.68 31.36 13.80 29.12 16.39 28.58 Z" />
</g>
</svg>
