<?xml version="1.0" encoding="UTF-8" ?>
<!DOCTYPE svg PUBLIC "-//W3C//DTD SVG 1.1//EN" "http://www.w3.org/Graphics/SVG/1.1/DTD/svg11.dtd">
<svg width="32px" height="32px" viewBox="0 0 32 32" version="1.1" xmlns="http://www.w3.org/2000/svg">
<g id="#000000fc">
<path fill="#000000" opacity="1.00" d=" M 8.36 0.00 L 23.45 0.00 C 27.86 0.54 31.32 3.98 32.00 8.35 L 32.00 23.48 C 31.43 27.87 28.01 31.31 23.66 32.00 L 8.53 32.00 C 4.13 31.44 0.68 28.01 0.00 23.65 L 0.00 8.54 C 0.55 4.14 3.99 0.68 8.36 0.00 M 4.09 4.09 C 1.81 9.80 2.77 16.03 2.65 22.01 C 2.32 25.66 5.21 29.30 8.98 29.28 C 13.65 29.47 18.35 29.46 23.02 29.28 C 26.34 29.28 29.28 26.33 29.28 23.01 C 29.46 18.35 29.46 13.68 29.29 9.02 C 29.32 5.26 25.72 2.33 22.06 2.66 C 16.06 2.78 9.81 1.80 4.09 4.09 Z" />
<path fill="#000000" opacity="1.00" d=" M 14.83 8.69 C 15.99 6.63 18.66 7.19 20.62 6.85 C 20.66 7.60 20.75 9.12 20.79 9.87 C 20.03 9.94 18.52 10.09 17.76 10.16 C 17.63 11.33 17.51 12.50 17.39 13.68 C 18.20 13.71 19.82 13.79 20.63 13.83 C 20.35 15.72 19.76 17.43 17.50 17.37 C 17.50 19.91 17.51 22.45 17.51 24.99 C 16.42 25.00 15.33 25.01 14.24 25.00 C 14.24 22.34 14.24 19.69 14.24 17.03 C 13.58 17.02 12.27 16.99 11.61 16.97 C 11.61 16.18 11.62 14.59 11.62 13.79 C 12.22 13.77 13.43 13.73 14.03 13.70 C 14.29 12.04 14.16 10.27 14.83 8.69 Z" />
</g>
</svg>
