<?xml version="1.0" encoding="UTF-8" ?>
<!DOCTYPE svg PUBLIC "-//W3C//DTD SVG 1.1//EN" "http://www.w3.org/Graphics/SVG/1.1/DTD/svg11.dtd">
<svg width="71px" height="44px" viewBox="0 0 71 44" version="1.1" xmlns="http://www.w3.org/2000/svg">
<g id="#ffffffff">
<path fill="#f86a0c" opacity="1.00" d=" M 30.00 0.00 L 41.00 0.00 C 41.00 14.67 41.00 29.33 41.00 44.00 L 30.00 44.00 C 30.00 29.33 30.00 14.67 30.00 0.00 Z" />
<path fill="#000" opacity="1.00" d=" M 8.17 5.21 C 13.32 1.11 20.13 0.66 26.44 1.00 C 26.44 8.76 26.44 16.52 26.44 24.28 C 20.21 24.85 14.10 26.18 8.03 27.64 C 4.37 28.65 0.77 25.86 0.00 22.32 L 0.00 19.52 C 0.51 13.85 3.53 8.51 8.17 5.21 Z" />
<path fill="#000" opacity="1.00" d=" M 44.56 1.00 C 49.15 0.97 53.97 0.69 58.26 2.63 C 65.15 5.38 70.37 11.98 71.00 19.43 L 71.00 22.12 C 70.40 25.78 66.66 28.66 62.95 27.64 C 56.89 26.15 50.78 24.86 44.56 24.28 C 44.56 16.52 44.56 8.76 44.56 1.00 Z" />
<path fill="#000" opacity="1.00" d=" M 5.31 32.94 C 12.40 31.96 19.26 29.67 26.44 29.16 C 26.44 34.10 26.44 39.05 26.44 44.00 L 18.15 44.00 C 12.04 43.35 7.11 38.68 5.31 32.94 Z" />
<path fill="#000" opacity="1.00" d=" M 44.56 29.16 C 51.74 29.67 58.60 31.96 65.69 32.92 C 63.93 38.62 59.08 43.22 53.06 44.00 L 44.56 44.00 C 44.56 39.05 44.56 34.10 44.56 29.16 Z" />
</g>
</svg>
