<svg xmlns="http://www.w3.org/2000/svg" width="112" height="112" viewBox="0 0 512 512"><g id="Слой_2" data-name="Слой 2"><g id="Слой_1-2" data-name="Слой 1"><g id="Page-1"><g id="_041---Alien-Group" data-name="041---Alien-Group"><path id="Shape" d="M44.44,93.24a8.52,8.52,0,0,0,11.09-4.7,59.56,59.56,0,0,1,55.4-37.34,8.54,8.54,0,1,0,0-17.07,76.56,76.56,0,0,0-71.19,48,8.53,8.53,0,0,0,4.7,11.11Z"/><path id="Shape-2" data-name="Shape" d="M88.57,179.2a13.7,13.7,0,0,0,9.75-4,14,14,0,0,0,4-11.57,62.64,62.64,0,0,0-16-36.69A62.37,62.37,0,0,0,49.72,111a13.79,13.79,0,0,0-15.49,15.36,61.72,61.72,0,0,0,16,36.69,61.52,61.52,0,0,0,36.59,16A12.74,12.74,0,0,0,88.57,179.2ZM62.29,151a42.74,42.74,0,0,1-10.52-22.41A43.45,43.45,0,0,1,74.24,139a43.61,43.61,0,0,1,10.5,22.53A43,43,0,0,1,62.29,151Z"/><path id="Shape-3" data-name="Shape" d="M144.21,208.62A8.54,8.54,0,1,0,129,200.94a23.19,23.19,0,0,1-18,12.39,23.22,23.22,0,0,1-18-12.39,8.54,8.54,0,0,0-15.25,7.68,40,40,0,0,0,33.23,21.78A40.06,40.06,0,0,0,144.21,208.62Z"/><path id="Shape-4" data-name="Shape" d="M512,110.93A110.87,110.87,0,0,0,328.47,27.14a110.32,110.32,0,0,0-144.94,0A110.87,110.87,0,0,0,0,110.93c0,54.74,44,128.86,85,153.6a34.67,34.67,0,0,1-10.78,25.6H59.73A59.81,59.81,0,0,0,0,349.87V494.93A17.07,17.07,0,0,0,17.07,512H494.93A17.07,17.07,0,0,0,512,494.93V349.87a59.81,59.81,0,0,0-59.73-59.74H437.76A34.6,34.6,0,0,1,427,264.53C468,239.79,512,165.67,512,110.93ZM364.37,139.09a42.88,42.88,0,0,1,10.45,22.43,48.41,48.41,0,0,1-16-5.68,176.68,176.68,0,0,0,4.77-17.37A3.88,3.88,0,0,1,364.37,139.09Zm-14.5-28.16a137,137,0,0,1-9.13,45.58v.12a224.36,224.36,0,0,1-19,39.19l-.14.22c-2.23,3.65-4.52,7.29-7,10.88C294.47,236.27,270.94,256,256,256c-18.32,0-45.06-26.08-65.31-59.48a9.19,9.19,0,0,0-.52-.85c-16.09-26.84-28-58.28-28-84.74a93.87,93.87,0,0,1,187.74,0Zm14.5,179.2h-14.5a58,58,0,0,0-21.27,4,59.34,59.34,0,0,0-21.4-4H292.69a34.59,34.59,0,0,1-10.78-25.6,165,165,0,0,0,46.67-47.9,171.45,171.45,0,0,0,46.57,47.83,34.69,34.69,0,0,1-10.78,25.67Zm-14.5,204.8h-25.6V341.33a8.54,8.54,0,0,0-17.07,0v153.6H204.8V341.33a8.54,8.54,0,0,0-17.07,0v153.6h-25.6V349.87A42.73,42.73,0,0,1,204.8,307.2h12.8A48.65,48.65,0,0,0,256,324.27a48.65,48.65,0,0,0,38.4-17.07h12.8a42.73,42.73,0,0,1,42.67,42.67ZM147.63,290.13a34.68,34.68,0,0,1-10.8-25.66,171.16,171.16,0,0,0,46.46-47.67,165,165,0,0,0,46.79,47.73,34.62,34.62,0,0,1-10.77,25.6H204.8a59.34,59.34,0,0,0-21.4,4,58,58,0,0,0-21.27-4Zm117.84-18.38A51.5,51.5,0,0,0,278,299.52a35.49,35.49,0,0,1-44,0,51.59,51.59,0,0,0,12.53-27.8,38,38,0,0,0,9.49,1.35,38.44,38.44,0,0,0,9.48-1.32ZM148.3,138.5c1.26,5.74,2.84,11.55,4.74,17.38a48.64,48.64,0,0,1-15.89,5.61,42.91,42.91,0,0,1,10.48-22.4,5.44,5.44,0,0,1,.67-.59ZM17.07,110.93A93.87,93.87,0,0,1,171.52,39.25a110.37,110.37,0,0,0-26.45,71.68c0,2.85.16,5.77.39,8.72a47.92,47.92,0,0,0-9.93,7.35,61.73,61.73,0,0,0-15.89,36.41,13.73,13.73,0,0,0,3.89,11.79,13.59,13.59,0,0,0,9.59,4,13.11,13.11,0,0,0,1.88-.14,71.32,71.32,0,0,0,24.06-7,247.12,247.12,0,0,0,14.33,28.89,153.19,153.19,0,0,1-48.53,50.8l-.23.12a30.42,30.42,0,0,1-13.7,4.15c-33.15,0-93.86-85.28-93.86-145.07Zm93.86,162.14a38.38,38.38,0,0,0,9.48-1.33,51.46,51.46,0,0,0,12.53,27.78,32.9,32.9,0,0,1-22,7.68,32.83,32.83,0,0,1-22-7.68,51.52,51.52,0,0,0,12.53-27.8A38.15,38.15,0,0,0,110.93,273.07ZM59.73,494.93V341.33a8.53,8.53,0,0,0-17.06,0v153.6H17.07V349.87A42.71,42.71,0,0,1,59.73,307.2h12.8a48.65,48.65,0,0,0,38.4,17.07,48.62,48.62,0,0,0,38.4-17.07h12.8c.3,0,.59,0,.86,0a59.58,59.58,0,0,0-17.92,42.63V494.93Zm435.2-145.06V494.93h-25.6V341.33a8.53,8.53,0,1,0-17.06,0v153.6H366.93V349.87A59.58,59.58,0,0,0,349,307.24c.3,0,.59,0,.86,0h12.8a51.69,51.69,0,0,0,76.8,0h12.8A42.71,42.71,0,0,1,494.93,349.87Zm-71.86-50.35a35.5,35.5,0,0,1-44,0,51.62,51.62,0,0,0,12.54-27.83,34.74,34.74,0,0,0,19,0A51.52,51.52,0,0,0,423.07,299.52Zm-7.33-47.95a8.49,8.49,0,0,0-2.29,1.15A29.44,29.44,0,0,1,401.07,256c-16.1,0-41.92-23-62.52-55.24A244.71,244.71,0,0,0,352.88,172a70.13,70.13,0,0,0,23.89,7,12.44,12.44,0,0,0,2.11.18,13.64,13.64,0,0,0,13.55-15.46,62,62,0,0,0-15.93-36.69,47.08,47.08,0,0,0-10-7.4c.23-2.93.48-5.87.48-8.67a110.21,110.21,0,0,0-8.29-41.92A59.32,59.32,0,0,1,401.07,51.2a8.54,8.54,0,0,0,0-17.07,76.35,76.35,0,0,0-50.5,19.11,111.83,111.83,0,0,0-10.09-14,93.87,93.87,0,0,1,154.45,71.68c0,51.74-45.46,122.54-79.19,140.67Z"/><path id="Shape-5" data-name="Shape" d="M473.82,115A13.82,13.82,0,0,0,462.4,111a62.65,62.65,0,0,0-36.8,16,62.66,62.66,0,0,0-15.91,36.63,14,14,0,0,0,4,11.57,13.75,13.75,0,0,0,11.44,3.9,61.68,61.68,0,0,0,36.58-16,61.76,61.76,0,0,0,16-36.6A13.82,13.82,0,0,0,473.82,115ZM449.65,151a42.82,42.82,0,0,1-22.42,10.51,43.53,43.53,0,0,1,10.44-22.46,43.52,43.52,0,0,1,22.56-10.48A42.85,42.85,0,0,1,449.65,151Z"/><path id="Shape-6" data-name="Shape" d="M430.52,197.21a8.54,8.54,0,0,0-11.47,3.73,23.21,23.21,0,0,1-18,12.39A23.18,23.18,0,0,1,383.15,201a8.54,8.54,0,1,0-15.28,7.63,40.06,40.06,0,0,0,33.2,21.78,40.06,40.06,0,0,0,33.28-21.78,8.55,8.55,0,0,0-3.83-11.41Z"/><path id="Shape-7" data-name="Shape" d="M189.51,93.24a8.52,8.52,0,0,0,11.09-4.7A59.55,59.55,0,0,1,256,51.2a8.54,8.54,0,0,0,0-17.07,76.56,76.56,0,0,0-71.19,48,8.51,8.51,0,0,0,4.7,11.11Z"/><path id="Shape-8" data-name="Shape" d="M233.63,179.2a13.73,13.73,0,0,0,9.76-4,13.93,13.93,0,0,0,4-11.57,62.56,62.56,0,0,0-16-36.69A62.37,62.37,0,0,0,194.78,111a13.79,13.79,0,0,0-15.49,15.36,61.84,61.84,0,0,0,16,36.69,61.55,61.55,0,0,0,36.59,16,12.89,12.89,0,0,0,1.75.08ZM207.36,151a42.74,42.74,0,0,1-10.52-22.41A43.49,43.49,0,0,1,219.31,139a43.52,43.52,0,0,1,10.49,22.53A43,43,0,0,1,207.36,151Z"/><path id="Shape-9" data-name="Shape" d="M278.35,179.2a14,14,0,0,0,1.71-.11,61.68,61.68,0,0,0,36.57-16,61.7,61.7,0,0,0,16-36.6A13.8,13.8,0,0,0,317.31,111a62.57,62.57,0,0,0-36.8,16,62.55,62.55,0,0,0-15.91,36.62,14,14,0,0,0,4,11.57A13.68,13.68,0,0,0,278.35,179.2Zm14.26-40.11a43.49,43.49,0,0,1,22.55-10.48,42.79,42.79,0,0,1-10.58,22.46,42.74,42.74,0,0,1-22.42,10.5,43.5,43.5,0,0,1,10.45-22.48Z"/><path id="Shape-10" data-name="Shape" d="M285.46,197.21A8.53,8.53,0,0,0,274,200.94a23.22,23.22,0,0,1-18,12.39,23.24,23.24,0,0,1-18-12.39,8.54,8.54,0,0,0-15.25,7.68A40.07,40.07,0,0,0,256,230.4a40.06,40.06,0,0,0,33.28-21.78,8.55,8.55,0,0,0-3.82-11.41Z"/></g></g></g></g></svg>