<svg xmlns="http://www.w3.org/2000/svg" width="86" height="98" viewBox="0 0 446.34 512"><g id="Слой_2" data-name="Слой 2"><g id="Capa_1" data-name="Capa 1"><path d="M416.78,177.8l-50.19-18.27a60.68,60.68,0,0,0,20.34-61.38c-10.92-44.4-65.06-61.26-99.26-31L253,97.76l-6.85-45.94c-6.78-45.23-59.14-67-96-40a61,61,0,0,0-23.87,60.29L79,54.85A45,45,0,0,0,21.4,81.71L.91,138a15,15,0,0,0,9,19.19l234.08,85.2h-226a15,15,0,0,0-15,15V467.07A45,45,0,0,0,47.87,512H347.43a45,45,0,0,0,44.93-44.93V296.42L404,300.64a15,15,0,0,0,19.19-8.95l20.49-56.3A45,45,0,0,0,416.78,177.8ZM152.71,482.05H47.87a15,15,0,0,1-15-15V272.36H152.71Zm59.91,0h-30V272.36h30ZM307.51,89.58a30.81,30.81,0,0,1,50.33,15.73c5.89,24-17.27,44.74-40.45,36.31L268.68,123.9ZM167.87,36a30.82,30.82,0,0,1,48.67,20.31l7.68,51.44L175.52,90C152.33,81.54,148,50.53,167.87,36Zm7,149.44L34.18,134.18,49.55,92a15,15,0,0,1,19.2-9l126.66,46.1Zm56.3,20.49-28.15-10.24,20.49-56.3,28.15,10.25ZM362.4,467.07a15,15,0,0,1-15,15H242.58V272.36h83.67l36.15,13.16V467.07Zm53.08-241.93-15.37,42.23L259.37,216.14l20.49-56.3,126.67,46.1A15,15,0,0,1,415.48,225.14Z" style="fill:#fff452"/></g></g></svg>