<svg width="35" height="35" viewBox="0 0 35 35" fill="none" xmlns="http://www.w3.org/2000/svg">
<rect width="35" height="35" rx="10" fill="white"/>
<g clip-path="url(#clip0)">
<path d="M12.9884 17.3533L21.6572 26.022C21.6972 25.2528 21.7317 23.5552 21.44 21.5212C20.9143 17.8554 19.5624 14.8435 17.5303 12.8114C15.4982 10.7793 12.4863 9.42736 8.82048 8.90171C6.09282 8.51054 3.96886 8.70595 3.87979 8.71456C3.44345 8.75628 3.09804 9.10169 3.05632 9.53804C3.04776 9.6271 2.85235 11.751 3.24347 14.4787C3.76911 18.1446 5.12104 21.1565 7.15319 23.1885C9.18528 25.2206 12.1971 26.5726 15.863 27.0982C17.2131 27.2918 18.4149 27.3417 19.2956 27.3417C19.7416 27.3417 20.105 27.3289 20.3637 27.3154L11.695 18.6467C11.3378 18.2896 11.3378 17.7105 11.695 17.3532C12.0521 16.9961 12.6312 16.9961 12.9884 17.3533Z" fill="#619E07"/>
<path d="M32.9595 15.0584C32.9178 14.6221 32.5724 14.2767 32.1361 14.235C31.8916 14.2116 26.1098 13.7015 22.7429 17.0684C22.6119 17.1995 22.4868 17.3345 22.3672 17.4724C22.7613 18.6511 23.0584 19.918 23.2509 21.2612C23.3125 21.6912 23.3605 22.1064 23.3979 22.5031L25.7877 20.1132C26.1448 19.7561 26.724 19.7561 27.0812 20.1132C27.4385 20.4703 27.4384 21.0495 27.0812 21.4067L23.5139 24.9741C23.513 25.9064 23.4599 26.5143 23.4483 26.6356C23.4278 26.8502 23.3821 27.0574 23.3151 27.2548C25.3469 27.067 28.1516 26.4261 30.1261 24.4515C33.4929 21.0847 32.9829 15.303 32.9595 15.0584Z" fill="#619E07"/>
</g>
<defs>
<clipPath id="clip0">
<rect width="30" height="30" fill="white" transform="translate(3 3)"/>
</clipPath>
</defs>
</svg>
