<svg width="8" height="14" viewBox="0 0 8 14" fill="none" xmlns="http://www.w3.org/2000/svg">
<path d="M7.6452 2.14545L2.93112 7.00653L7.6452 11.8676C7.75769 11.9836 7.84691 12.1213 7.90779 12.2729C7.96867 12.4244 8 12.5868 8 12.7509C8 12.9149 7.96867 13.0773 7.90779 13.2289C7.84691 13.3804 7.75769 13.5181 7.6452 13.6341C7.53272 13.7501 7.39918 13.8421 7.25221 13.9049C7.10524 13.9677 6.94773 14 6.78865 14C6.62957 14 6.47205 13.9677 6.32509 13.9049C6.17812 13.8421 6.04458 13.7501 5.93209 13.6341L0.355379 7.88353C-0.118459 7.39491 -0.118459 6.60561 0.355379 6.117L5.9321 0.36639C6.0445 0.250246 6.17801 0.158102 6.32499 0.0952319C6.47197 0.032361 6.62953 -5.99053e-08 6.78865 -5.29498e-08C6.94777 -4.59944e-08 7.10533 0.032361 7.25231 0.095232C7.39929 0.158102 7.5328 0.250246 7.6452 0.36639C8.10689 0.855004 8.11904 1.65683 7.6452 2.14545Z" fill="#070D0B" fill-opacity="0.5"/>
</svg>
