<svg width="22" height="39" viewBox="0 0 22 39" fill="none" xmlns="http://www.w3.org/2000/svg">
<path d="M17.9144 0H4.08629C1.83874 0 0 1.82564 0 4.05554V34.9442C0 37.1754 1.83874 39 4.08629 39H17.9144C20.1618 39 22 37.1754 22 34.9442V4.05554C22 1.82578 20.1618 0 17.9144 0Z" fill="#01A680"/>
<path d="M8.48535 1.18528C8.48535 1.04852 8.7114 0.936035 8.98764 0.936035H13.0118C13.288 0.936035 13.5141 1.04852 13.5141 1.18528V1.31033C13.5141 1.44779 13.288 1.56057 13.0118 1.56057H8.98764C8.7114 1.56057 8.48535 1.44765 8.48535 1.31033V1.18528Z" fill="#09816C"/>
<path d="M11.4723 2.65196C11.4723 2.90962 11.2604 3.11932 11.0008 3.11932C10.7398 3.11932 10.5293 2.90948 10.5293 2.65196C10.5293 2.39329 10.74 2.18359 11.0008 2.18359C11.2604 2.18359 11.4723 2.39344 11.4723 2.65196Z" fill="#09816C"/>
<path d="M13.5141 36.9413C13.5141 37.2155 13.288 37.4409 13.0118 37.4409H8.98764C8.7114 37.4409 8.48535 37.2155 8.48535 36.9413V36.6916C8.48535 36.4178 8.7114 36.1924 8.98764 36.1924H13.0118C13.288 36.1924 13.5141 36.4178 13.5141 36.6916V36.9413Z" fill="#09816C"/>
<path d="M19.7503 4.05566H2.24609V34.9443H19.7503V4.05566Z" fill="#F3F3F3"/>
</svg>
