<svg width="25" height="25" viewBox="0 0 25 25" fill="none" xmlns="http://www.w3.org/2000/svg">
<path d="M24.9518 13.6547C24.7273 11.3969 23.7187 9.26845 22.1115 7.66125C20.7381 6.28784 19.057 5.40525 17.2881 5.01281V3.77217C18.0106 3.59243 18.5476 2.93847 18.5476 2.16116C18.5476 1.24571 17.8029 0.500977 16.8874 0.500977H13.3717C12.4563 0.500977 11.7116 1.24571 11.7116 2.16116C11.7116 2.93842 12.2486 3.59238 12.971 3.77217V5.01628C11.2075 5.41038 9.53203 6.29174 8.16248 7.66129C7.86277 7.96101 7.5864 8.27542 7.33342 8.60218C7.32116 8.60125 7.3089 8.60032 7.2964 8.60032H3.81681C3.54717 8.60032 3.32852 8.81893 3.32852 9.08861C3.32852 9.35829 3.54717 9.5769 3.81681 9.5769H6.669C6.31099 10.1763 6.02231 10.8057 5.80258 11.4537H0.488289C0.218656 11.4537 0 11.6723 0 11.942C0 12.2117 0.218656 12.4303 0.488289 12.4303H5.52665C5.38592 13.048 5.30516 13.6767 5.28431 14.3071H3.12505C2.85542 14.3071 2.63676 14.5257 2.63676 14.7954C2.63676 15.0651 2.85542 15.2837 3.12505 15.2837H5.29989C5.3411 15.9157 5.44271 16.5444 5.60477 17.1605H2.44144C2.17181 17.1605 1.95316 17.3791 1.95316 17.6488C1.95316 17.9185 2.17181 18.1371 2.44144 18.1371H5.9164C6.39541 19.4043 7.14401 20.5919 8.16248 21.6104C9.7712 23.2191 11.9019 24.228 14.162 24.4513C14.4846 24.4831 14.8074 24.4989 15.1297 24.4989C17.0351 24.4989 18.9163 23.9475 20.5125 22.908C20.7385 22.7608 20.8024 22.4584 20.6553 22.2324C20.5081 22.0064 20.2056 21.9425 19.9796 22.0896C16.4856 24.3649 11.8061 23.873 8.85302 20.9199C5.38802 17.4549 5.38802 11.8169 8.85302 8.35188C12.318 4.88693 17.9559 4.88693 21.4209 8.35188C24.3702 11.3011 24.8648 15.9766 22.597 19.4689C22.4502 19.6951 22.5145 19.9975 22.7406 20.1444C22.9669 20.2912 23.2692 20.2269 23.416 20.0007C24.6277 18.1348 25.1731 15.8811 24.9518 13.6547ZM12.6881 2.16121C12.6881 1.78425 12.9948 1.4776 13.3717 1.4776H16.8874C17.2644 1.4776 17.571 1.78425 17.571 2.16121C17.571 2.53817 17.2644 2.84481 16.8874 2.84481H16.7998H13.4593H13.3717C12.9948 2.84481 12.6881 2.53812 12.6881 2.16121ZM13.9476 4.84841V3.82139H16.3115V4.84665C15.5266 4.75329 14.7324 4.75388 13.9476 4.84841Z" fill="#F54748"/>
<path d="M21.7656 20.7766C21.6367 20.7766 21.5112 20.8289 21.4205 20.9197C21.3292 21.0105 21.2773 21.1365 21.2773 21.2649C21.2773 21.3933 21.3292 21.5193 21.4205 21.6101C21.5112 21.7014 21.6368 21.7532 21.7656 21.7532C21.894 21.7532 22.0195 21.7014 22.1108 21.6101C22.2017 21.5193 22.2539 21.3933 22.2539 21.2649C22.2539 21.1365 22.2017 21.0105 22.1108 20.9197C22.0195 20.8289 21.894 20.7766 21.7656 20.7766Z" fill="#F54748"/>
<path d="M15.1373 7.06104C10.9606 7.06104 7.5625 10.459 7.5625 14.6358C7.5625 18.8126 10.9606 22.2106 15.1373 22.2106C19.314 22.2106 22.7121 18.8126 22.7121 14.6358C22.7121 10.459 19.314 7.06104 15.1373 7.06104ZM15.1373 21.234C11.499 21.234 8.53908 18.2741 8.53908 14.6358C8.53908 10.9976 11.499 8.03761 15.1373 8.03761C18.7756 8.03761 21.7355 10.9976 21.7355 14.6358C21.7355 18.2741 18.7756 21.234 15.1373 21.234Z" fill="#F54748"/>
<path d="M18.2257 10.8566L15.8072 13.2751C15.605 13.1751 15.3775 13.1186 15.137 13.1186C14.8965 13.1186 14.669 13.1751 14.4668 13.2751L13.3844 12.1927C13.1936 12.002 12.8846 12.002 12.6938 12.1927C12.5031 12.3834 12.5031 12.6925 12.6938 12.8832L13.7762 13.9656C13.6761 14.1679 13.6197 14.3954 13.6197 14.6358C13.6197 15.4725 14.3003 16.1532 15.137 16.1532C15.9737 16.1532 16.6543 15.4725 16.6543 14.6358C16.6543 14.3954 16.5978 14.1679 16.4978 13.9656L18.8453 11.6181L18.9162 11.5472C19.1069 11.3565 19.1069 11.0473 18.9162 10.8566C18.7256 10.666 18.4165 10.666 18.2257 10.8566ZM15.137 15.1766C14.8388 15.1766 14.5963 14.934 14.5963 14.6359C14.5963 14.3377 14.8388 14.0952 15.137 14.0952C15.4351 14.0952 15.6777 14.3377 15.6777 14.6359C15.6777 14.934 15.4351 15.1766 15.137 15.1766Z" fill="#070D0B"/>
<path d="M20.3586 14.1536H19.9062C19.6366 14.1536 19.418 14.3722 19.418 14.6418C19.418 14.9115 19.6366 15.1301 19.9062 15.1301H20.3586C20.6283 15.1301 20.8469 14.9115 20.8469 14.6418C20.8469 14.3722 20.6283 14.1536 20.3586 14.1536Z" fill="#F54748"/>
<path d="M10.3664 14.1416H9.91406C9.64443 14.1416 9.42578 14.3602 9.42578 14.6299C9.42578 14.8996 9.64443 15.1182 9.91406 15.1182H10.3664C10.636 15.1182 10.8547 14.8996 10.8547 14.6299C10.8547 14.3602 10.636 14.1416 10.3664 14.1416Z" fill="#F54748"/>
<path d="M15.1445 10.3554C15.4142 10.3554 15.6328 10.1368 15.6328 9.86714V9.41479C15.6328 9.14512 15.4142 8.92651 15.1445 8.92651C14.8749 8.92651 14.6562 9.14512 14.6562 9.41479V9.86714C14.6562 10.1368 14.8749 10.3554 15.1445 10.3554Z" fill="#F54748"/>
<path d="M15.1328 18.9158C14.8632 18.9158 14.6445 19.1344 14.6445 19.4041V19.8564C14.6445 20.1261 14.8632 20.3447 15.1328 20.3447C15.4024 20.3447 15.6211 20.1261 15.6211 19.8564V19.4041C15.6211 19.1344 15.4024 18.9158 15.1328 18.9158Z" fill="#F54748"/>
<path d="M0.488281 17.1602C0.359863 17.1602 0.233887 17.2124 0.143066 17.3032C0.0522461 17.394 0 17.52 0 17.6484C0 17.7773 0.0521973 17.9028 0.143066 17.9937C0.233936 18.0845 0.359863 18.1367 0.488281 18.1367C0.616699 18.1367 0.742676 18.0845 0.833447 17.9937C0.924268 17.9028 0.976562 17.7769 0.976562 17.6484C0.976562 17.52 0.924316 17.394 0.833447 17.3032C0.742676 17.2124 0.616699 17.1602 0.488281 17.1602Z" fill="#F54748"/>
</svg>
