<svg width="31" height="31" viewBox="0 0 31 31" fill="none" xmlns="http://www.w3.org/2000/svg">
<path d="M6.19961 9.30029H10V10.8503C10 13.4917 10 16.0938 10 18.0019C10 19.6587 11.3413 21 12.9981 21C14.9062 21 17.5082 21 20.1496 21H21.6996V24.8003C21.6996 25.6225 21.373 26.411 20.7916 26.9923C20.2103 27.5737 19.4218 27.9003 18.5996 27.9003H8.52461C7.08581 27.9003 5.70594 27.3287 4.68855 26.3113C3.67117 25.294 3.09961 23.9141 3.09961 22.4753V12.4003C3.09961 11.5781 3.42622 10.7896 4.00758 10.2083C4.58894 9.6269 5.37744 9.30029 6.19961 9.30029Z" fill="#01A680"/>
<path d="M12.3998 4.6501C11.9887 4.6501 11.5945 4.8134 11.3038 5.10408C11.0131 5.39476 10.8498 5.78901 10.8498 6.2001V6.9751C10.8498 7.18064 10.7682 7.37776 10.6228 7.5231C10.4775 7.66845 10.2803 7.7501 10.0748 7.7501C9.86926 7.7501 9.67214 7.66845 9.5268 7.5231C9.38146 7.37776 9.2998 7.18064 9.2998 6.9751V6.2001C9.2998 5.37793 9.62641 4.58943 10.2078 4.00807C10.7891 3.4267 11.5776 3.1001 12.3998 3.1001H13.1748C13.3803 3.1001 13.5775 3.18175 13.7228 3.32709C13.8682 3.47243 13.9498 3.66955 13.9498 3.8751C13.9498 4.08064 13.8682 4.27776 13.7228 4.42311C13.5775 4.56845 13.3803 4.6501 13.1748 4.6501H12.3998Z" fill="#13151E" fill-opacity="0.9"/>
<path d="M10.8498 18.6003C10.8498 19.0114 11.0131 19.4056 11.3038 19.6963C11.5945 19.987 11.9887 20.1503 12.3998 20.1503H13.1748C13.3803 20.1503 13.5775 20.2319 13.7228 20.3773C13.8682 20.5226 13.9498 20.7197 13.9498 20.9253C13.9498 21.1308 13.8682 21.328 13.7228 21.4733C13.5775 21.6186 13.3803 21.7003 13.1748 21.7003H12.3998C11.5776 21.7003 10.7891 21.3737 10.2078 20.7923C9.62641 20.211 9.2998 19.4225 9.2998 18.6003V17.8253C9.2998 17.6197 9.38146 17.4226 9.5268 17.2773C9.67214 17.1319 9.86926 17.0503 10.0748 17.0503C10.2803 17.0503 10.4775 17.1319 10.6228 17.2773C10.7682 17.4226 10.8498 17.6197 10.8498 17.8253V18.6003Z" fill="#13151E" fill-opacity="0.9"/>
<path d="M10.8498 10.0753C10.8498 9.86975 10.7682 9.67263 10.6228 9.52729C10.4775 9.38194 10.2803 9.30029 10.0748 9.30029C9.86926 9.30029 9.67214 9.38194 9.5268 9.52729C9.38146 9.67263 9.2998 9.86975 9.2998 10.0753V14.7253C9.2998 14.9308 9.38146 15.128 9.5268 15.2733C9.67214 15.4186 9.86926 15.5003 10.0748 15.5003C10.2803 15.5003 10.4775 15.4186 10.6228 15.2733C10.7682 15.128 10.8498 14.9308 10.8498 14.7253V10.0753Z" fill="#13151E" fill-opacity="0.9"/>
<path d="M24.8 4.6501C25.2111 4.6501 25.6053 4.8134 25.896 5.10408C26.1867 5.39476 26.35 5.78901 26.35 6.2001V6.9751C26.35 7.18064 26.4317 7.37776 26.577 7.5231C26.7223 7.66845 26.9195 7.7501 27.125 7.7501C27.3305 7.7501 27.5277 7.66845 27.673 7.5231C27.8183 7.37776 27.9 7.18064 27.9 6.9751V6.2001C27.9 5.37793 27.5734 4.58943 26.992 4.00807C26.4107 3.4267 25.6222 3.1001 24.8 3.1001H24.025C23.8195 3.1001 23.6223 3.18175 23.477 3.32709C23.3317 3.47243 23.25 3.66955 23.25 3.8751C23.25 4.08064 23.3317 4.27776 23.477 4.42311C23.6223 4.56845 23.8195 4.6501 24.025 4.6501H24.8Z" fill="#13151E" fill-opacity="0.9"/>
<path d="M24.8 20.1503C25.2111 20.1503 25.6053 19.987 25.896 19.6963C26.1867 19.4056 26.35 19.0114 26.35 18.6003V17.8253C26.35 17.6197 26.4317 17.4226 26.577 17.2773C26.7223 17.1319 26.9195 17.0503 27.125 17.0503C27.3305 17.0503 27.5277 17.1319 27.673 17.2773C27.8183 17.4226 27.9 17.6197 27.9 17.8253V18.6003C27.9 19.4225 27.5734 20.211 26.992 20.7923C26.4107 21.3737 25.6222 21.7003 24.8 21.7003H24.025C23.8195 21.7003 23.6223 21.6186 23.477 21.4733C23.3317 21.328 23.25 21.1308 23.25 20.9253C23.25 20.7197 23.3317 20.5226 23.477 20.3773C23.6223 20.2319 23.8195 20.1503 24.025 20.1503H24.8Z" fill="#13151E" fill-opacity="0.9"/>
<path d="M27.1246 9.30029C26.9191 9.30029 26.7219 9.38194 26.5766 9.52729C26.4313 9.67263 26.3496 9.86975 26.3496 10.0753V14.7253C26.3496 14.9308 26.4313 15.128 26.5766 15.2733C26.7219 15.4186 26.9191 15.5003 27.1246 15.5003C27.3302 15.5003 27.5273 15.4186 27.6726 15.2733C27.818 15.128 27.8996 14.9308 27.8996 14.7253V10.0753C27.8996 9.86975 27.818 9.67263 27.6726 9.52729C27.5273 9.38194 27.3302 9.30029 27.1246 9.30029Z" fill="#13151E" fill-opacity="0.9"/>
<path d="M16.275 3.1001C16.0695 3.1001 15.8723 3.18175 15.727 3.32709C15.5817 3.47243 15.5 3.66955 15.5 3.8751C15.5 4.08064 15.5817 4.27776 15.727 4.42311C15.8723 4.56845 16.0695 4.6501 16.275 4.6501H20.925C21.1305 4.6501 21.3277 4.56845 21.473 4.42311C21.6183 4.27776 21.7 4.08064 21.7 3.8751C21.7 3.66955 21.6183 3.47243 21.473 3.32709C21.3277 3.18175 21.1305 3.1001 20.925 3.1001H16.275Z" fill="#13151E" fill-opacity="0.9"/>
<path d="M15.5 20.9249C15.5 20.7194 15.5817 20.5222 15.727 20.3769C15.8723 20.2316 16.0695 20.1499 16.275 20.1499H20.925C21.1305 20.1499 21.3277 20.2316 21.473 20.3769C21.6183 20.5222 21.7 20.7194 21.7 20.9249C21.7 21.1304 21.6183 21.3276 21.473 21.4729C21.3277 21.6183 21.1305 21.6999 20.925 21.6999H16.275C16.0695 21.6999 15.8723 21.6183 15.727 21.4729C15.5817 21.3276 15.5 21.1304 15.5 20.9249Z" fill="#13151E" fill-opacity="0.9"/>
<path d="M6.19961 9.30029H7.74961V10.8503H6.19961C5.78852 10.8503 5.39427 11.0136 5.10359 11.3043C4.81291 11.595 4.64961 11.9892 4.64961 12.4003V22.4753C4.64961 23.503 5.05787 24.4886 5.78457 25.2153C6.51127 25.942 7.49689 26.3503 8.52461 26.3503H18.5996C19.0107 26.3503 19.4049 26.187 19.6956 25.8963C19.9863 25.6056 20.1496 25.2114 20.1496 24.8003V23.2503H21.6996V24.8003C21.6996 25.6225 21.373 26.411 20.7916 26.9923C20.2103 27.5737 19.4218 27.9003 18.5996 27.9003H8.52461C7.08581 27.9003 5.70594 27.3287 4.68855 26.3113C3.67117 25.294 3.09961 23.9141 3.09961 22.4753V12.4003C3.09961 11.5781 3.42622 10.7896 4.00758 10.2083C4.58894 9.6269 5.37744 9.30029 6.19961 9.30029Z" fill="#13151E" fill-opacity="0.9"/>
</svg>
