<svg width="36" height="36" viewBox="0 0 36 36" fill="none" xmlns="http://www.w3.org/2000/svg">
<path d="M31.17 5.21687e-05H4.875C4.23587 -0.00291137 3.60245 0.120415 3.01112 0.362949C2.41979 0.605482 1.88219 0.962445 1.42921 1.41334C0.976227 1.86423 0.616782 2.40017 0.371515 2.99037C0.126249 3.58057 -6.87041e-06 4.21342 2.80407e-10 4.85255V31.1476C-6.87041e-06 31.7867 0.126249 32.4195 0.371515 33.0097C0.616782 33.5999 0.976227 34.1359 1.42921 34.5868C1.88219 35.0377 2.41979 35.3946 3.01112 35.6372C3.60245 35.8797 4.23587 36.003 4.875 36.0001H15.435C15.7512 36.0001 16.0642 35.9378 16.3563 35.8168C16.6484 35.6958 16.9138 35.5185 17.1374 35.2949C17.3609 35.0714 17.5383 34.806 17.6592 34.5139C17.7802 34.2218 17.8425 33.9087 17.8425 33.5926V23.4376C17.8425 23.358 17.8109 23.2817 17.7546 23.2254C17.6984 23.1692 17.6221 23.1376 17.5425 23.1376H14.52C14.4152 23.1429 14.3104 23.1263 14.2124 23.0886C14.1144 23.0509 14.0254 22.9931 13.9512 22.9189C13.877 22.8446 13.8191 22.7557 13.7815 22.6577C13.7438 22.5597 13.7271 22.4549 13.7325 22.3501V18.2026C13.7271 18.0977 13.7438 17.9929 13.7815 17.8949C13.8191 17.7969 13.877 17.708 13.9512 17.6337C14.0254 17.5595 14.1144 17.5017 14.2124 17.464C14.3104 17.4263 14.4152 17.4097 14.52 17.4151H17.5575C17.6371 17.4151 17.7134 17.3834 17.7696 17.3272C17.8259 17.2709 17.8575 17.1946 17.8575 17.1151V13.4026C17.8575 8.75255 20.7 6.22505 24.8475 6.22505H28.245C28.4546 6.22504 28.6556 6.30777 28.8045 6.45524C28.9534 6.60272 29.038 6.80301 29.04 7.01255V10.5001C29.0303 10.7036 28.9421 10.8956 28.7938 11.0354C28.6455 11.1753 28.4488 11.2522 28.245 11.2501H26.145C23.895 11.2501 23.4525 12.3226 23.4525 13.8976V17.0701C23.4525 17.1496 23.4841 17.2259 23.5404 17.2822C23.5966 17.3384 23.6729 17.3701 23.7525 17.3701H28.41C28.5202 17.3684 28.6294 17.3911 28.7298 17.4365C28.8303 17.4819 28.9195 17.5489 28.9911 17.6327C29.0627 17.7165 29.1149 17.815 29.1441 17.9213C29.1733 18.0275 29.1787 18.1389 29.16 18.2476L28.6725 22.3951C28.6487 22.5873 28.5556 22.7642 28.4106 22.8927C28.2656 23.0211 28.0787 23.0922 27.885 23.0926H23.775C23.6954 23.0926 23.6191 23.1242 23.5629 23.1804C23.5066 23.2367 23.475 23.313 23.475 23.3926V33.5401C23.469 33.8591 23.5264 34.1761 23.6436 34.4729C23.7609 34.7696 23.9359 35.0402 24.1583 35.2689C24.3808 35.4976 24.6464 35.68 24.9397 35.8055C25.2331 35.931 25.5484 35.9971 25.8675 36.0001H31.17C32.4531 35.9941 33.6815 35.4802 34.5867 34.5709C35.4919 33.6615 36 32.4306 36 31.1476V4.85255C36 3.56948 35.4919 2.33862 34.5867 1.42925C33.6815 0.519871 32.4531 0.00600151 31.17 5.21687e-05Z" fill="#09816C"/>
			<path d="M36.0006 14.0102L29.0256 7.0127V10.5002C29.0159 10.7038 28.9277 10.8957 28.7794 11.0356C28.6312 11.1754 28.4344 11.2524 28.2306 11.2502H26.1456C23.8956 11.2502 23.4531 12.3227 23.4531 13.8977V17.0702C23.4531 17.1498 23.4847 17.2261 23.541 17.2823C23.5973 17.3386 23.6736 17.3702 23.7531 17.3702H28.4106C28.5208 17.3686 28.63 17.3913 28.7305 17.4367C28.8309 17.4821 28.9201 17.549 28.9917 17.6328C29.0633 17.7166 29.1156 17.8151 29.1448 17.9214C29.174 18.0277 29.1794 18.1391 29.1606 18.2477L28.6731 22.3952C28.6494 22.5874 28.5562 22.7644 28.4112 22.8928C28.2662 23.0213 28.0793 23.0923 27.8856 23.0927H23.7756C23.6961 23.0927 23.6198 23.1243 23.5635 23.1806C23.5072 23.2368 23.4756 23.3131 23.4756 23.3927V33.5402C23.4697 33.8592 23.527 34.1763 23.6443 34.473C23.7616 34.7697 23.9365 35.0403 24.159 35.269C24.3814 35.4978 24.647 35.6802 24.9404 35.8057C25.2337 35.9312 25.5491 35.9973 25.8681 36.0002H31.1706C32.4537 35.9942 33.6822 35.4804 34.5873 34.571C35.4925 33.6616 36.0006 32.4308 36.0006 31.1477V14.0102Z" fill="#09816C"/>
			<path d="M17.8586 26.8577V23.4377C17.8586 23.3581 17.827 23.2818 17.7707 23.2256C17.7145 23.1693 17.6382 23.1377 17.5586 23.1377H14.5211C14.3414 23.1356 14.1684 23.0691 14.0336 22.9502L13.9961 22.9952L17.8586 26.8577Z" fill="#09816C"/></svg>
