<svg width="15" height="20" viewBox="0 0 15 20" fill="none" xmlns="http://www.w3.org/2000/svg">
<path d="M13.875 14.7852L11.25 18.1602L8.25 18.9102H5.625L3.375 17.4102L1.875 15.5352L0.75 13.6602L1.125 10.2852L1.875 8.17065L2.25 8.54565V11.0352L3.375 11.9207H4.5L5.25 11.0352L4.875 9.53516L4.5 7.28516L4.875 4.66016L6.375 2.41016L9 1.66016V2.78516L9.375 5.41016L11.625 7.28516L13.5 9.16016L14.25 11.7852L13.875 14.7852Z" fill="#FFDF58"/>
<path d="M11.6748 6.52249C8.30484 4.48632 9.88516 1.6124 9.95297 1.49294C10.0514 1.32295 10.0511 1.11381 9.95216 0.944104C9.8533 0.774402 9.67084 0.669922 9.47341 0.669922C7.73869 0.669922 6.38029 1.1594 5.43595 2.1248C3.82233 3.7744 3.89719 6.3418 3.92912 7.43816C3.93266 7.55959 3.93572 7.66455 3.93572 7.74248C3.93572 8.55649 4.06722 9.30799 4.18326 9.97102C4.25805 10.3983 4.32262 10.7673 4.33408 11.0574C4.34636 11.3679 4.28928 11.4391 4.28685 11.442C4.2787 11.4516 4.21085 11.4874 4.02739 11.4874C3.81816 11.4874 3.66391 11.4195 3.52726 11.2674C2.99345 10.6729 2.95654 9.04982 3.05861 8.16677C3.07686 8.01106 3.02727 7.85505 2.92228 7.73801C2.81733 7.62097 2.66703 7.55403 2.50921 7.55403C1.0731 7.55403 0 9.88635 0 11.9717C0 12.952 0.198536 13.9123 0.590113 14.826C0.968673 15.7092 1.50849 16.5063 2.19462 17.1952C3.62361 18.6298 5.50767 19.4199 7.49982 19.4199C9.49996 19.4199 11.3835 18.641 12.8036 17.2267C14.22 15.816 15 13.9497 15 11.9716C15 9.44763 13.0114 7.33002 11.6748 6.52249ZM7.49982 18.3213C4.03418 18.3213 1.10629 15.4135 1.10629 11.9716C1.10629 11.1346 1.30741 10.2559 1.65805 9.56105C1.73995 9.39871 1.82399 9.25944 1.90692 9.1421C1.91618 10.0484 2.06073 11.2838 2.7007 11.9975C3.04592 12.3825 3.50469 12.586 4.02743 12.586C4.51577 12.586 4.88791 12.439 5.13343 12.1491C5.59245 11.6072 5.45155 10.8021 5.27322 9.78286C5.16484 9.1636 5.04201 8.46168 5.04201 7.74244C5.04201 7.64858 5.03873 7.53634 5.03497 7.4063C5.00469 6.3678 4.94168 4.20682 6.22947 2.89033C6.80756 2.2993 7.61468 1.93961 8.63575 1.81653C8.52048 2.19666 8.4211 2.67921 8.41727 3.21952C8.40879 4.41 8.86729 6.11218 11.0999 7.46108C12.18 8.11371 13.8937 9.91536 13.8937 11.9717C13.8937 15.4729 11.0254 18.3213 7.49982 18.3213Z" fill="#F54748"/>
</svg>
