<svg width="24" height="25" viewBox="0 0 24 25" fill="none" xmlns="http://www.w3.org/2000/svg">
<g clip-path="url(#clip0)">
<path d="M19.3697 14.1231H12.078C12.8117 13.5581 13.572 13.0379 14.2267 12.5362C14.3891 12.4122 14.5471 12.2846 14.7031 12.1561H19.3696C20.0324 12.1561 20.5695 11.619 20.5695 10.9563C20.5695 10.2936 20.0325 9.75653 19.3696 9.75653H16.9212C17.255 9.24534 17.5399 8.69699 17.7494 8.09189C18.289 6.53175 18.0199 4.73526 17.1174 3.36995C14.8414 -0.0736722 10.1653 0.180905 6.90905 1.89153C5.53891 2.61143 6.75171 4.68259 8.1202 3.96366C9.73647 3.11458 11.5309 2.73127 13.2985 3.31241C14.5076 3.70993 15.5119 4.80759 15.6167 6.09798C15.7349 7.56071 14.849 8.78744 13.827 9.75721H4.62951C3.96688 9.75721 3.42969 10.2943 3.42969 10.957C3.42969 11.6197 3.96682 12.1568 4.62951 12.1568H10.7442C10.1859 12.5692 9.63736 12.9938 9.12384 13.465C8.89905 13.6719 8.68814 13.8925 8.4898 14.1238H4.62951C3.96688 14.1238 3.42969 14.6608 3.42969 15.3236C3.42969 15.9861 3.96682 16.5235 4.62951 16.5235H7.09017C6.31046 18.689 6.55604 21.1475 8.31067 22.9575C10.7377 25.4616 14.9009 24.8476 17.7186 23.4747C19.1098 22.7968 17.8927 20.728 16.5074 21.4025C14.3261 22.4657 10.3281 23.0358 9.2925 20.1157C8.79467 18.7118 9.05599 17.5398 9.69971 16.5238H19.3696C20.0324 16.5238 20.5694 15.9865 20.5694 15.3239C20.5695 14.6611 20.0325 14.1231 19.3697 14.1231Z" fill="#01A680"/>
</g>
<defs>
<clipPath id="clip0">
<rect width="24" height="24" fill="white" transform="translate(0 0.669922)"/>
</clipPath>
</defs>
</svg>
