<svg width="36" height="36" viewBox="0 0 36 36" fill="none" xmlns="http://www.w3.org/2000/svg">
<rect width="36" height="36" rx="10" fill="white"/>
<path d="M31.1458 7.02128C30.5634 6.45421 29.6323 6.46569 29.0652 7.04811C28.4981 7.63048 28.5097 8.56159 29.092 9.12866C29.0968 9.13346 29.5787 9.69286 29.5327 10.7628C29.5124 11.2354 29.3718 11.9317 28.9208 12.831C29.3922 13.0925 29.8288 13.4068 30.2119 13.7822C30.5586 14.1221 30.8575 14.5087 31.1139 14.9284C31.9471 13.5423 32.4168 12.1916 32.4725 10.8883C32.5759 8.48688 31.2924 7.16401 31.1458 7.02128Z" fill="#F54748"/>
<path d="M25.584 13.9561C23.627 13.9561 21.5484 14.9331 20.4142 16.5136C14.6034 24.6185 8.72389 25.0342 5.63184 25.0342C5.27828 25.0342 4.96123 25.0285 4.68537 25.0285C3.60965 25.0285 3.14986 25.1108 3.55697 25.9145C4.52148 27.8207 8.92123 30.1541 14.3256 30.1541C18.6784 30.1541 23.6825 28.6397 28.0649 24.1682C30.2757 21.9133 31.0919 17.393 28.8379 15.1831C27.9719 14.3345 26.8014 13.9561 25.584 13.9561Z" fill="#F54748"/>
<path d="M7.18228 21.1458C7.07183 19.7144 7.33885 16.4674 11.6052 14.6389C11.6052 14.6389 10.0213 18.4696 12.1666 20.4077C13.723 19.193 14.8178 17.209 14.9301 15.2903C15.2529 9.7555 11.3887 6.84251 8.87986 5.5446C8.62322 5.41142 8.30992 5.45642 8.10215 5.65763C7.89332 5.85784 7.83677 6.16909 7.95941 6.43065C8.92873 8.48829 9.58105 12.1694 5.43437 16.4541C4.16834 17.7614 5.19994 20.1664 7.18228 21.1458Z" fill="#F54748"/>
</svg>
