<svg width="36" height="36" viewBox="0 0 36 36" fill="none" xmlns="http://www.w3.org/2000/svg">
<path d="M24.5473 1.7998H11.4523C8.89291 1.80179 6.43891 2.81939 4.62915 4.62915C2.81939 6.43891 1.80179 8.89291 1.7998 11.4523V24.5473C1.80179 27.1067 2.81939 29.5607 4.62915 31.3705C6.43891 33.1802 8.89291 34.1978 11.4523 34.1998H24.5473C27.1067 34.1978 29.5607 33.1802 31.3705 31.3705C33.1802 29.5607 34.1978 27.1067 34.1998 24.5473V11.4523C34.1978 8.89291 33.1802 6.43891 31.3705 4.62915C29.5607 2.81939 27.1067 1.80179 24.5473 1.7998Z" fill="#09816C"/>
			<path d="M17.9997 25.1552C21.9513 25.1552 25.1547 21.9518 25.1547 18.0002C25.1547 14.0486 21.9513 10.8452 17.9997 10.8452C14.0481 10.8452 10.8447 14.0486 10.8447 18.0002C10.8447 21.9518 14.0481 25.1552 17.9997 25.1552Z" fill="#09816C"/>
			<path d="M25.275 0H10.725C7.88116 0.00198661 5.15437 1.13258 3.14347 3.14347C1.13258 5.15437 0.00198661 7.88116 0 10.725V25.275C0.00198661 28.1188 1.13258 30.8456 3.14347 32.8565C5.15437 34.8674 7.88116 35.998 10.725 36H25.275C28.1188 35.998 30.8456 34.8674 32.8565 32.8565C34.8674 30.8456 35.998 28.1188 36 25.275V10.725C35.998 7.88116 34.8674 5.15437 32.8565 3.14347C30.8456 1.13258 28.1188 0.00198661 25.275 0ZM32.3775 25.275C32.3775 27.1587 31.6292 28.9652 30.2972 30.2972C28.9652 31.6292 27.1587 32.3775 25.275 32.3775H10.725C8.8413 32.3775 7.03475 31.6292 5.70277 30.2972C4.3708 28.9652 3.6225 27.1587 3.6225 25.275V10.725C3.6225 8.8413 4.3708 7.03475 5.70277 5.70277C7.03475 4.3708 8.8413 3.6225 10.725 3.6225H25.275C27.1587 3.6225 28.9652 4.3708 30.2972 5.70277C31.6292 7.03475 32.3775 8.8413 32.3775 10.725V25.275Z" fill="#09816C"/>
		<path d="M17.9999 8.69238C16.159 8.69238 14.3595 9.23826 12.8289 10.261C11.2983 11.2837 10.1053 12.7373 9.40088 14.4381C8.69642 16.1388 8.5121 18.0102 8.87123 19.8157C9.23036 21.6212 10.1168 23.2796 11.4185 24.5813C12.7202 25.883 14.3786 26.7694 16.1841 27.1285C17.9896 27.4877 19.861 27.3034 21.5617 26.5989C23.2624 25.8944 24.7161 24.7015 25.7388 23.1709C26.7615 21.6402 27.3074 19.8407 27.3074 17.9999C27.3074 15.5314 26.3268 13.164 24.5813 11.4185C22.8358 9.67299 20.4684 8.69238 17.9999 8.69238ZM17.9999 23.6924C16.874 23.6924 15.7734 23.3585 14.8373 22.733C13.9012 22.1075 13.1716 21.2185 12.7407 20.1783C12.3099 19.1381 12.1971 17.9936 12.4168 16.8893C12.6364 15.7851 13.1786 14.7708 13.9747 13.9747C14.7708 13.1786 15.7851 12.6364 16.8893 12.4168C17.9936 12.1971 19.1381 12.3098 20.1783 12.7407C21.2185 13.1716 22.1075 13.9012 22.733 14.8373C23.3585 15.7734 23.6924 16.874 23.6924 17.9999C23.6924 18.7474 23.5451 19.4877 23.2591 20.1783C22.973 20.869 22.5537 21.4965 22.0251 22.0251C21.4965 22.5537 20.869 22.973 20.1783 23.2591C19.4877 23.5451 18.7474 23.6924 17.9999 23.6924Z" fill="#EBEEF2"/>
			<path d="M28.6498 8.75994C28.6498 9.02101 28.5724 9.27622 28.4273 9.49329C28.2823 9.71037 28.0761 9.87955 27.8349 9.97946C27.5937 10.0794 27.3283 10.1055 27.0722 10.0546C26.8162 10.0036 26.581 9.87793 26.3964 9.69332C26.2118 9.50872 26.0861 9.27352 26.0351 9.01746C25.9842 8.76141 26.0103 8.496 26.1102 8.2548C26.2102 8.0136 26.3793 7.80745 26.5964 7.6624C26.8135 7.51736 27.0687 7.43994 27.3298 7.43994C27.6799 7.43994 28.0156 7.57901 28.2631 7.82656C28.5107 8.07411 28.6498 8.40986 28.6498 8.75994Z" fill="#DCDFE2"/></svg>
