<svg width="36" height="36" viewBox="0 0 36 36" fill="none" xmlns="http://www.w3.org/2000/svg">
<rect width="36" height="36" rx="10" fill="white"/>
<path d="M23.0183 6.90293C24.0511 6.84932 24.8741 6.00252 24.8741 4.9565C24.8741 3.87592 23.9981 3 22.9176 3H13.135C12.0544 3 11.1784 3.87592 11.1784 4.9565C11.1784 6.00252 12.0014 6.84932 13.0342 6.90287C12.4234 12.4266 10.2002 12.7904 10.2002 18.3465V30.0652C10.2002 31.6835 11.5167 33 13.135 33H22.9176C24.5359 33 25.8524 31.6835 25.8524 30.0652V18.3465C25.8523 12.7811 23.6306 12.4403 23.0183 6.90293ZM17.3875 15.0942C16.0324 14.1907 14.4253 13.8499 12.8998 14.0386C13.077 13.5362 13.2829 13.0441 13.5209 12.5679C14.3168 10.9753 14.8117 8.80769 15.0017 6.91301H21.0509C21.2408 8.80769 21.7358 10.9753 22.5317 12.5679C22.8632 13.2311 23.1362 13.9237 23.349 14.6346C22.6319 14.9904 20.2766 17.0203 17.3875 15.0942Z" fill="black"/>
<rect x="6" y="9.98047" width="1.2" height="29.201" rx="0.6" transform="rotate(-54.8167 6 9.98047)" fill="#F54748"/>
</svg>
