<svg width="50" height="10" viewBox="0 0 50 10" fill="none" xmlns="http://www.w3.org/2000/svg">
<path d="M41.5527 9.54031C44.6446 8.92193 47.2947 7.33183 49.68 5.38837C50.2101 4.94653 50.0332 4.06314 49.5032 3.70979C46.6764 2.11969 43.5845 0.794601 40.3161 0.441245C39.3444 0.352906 39.2559 1.85467 40.1393 2.03135C42.5244 2.64972 44.8214 3.53311 47.0297 4.68152C46.4113 5.12321 45.7046 5.56505 44.9979 5.91841C45.6163 5.30004 45.3513 3.88647 44.2029 3.88647C29.8036 3.79813 14.9628 0.529583 0.740093 3.09141C-0.408314 3.26809 -0.143292 5.21155 1.00512 5.12321C15.4927 3.9748 29.7151 6.18343 44.2029 6.27176C44.2912 6.27176 44.3795 6.27176 44.3795 6.27176C43.3195 6.8018 42.2594 7.15501 41.0227 7.42017C39.6092 7.59699 40.1393 9.80532 41.5527 9.54031Z" fill="#0A6151"/>
</svg>
