<svg width="50" height="20" viewBox="0 0 50 20" fill="none" xmlns="http://www.w3.org/2000/svg">
<path d="M5.96724 13.1279C13.5558 13.2911 20.6548 16.555 28.2434 16.963C30.4466 17.0446 32.6497 16.7998 34.3633 15.8206C31.2626 15.2496 28.325 14.1888 26.1219 12.1487C23.7554 10.0273 23.5108 6.11062 24.9795 3.33629C26.3667 0.725163 29.8754 0.643566 32.3233 1.29635C38.1169 2.68338 42.0335 9.61919 38.7697 14.5149C42.36 14.7597 45.9503 14.5149 49.459 14.6783C50.1934 14.7597 50.1934 15.8205 49.3774 15.8205C45.7871 16.0653 41.4624 16.3917 37.2193 16.1469C36.9745 16.3102 36.7298 16.555 36.485 16.7181C27.8356 22.7563 15.1879 15.1677 5.88578 14.9229C4.825 14.8413 4.825 13.0463 5.96724 13.1279ZM38.0353 11.1694C38.9329 7.82404 35.9954 4.96812 33.3026 3.58082C30.6099 2.19366 26.7748 2.19366 25.8772 5.70236C24.8165 9.78225 28.3252 12.2301 31.6707 13.291C33.221 13.7805 34.6898 14.1069 36.2402 14.2701C37.1376 13.4542 37.7088 12.475 38.0353 11.1694Z" fill="#0A6151"/>
<path d="M0.419012 13.2092C1.56125 12.4748 2.62202 11.7404 3.68279 11.0062C4.58036 10.3534 5.47794 9.61903 6.53871 9.37424C7.35469 9.12945 8.17067 10.3534 7.43629 10.9245C6.53871 11.5772 5.55954 12.1484 4.66183 12.7196C4.00905 13.1277 3.35626 13.6172 2.78521 14.0252C3.43799 14.3516 4.09078 14.5964 4.74356 14.9228C5.23315 15.1675 5.80433 15.4123 6.29392 15.6571C6.45711 15.7387 6.62031 15.9019 6.70204 16.0651C6.94683 16.3915 6.78351 16.2284 6.70204 16.1467C7.0283 16.3915 7.0283 17.2075 6.45711 17.1259C6.29392 17.2075 6.13086 17.2075 5.88606 17.2075C5.31488 17.0443 4.66196 16.7995 4.09091 16.5547C2.86681 16.065 1.64298 15.5754 0.500475 14.9228C-0.152174 14.4333 -0.152173 13.5356 0.419012 13.2092Z" fill="#0A6151"/>
</svg>
