<svg width="16" height="16" viewBox="0 0 16 16" fill="none" xmlns="http://www.w3.org/2000/svg">
<path d="M7.04894 1.59697C7.3483 0.675661 8.6517 0.675662 8.95106 1.59697L10.0206 4.88877C10.1545 5.30079 10.5385 5.57975 10.9717 5.57975H14.4329C15.4016 5.57975 15.8044 6.81937 15.0207 7.38877L12.2205 9.42321C11.87 9.67785 11.7234 10.1292 11.8572 10.5412L12.9268 13.833C13.2261 14.7544 12.1717 15.5205 11.388 14.9511L8.58778 12.9166C8.2373 12.662 7.7627 12.662 7.41221 12.9166L4.61204 14.9511C3.82833 15.5205 2.77385 14.7544 3.0732 13.833L4.14277 10.5412C4.27665 10.1292 4.12999 9.67785 3.7795 9.42321L0.979333 7.38877C0.195619 6.81937 0.598395 5.57975 1.56712 5.57975H5.02832C5.46154 5.57975 5.8455 5.30079 5.97937 4.88877L7.04894 1.59697Z" fill="#FFDF58"/>
</svg>
