<svg width="36" height="36" viewBox="0 0 36 36" fill="none" xmlns="http://www.w3.org/2000/svg">
<path d="M36 27.9211C36 32.3859 32.3789 36 27.9211 36H8.07891C3.62109 36 0 32.3789 0 27.9211V8.07891C0 3.62109 3.62109 0 8.07891 0H27.9211C32.3789 0 36 3.62109 36 8.07891V27.9211Z" fill="#09816C"/>
			<path d="M17.1818 21.6818L15.9545 24.5454H15.1364L13.5 18.8181L15.1364 17.1818L25.7727 11.0454V13.0909L17.1818 21.6818Z" fill="#09816C"/>
			<path d="M26.9355 9.42904L8.17612 16.7345C7.57144 16.9736 7.60659 17.8454 8.23237 18.0282L12.9996 19.4345L14.7785 25.0806C14.9613 25.6712 15.7136 25.847 16.1425 25.404L18.6105 22.8868L23.448 26.4376C24.0386 26.8736 24.8824 26.5501 25.03 25.8329L28.2293 10.5189C28.391 9.77357 27.6527 9.14779 26.9355 9.42904ZM24.5871 12.8251L15.8753 20.5314C15.791 20.6087 15.7347 20.7142 15.7207 20.8267L15.3832 23.8079C15.3691 23.9064 15.2355 23.9204 15.2074 23.822L13.8293 19.3712C13.766 19.1673 13.8503 18.9493 14.0332 18.8368L24.3199 12.4525C24.5519 12.3189 24.798 12.6423 24.5871 12.8251Z" fill="#ffffff"/></svg>
