<svg width="25" height="26" viewBox="0 0 25 26" fill="none" xmlns="http://www.w3.org/2000/svg">
<g clip-path="url(#clip0)">
<path d="M22.7802 14.4038L22.5136 13.8485C22.3391 13.4851 22.1544 13.1244 21.9621 12.7665V7.63657C21.9621 3.79512 18.8419 0.669922 15.0066 0.669922H9.9931C6.15779 0.669922 3.03758 3.79512 3.03758 7.63657V12.7389C2.89168 13.0173 2.75062 13.2974 2.61551 13.5788L2.21951 14.4038C1.10906 16.7171 1.25042 19.3089 2.60745 21.5146C4.17186 24.0571 7.02728 25.6099 10.2455 25.6682C10.3098 25.6694 10.3743 25.6699 10.4389 25.6699H14.5608C14.6254 25.6699 14.6899 25.6693 14.754 25.6682C17.9724 25.6099 20.8278 24.0571 22.3922 21.5146C23.7493 19.3089 23.8906 16.7171 22.7802 14.4038ZM6.11595 3.75322C7.15643 2.71104 8.53338 2.13711 9.9931 2.13711H15.0066C16.4663 2.13711 17.8433 2.71104 18.8837 3.75322C19.9242 4.79536 20.4972 6.17451 20.4972 7.63657V10.3494C20.4734 10.3142 20.4502 10.2785 20.4261 10.2435L20.0443 9.68667C18.452 7.25073 15.6182 5.79663 12.462 5.79663C12.4618 5.79663 12.4622 5.79663 12.462 5.79663C9.30272 5.79663 6.46605 7.25376 4.87474 9.69414L4.50242 10.2651V7.63662C4.50242 6.17446 5.07542 4.79531 6.11595 3.75322ZM21.1451 20.7448C19.8438 22.8599 17.4447 24.152 14.7273 24.2013C14.6719 24.2022 14.6164 24.2027 14.5608 24.2027H10.4389C10.3832 24.2027 10.3278 24.2022 10.2722 24.2013C7.55506 24.152 5.15594 22.8599 3.85452 20.7448C2.76448 18.9731 2.64974 16.8936 3.53968 15.0396L3.93568 14.2146C4.41517 13.2156 4.96932 12.2322 5.5826 11.2916L6.10111 10.4964C7.42103 8.47222 9.79886 7.26382 12.4619 7.26382C15.125 7.26382 17.5028 8.47222 18.8228 10.4964C18.8259 10.5012 18.829 10.5059 18.8322 10.5105L19.2186 11.0741C19.9659 12.1639 20.6303 13.3112 21.1934 14.4844L21.4599 15.0396C22.3499 16.8936 22.2352 18.9731 21.1451 20.7448Z" fill="url(#paint0_linear)"/>
<path d="M22.7802 14.4038L22.5136 13.8485C22.3391 13.4851 22.1544 13.1244 21.9621 12.7665V7.63657C21.9621 3.79512 18.8419 0.669922 15.0066 0.669922H9.9931C6.15779 0.669922 3.03758 3.79512 3.03758 7.63657V12.7389C2.89168 13.0173 2.75062 13.2974 2.61551 13.5788L2.21951 14.4038C1.10906 16.7171 1.25042 19.3089 2.60745 21.5146C4.17186 24.0571 7.02728 25.6099 10.2455 25.6682C10.3098 25.6694 10.3743 25.6699 10.4389 25.6699H14.5608C14.6254 25.6699 14.6899 25.6693 14.754 25.6682C17.9724 25.6099 20.8278 24.0571 22.3922 21.5146C23.7493 19.3089 23.8906 16.7171 22.7802 14.4038ZM6.11595 3.75322C7.15643 2.71104 8.53338 2.13711 9.9931 2.13711H15.0066C16.4663 2.13711 17.8433 2.71104 18.8837 3.75322C19.9242 4.79536 20.4972 6.17451 20.4972 7.63657V10.3494C20.4734 10.3142 20.4502 10.2785 20.4261 10.2435L20.0443 9.68667C18.452 7.25073 15.6182 5.79663 12.462 5.79663C12.4618 5.79663 12.4622 5.79663 12.462 5.79663C9.30272 5.79663 6.46605 7.25376 4.87474 9.69414L4.50242 10.2651V7.63662C4.50242 6.17446 5.07542 4.79531 6.11595 3.75322ZM21.1451 20.7448C19.8438 22.8599 17.4447 24.152 14.7273 24.2013C14.6719 24.2022 14.6164 24.2027 14.5608 24.2027H10.4389C10.3832 24.2027 10.3278 24.2022 10.2722 24.2013C7.55506 24.152 5.15594 22.8599 3.85452 20.7448C2.76448 18.9731 2.64974 16.8936 3.53968 15.0396L3.93568 14.2146C4.41517 13.2156 4.96932 12.2322 5.5826 11.2916L6.10111 10.4964C7.42103 8.47222 9.79886 7.26382 12.4619 7.26382C15.125 7.26382 17.5028 8.47222 18.8228 10.4964C18.8259 10.5012 18.829 10.5059 18.8322 10.5105L19.2186 11.0741C19.9659 12.1639 20.6303 13.3112 21.1934 14.4844L21.4599 15.0396C22.3499 16.8936 22.2352 18.9731 21.1451 20.7448Z" fill="#01A680"/>
<path d="M8.43877 16.4681L10.6821 14.4026C10.9799 14.1285 10.9994 13.6644 10.7257 13.3661C10.452 13.0679 9.98871 13.0484 9.69081 13.3225L7.9248 14.9484V13.7922C7.9248 13.3871 7.59687 13.0586 7.19238 13.0586C6.78789 13.0586 6.45996 13.3871 6.45996 13.7922V19.3671C6.45996 19.7723 6.78789 20.1007 7.19238 20.1007C7.59687 20.1007 7.9248 19.7723 7.9248 19.3671V18.01L9.87553 19.8951C10.0177 20.0324 10.2009 20.1007 10.384 20.1007C10.5758 20.1007 10.7675 20.0257 10.9112 19.8765C11.192 19.5849 11.1837 19.1205 10.8926 18.8392L8.43877 16.4681Z" fill="url(#paint1_linear)"/>
<path d="M8.43877 16.4681L10.6821 14.4026C10.9799 14.1285 10.9994 13.6644 10.7257 13.3661C10.452 13.0679 9.98871 13.0484 9.69081 13.3225L7.9248 14.9484V13.7922C7.9248 13.3871 7.59687 13.0586 7.19238 13.0586C6.78789 13.0586 6.45996 13.3871 6.45996 13.7922V19.3671C6.45996 19.7723 6.78789 20.1007 7.19238 20.1007C7.59687 20.1007 7.9248 19.7723 7.9248 19.3671V18.01L9.87553 19.8951C10.0177 20.0324 10.2009 20.1007 10.384 20.1007C10.5758 20.1007 10.7675 20.0257 10.9112 19.8765C11.192 19.5849 11.1837 19.1205 10.8926 18.8392L8.43877 16.4681Z" fill="#01A680"/>
<path d="M17.8075 15.8816H16.1425C15.738 15.8816 15.4101 16.2101 15.4101 16.6152C15.4101 17.0204 15.738 17.3488 16.1425 17.3488H16.9842C16.8009 18.0543 16.324 18.6691 15.4051 18.6691C14.2744 18.6691 13.3545 17.7477 13.3545 16.6152C13.3545 15.4828 14.2744 14.5614 15.4051 14.5614C15.8161 14.5614 16.2124 14.6825 16.5511 14.9117C16.8863 15.1386 17.3416 15.0501 17.568 14.7145C17.7945 14.3788 17.7063 13.9228 17.3711 13.6959C16.7894 13.3023 16.1095 13.0942 15.4051 13.0942C13.4667 13.0942 11.8896 14.6738 11.8896 16.6153C11.8896 18.5568 13.4667 20.1363 15.4051 20.1363C17.2508 20.1363 18.5399 18.6884 18.5399 16.6153C18.5399 16.2101 18.2121 15.8816 17.8075 15.8816Z" fill="url(#paint2_linear)"/>
<path d="M17.8075 15.8816H16.1425C15.738 15.8816 15.4101 16.2101 15.4101 16.6152C15.4101 17.0204 15.738 17.3488 16.1425 17.3488H16.9842C16.8009 18.0543 16.324 18.6691 15.4051 18.6691C14.2744 18.6691 13.3545 17.7477 13.3545 16.6152C13.3545 15.4828 14.2744 14.5614 15.4051 14.5614C15.8161 14.5614 16.2124 14.6825 16.5511 14.9117C16.8863 15.1386 17.3416 15.0501 17.568 14.7145C17.7945 14.3788 17.7063 13.9228 17.3711 13.6959C16.7894 13.3023 16.1095 13.0942 15.4051 13.0942C13.4667 13.0942 11.8896 14.6738 11.8896 16.6153C11.8896 18.5568 13.4667 20.1363 15.4051 20.1363C17.2508 20.1363 18.5399 18.6884 18.5399 16.6153C18.5399 16.2101 18.2121 15.8816 17.8075 15.8816Z" fill="#01A680"/>
</g>
<defs>
<linearGradient id="paint0_linear" x1="-1.60222" y1="-4.01758" x2="33.7506" y2="4.19757" gradientUnits="userSpaceOnUse">
<stop stop-color="#65A605" stop-opacity="0.65"/>
<stop offset="1" stop-color="#619E07"/>
</linearGradient>
<linearGradient id="paint1_linear" x1="5.80941" y1="11.7382" x2="13.4484" y2="13.0693" gradientUnits="userSpaceOnUse">
<stop stop-color="#65A605" stop-opacity="0.65"/>
<stop offset="1" stop-color="#619E07"/>
</linearGradient>
<linearGradient id="paint2_linear" x1="10.9606" y1="11.7738" x2="21.5459" y2="14.4082" gradientUnits="userSpaceOnUse">
<stop stop-color="#65A605" stop-opacity="0.65"/>
<stop offset="1" stop-color="#619E07"/>
</linearGradient>
<clipPath id="clip0">
<rect width="25" height="25" fill="white" transform="translate(0 0.669922)"/>
</clipPath>
</defs>
</svg>
